{
    "asset" : {
        "generator" : "Khronos glTF Blender I/O v1.7.33",
        "version" : "2.0"
    },
    "extensionsUsed" : [
        "KHR_texture_transform"
    ],
    "extensionsRequired" : [
        "KHR_texture_transform"
    ],
    "scene" : 0,
    "scenes" : [
        {
            "name" : "Scene",
            "nodes" : [
                0,
                1,
                2,
                3,
                4,
                5,
                6
            ]
        }
    ],
    "nodes" : [
        {
            "mesh" : 0,
            "name" : "BezierCurve.003_BezierCurve.009",
            "translation" : [
                -0.04386049509048462,
                -1.880659580230713,
                0.21030497550964355
            ]
        },
        {
            "mesh" : 1,
            "name" : "BezierCurve.003_BezierCurve.010",
            "translation" : [
                -0.2935241460800171,
                2.046630382537842,
                0.6909976005554199
            ]
        },
        {
            "mesh" : 2,
            "name" : "BezierCurve.003_BezierCurve.011",
            "translation" : [
                -0.5639815926551819,
                0.8731265068054199,
                -0.8907108306884766
            ]
        },
        {
            "mesh" : 3,
            "name" : "BezierCurve.003_BezierCurve.012",
            "translation" : [
                -0.03726941719651222,
                0.7494986057281494,
                -1.2388570308685303
            ]
        },
        {
            "mesh" : 4,
            "name" : "BezierCurve.003_BezierCurve.013",
            "translation" : [
                -0.8572568893432617,
                -1.0729773044586182,
                -0.2090548872947693
            ]
        },
        {
            "name" : "Plane.002",
            "rotation" : [
                0,
                0,
                0.7071067690849304,
                0.7071068286895752
            ],
            "translation" : [
                4.5363335609436035,
                1.5899864435195923,
                0.4824463725090027
            ]
        },
        {
            "mesh" : 5,
            "name" : "BezierCurve.003_BezierCurve.002"
        }
    ],
    "materials" : [
        {
            "doubleSided" : true,
            "name" : "Procedural Scratched Metal LONG",
            "normalTexture" : {
                "extensions" : {
                    "KHR_texture_transform" : {
                        "offset" : [
                            0.06070473714719013,
                            0.40107419924125814
                        ],
                        "rotation" : 0.07330379635095596,
                        "scale" : [
                            0.4000000059604645,
                            0.4000000059604645
                        ]
                    }
                },
                "index" : 0
            },
            "pbrMetallicRoughness" : {
                "baseColorTexture" : {
                    "index" : 1
                },
                "metallicRoughnessTexture" : {
                    "index" : 2
                }
            }
        },
        {
            "doubleSided" : true,
            "name" : "Procedural Scratched Metal",
            "normalTexture" : {
                "index" : 3
            },
            "pbrMetallicRoughness" : {
                "baseColorTexture" : {
                    "index" : 4
                },
                "metallicRoughnessTexture" : {
                    "index" : 5
                }
            }
        },
        {
            "doubleSided" : true,
            "name" : "Procedural Scratched Metal LONG.001",
            "normalTexture" : {
                "extensions" : {
                    "KHR_texture_transform" : {
                        "offset" : [
                            0.06070473714719013,
                            0.40107419924125814
                        ],
                        "rotation" : 0.07330379635095596,
                        "scale" : [
                            0.4000000059604645,
                            0.4000000059604645
                        ]
                    }
                },
                "index" : 6
            },
            "pbrMetallicRoughness" : {
                "baseColorTexture" : {
                    "index" : 7
                },
                "metallicRoughnessTexture" : {
                    "index" : 8
                }
            }
        }
    ],
    "meshes" : [
        {
            "name" : "BezierCurve.003_BezierCurve.009",
            "primitives" : [
                {
                    "attributes" : {
                        "POSITION" : 0,
                        "NORMAL" : 1,
                        "TEXCOORD_0" : 2
                    },
                    "indices" : 3,
                    "material" : 0
                }
            ]
        },
        {
            "name" : "BezierCurve.003_BezierCurve.010",
            "primitives" : [
                {
                    "attributes" : {
                        "POSITION" : 4,
                        "NORMAL" : 5,
                        "TEXCOORD_0" : 6
                    },
                    "indices" : 7,
                    "material" : 0
                }
            ]
        },
        {
            "name" : "BezierCurve.003_BezierCurve.011",
            "primitives" : [
                {
                    "attributes" : {
                        "POSITION" : 8,
                        "NORMAL" : 9,
                        "TEXCOORD_0" : 10
                    },
                    "indices" : 11,
                    "material" : 1
                }
            ]
        },
        {
            "name" : "BezierCurve.003_BezierCurve.012",
            "primitives" : [
                {
                    "attributes" : {
                        "POSITION" : 12,
                        "NORMAL" : 13,
                        "TEXCOORD_0" : 14
                    },
                    "indices" : 15,
                    "material" : 1
                }
            ]
        },
        {
            "name" : "BezierCurve.003_BezierCurve.014",
            "primitives" : [
                {
                    "attributes" : {
                        "POSITION" : 16,
                        "NORMAL" : 17,
                        "TEXCOORD_0" : 18
                    },
                    "indices" : 19,
                    "material" : 0
                }
            ]
        },
        {
            "name" : "BezierCurve.003_BezierCurve.015",
            "primitives" : [
                {
                    "attributes" : {
                        "POSITION" : 20,
                        "NORMAL" : 21,
                        "TEXCOORD_0" : 22
                    },
                    "indices" : 23,
                    "material" : 2
                }
            ]
        }
    ],
    "textures" : [
        {
            "sampler" : 0,
            "source" : 0
        },
        {
            "sampler" : 0,
            "source" : 1
        },
        {
            "sampler" : 0,
            "source" : 2
        },
        {
            "sampler" : 0,
            "source" : 0
        },
        {
            "sampler" : 0,
            "source" : 1
        },
        {
            "sampler" : 0,
            "source" : 2
        },
        {
            "sampler" : 0,
            "source" : 0
        },
        {
            "sampler" : 0,
            "source" : 1
        },
        {
            "sampler" : 0,
            "source" : 3
        }
    ],
    "images" : [
        {
            "mimeType" : "image/png",
            "name" : "GASsignatureNormal",
            "uri" : "GASsignatureNormal.png"
        },
        {
            "mimeType" : "image/jpeg",
            "name" : "Metal_Semirough_01_basecolor",
            "uri" : "Metal_Semirough_01_basecolor.jpg"
        },
        {
            "mimeType" : "image/png",
            "name" : "Metal_Semirough_01_metallic-Metal_Semirough_01_roughness",
            "uri" : "Metal_Semirough_01_metallic-Metal_Semirough_01_roughness.png"
        },
        {
            "mimeType" : "image/png",
            "name" : "Metal_Semirough_01_metallic.jpg-Metal_Semirough_01_roughness.jpg",
            "uri" : "Metal_Semirough_01_metallic_jpg-Metal_Semirough_01_roughness_jpg.png"
        }
    ],
    "accessors" : [
        {
            "bufferView" : 0,
            "componentType" : 5126,
            "count" : 2482,
            "max" : [
                0.822226345539093,
                1.3312029838562012,
                1.8552545309066772
            ],
            "min" : [
                -0.8176441788673401,
                -0.8458437919616699,
                -0.9660371541976929
            ],
            "type" : "VEC3"
        },
        {
            "bufferView" : 1,
            "componentType" : 5126,
            "count" : 2482,
            "type" : "VEC3"
        },
        {
            "bufferView" : 2,
            "componentType" : 5126,
            "count" : 2482,
            "type" : "VEC2"
        },
        {
            "bufferView" : 3,
            "componentType" : 5123,
            "count" : 14430,
            "type" : "SCALAR"
        },
        {
            "bufferView" : 4,
            "componentType" : 5126,
            "count" : 2416,
            "max" : [
                1.0832277536392212,
                1.2865707874298096,
                1.0520198345184326
            ],
            "min" : [
                -0.6232852935791016,
                -0.7729227542877197,
                -0.5350966453552246
            ],
            "type" : "VEC3"
        },
        {
            "bufferView" : 5,
            "componentType" : 5126,
            "count" : 2416,
            "type" : "VEC3"
        },
        {
            "bufferView" : 6,
            "componentType" : 5126,
            "count" : 2416,
            "type" : "VEC2"
        },
        {
            "bufferView" : 7,
            "componentType" : 5123,
            "count" : 14046,
            "type" : "SCALAR"
        },
        {
            "bufferView" : 8,
            "componentType" : 5126,
            "count" : 1901,
            "max" : [
                0.1905995011329651,
                0.257391095161438,
                0.15362119674682617
            ],
            "min" : [
                -0.1683773398399353,
                -0.5033959746360779,
                -0.28506529331207275
            ],
            "type" : "VEC3"
        },
        {
            "bufferView" : 9,
            "componentType" : 5126,
            "count" : 1901,
            "type" : "VEC3"
        },
        {
            "bufferView" : 10,
            "componentType" : 5126,
            "count" : 1901,
            "type" : "VEC2"
        },
        {
            "bufferView" : 11,
            "componentType" : 5123,
            "count" : 10974,
            "type" : "SCALAR"
        },
        {
            "bufferView" : 12,
            "componentType" : 5126,
            "count" : 1901,
            "max" : [
                0.13881556689739227,
                0.33237290382385254,
                0.21899044513702393
            ],
            "min" : [
                -0.32285648584365845,
                -0.3104916512966156,
                -0.13531458377838135
            ],
            "type" : "VEC3"
        },
        {
            "bufferView" : 13,
            "componentType" : 5126,
            "count" : 1901,
            "type" : "VEC3"
        },
        {
            "bufferView" : 14,
            "componentType" : 5126,
            "count" : 1901,
            "type" : "VEC2"
        },
        {
            "bufferView" : 15,
            "componentType" : 5123,
            "count" : 10974,
            "type" : "SCALAR"
        },
        {
            "bufferView" : 16,
            "componentType" : 5126,
            "count" : 2416,
            "max" : [
                0.4061374068260193,
                0.29180240631103516,
                0.15011215209960938
            ],
            "min" : [
                -0.25627756118774414,
                -0.17181289196014404,
                -0.10239565372467041
            ],
            "type" : "VEC3"
        },
        {
            "bufferView" : 17,
            "componentType" : 5126,
            "count" : 2416,
            "type" : "VEC3"
        },
        {
            "bufferView" : 18,
            "componentType" : 5126,
            "count" : 2416,
            "type" : "VEC2"
        },
        {
            "bufferView" : 19,
            "componentType" : 5123,
            "count" : 14046,
            "type" : "SCALAR"
        },
        {
            "bufferView" : 20,
            "componentType" : 5126,
            "count" : 2416,
            "max" : [
                1.127825379371643,
                1.427093744277954,
                1.942101001739502
            ],
            "min" : [
                -1.217599868774414,
                -0.772117018699646,
                -0.6182014346122742
            ],
            "type" : "VEC3"
        },
        {
            "bufferView" : 21,
            "componentType" : 5126,
            "count" : 2416,
            "type" : "VEC3"
        },
        {
            "bufferView" : 22,
            "componentType" : 5126,
            "count" : 2416,
            "type" : "VEC2"
        },
        {
            "bufferView" : 23,
            "componentType" : 5123,
            "count" : 14046,
            "type" : "SCALAR"
        }
    ],
    "bufferViews" : [
        {
            "buffer" : 0,
            "byteLength" : 29784,
            "byteOffset" : 0
        },
        {
            "buffer" : 0,
            "byteLength" : 29784,
            "byteOffset" : 29784
        },
        {
            "buffer" : 0,
            "byteLength" : 19856,
            "byteOffset" : 59568
        },
        {
            "buffer" : 0,
            "byteLength" : 28860,
            "byteOffset" : 79424
        },
        {
            "buffer" : 0,
            "byteLength" : 28992,
            "byteOffset" : 108284
        },
        {
            "buffer" : 0,
            "byteLength" : 28992,
            "byteOffset" : 137276
        },
        {
            "buffer" : 0,
            "byteLength" : 19328,
            "byteOffset" : 166268
        },
        {
            "buffer" : 0,
            "byteLength" : 28092,
            "byteOffset" : 185596
        },
        {
            "buffer" : 0,
            "byteLength" : 22812,
            "byteOffset" : 213688
        },
        {
            "buffer" : 0,
            "byteLength" : 22812,
            "byteOffset" : 236500
        },
        {
            "buffer" : 0,
            "byteLength" : 15208,
            "byteOffset" : 259312
        },
        {
            "buffer" : 0,
            "byteLength" : 21948,
            "byteOffset" : 274520
        },
        {
            "buffer" : 0,
            "byteLength" : 22812,
            "byteOffset" : 296468
        },
        {
            "buffer" : 0,
            "byteLength" : 22812,
            "byteOffset" : 319280
        },
        {
            "buffer" : 0,
            "byteLength" : 15208,
            "byteOffset" : 342092
        },
        {
            "buffer" : 0,
            "byteLength" : 21948,
            "byteOffset" : 357300
        },
        {
            "buffer" : 0,
            "byteLength" : 28992,
            "byteOffset" : 379248
        },
        {
            "buffer" : 0,
            "byteLength" : 28992,
            "byteOffset" : 408240
        },
        {
            "buffer" : 0,
            "byteLength" : 19328,
            "byteOffset" : 437232
        },
        {
            "buffer" : 0,
            "byteLength" : 28092,
            "byteOffset" : 456560
        },
        {
            "buffer" : 0,
            "byteLength" : 28992,
            "byteOffset" : 484652
        },
        {
            "buffer" : 0,
            "byteLength" : 28992,
            "byteOffset" : 513644
        },
        {
            "buffer" : 0,
            "byteLength" : 19328,
            "byteOffset" : 542636
        },
        {
            "buffer" : 0,
            "byteLength" : 28092,
            "byteOffset" : 561964
        }
    ],
    "samplers" : [
        {
            "magFilter" : 9729,
            "minFilter" : 9987
        }
    ],
    "buffers" : [
        {
            "byteLength" : 590056,
            "uri" : "KujiraLogoVert.bin"
        }
    ]
}
