{
    "asset" : {
        "generator" : "Khronos glTF Blender I/O v1.7.33",
        "version" : "2.0"
    },
    "scene" : 0,
    "scenes" : [
        {
            "name" : "Scene",
            "nodes" : [
                0,
                2,
                3,
                4
            ]
        }
    ],
    "nodes" : [
        {
            "mesh" : 0,
            "name" : "label3",
            "scale" : [
                0.010382697917521,
                1,
                0.010382697917521
            ],
            "translation" : [
                0,
                0.19775137305259705,
                0
            ]
        },
        {
            "mesh" : 1,
            "name" : "label",
            "translation" : [
                -0.0084823127835989,
                0,
                0.013309750705957413
            ]
        },
        {
            "children" : [
                1
            ],
            "mesh" : 2,
            "name" : "bottle",
            "scale" : [
                0.05000000074505806,
                0.15000000596046448,
                0.05000000074505806
            ],
            "translation" : [
                0,
                -0.10270129144191742,
                0
            ]
        },
        {
            "mesh" : 3,
            "name" : "Cap",
            "translation" : [
                0,
                -0.011691167950630188,
                0
            ]
        },
        {
            "mesh" : 4,
            "name" : "label4",
            "scale" : [
                0.01067584753036499,
                1,
                0.01067584753036499
            ],
            "translation" : [
                0,
                0.1980106234550476,
                0
            ]
        }
    ],
    "materials" : [
        {
            "doubleSided" : true,
            "emissiveFactor" : [
                0.10000000149011612,
                0.0008845034187213094,
                0.0016694598148682682
            ],
            "name" : "Red",
            "pbrMetallicRoughness" : {
                "baseColorFactor" : [
                    0.8000000715255737,
                    0.021396810188889503,
                    0.004254339728504419,
                    1
                ],
                "metallicFactor" : 0,
                "roughnessFactor" : 0.4905660152435303
            }
        },
        {
            "doubleSided" : true,
            "emissiveFactor" : [
                0.699999988079071,
                0.699999988079071,
                0.699999988079071
            ],
            "emissiveTexture" : {
                "index" : 0
            },
            "name" : "Label",
            "pbrMetallicRoughness" : {
                "baseColorTexture" : {
                    "index" : 1
                },
                "metallicFactor" : 0.7431818246841431,
                "metallicRoughnessTexture" : {
                    "index" : 2
                }
            }
        },
        {
            "doubleSided" : true,
            "name" : "Glass",
            "pbrMetallicRoughness" : {
                "baseColorFactor" : [
                    0.800000011920929,
                    0.800000011920929,
                    0.800000011920929,
                    1
                ],
                "metallicFactor" : 0,
                "roughnessFactor" : 0.5
            }
        },
        {
            "doubleSided" : true,
            "emissiveFactor" : [
                0.07266256917510283,
                0.03738068397910421,
                0.041225445884845335
            ],
            "name" : "Material",
            "pbrMetallicRoughness" : {
                "baseColorFactor" : [
                    0.24619808793067932,
                    0.12563519179821014,
                    0.1399545967578888,
                    1
                ],
                "metallicFactor" : 0,
                "roughnessFactor" : 0.20754718780517578
            }
        }
    ],
    "meshes" : [
        {
            "name" : "label3",
            "primitives" : [
                {
                    "attributes" : {
                        "POSITION" : 0,
                        "NORMAL" : 1,
                        "TEXCOORD_0" : 2
                    },
                    "indices" : 3,
                    "material" : 0
                }
            ]
        },
        {
            "name" : "label",
            "primitives" : [
                {
                    "attributes" : {
                        "POSITION" : 4,
                        "NORMAL" : 5,
                        "TEXCOORD_0" : 6
                    },
                    "indices" : 7,
                    "material" : 1
                }
            ]
        },
        {
            "name" : "bottle",
            "primitives" : [
                {
                    "attributes" : {
                        "POSITION" : 8,
                        "NORMAL" : 9
                    },
                    "indices" : 10,
                    "material" : 2
                }
            ]
        },
        {
            "name" : "Cap",
            "primitives" : [
                {
                    "attributes" : {
                        "POSITION" : 11,
                        "NORMAL" : 12
                    },
                    "indices" : 13,
                    "material" : 3
                }
            ]
        },
        {
            "name" : "label4",
            "primitives" : [
                {
                    "attributes" : {
                        "POSITION" : 14,
                        "NORMAL" : 15,
                        "TEXCOORD_0" : 16
                    },
                    "indices" : 3,
                    "material" : 1
                }
            ]
        }
    ],
    "textures" : [
        {
            "sampler" : 0,
            "source" : 0
        },
        {
            "sampler" : 0,
            "source" : 0
        },
        {
            "sampler" : 0,
            "source" : 1
        }
    ],
    "images" : [
        {
            "mimeType" : "image/jpeg",
            "name" : "DWlabel",
            "uri" : "DWlabel.jpg"
        },
        {
            "mimeType" : "image/jpeg",
            "name" : "labelR",
            "uri" : "labelR.jpg"
        }
    ],
    "accessors" : [
        {
            "bufferView" : 0,
            "componentType" : 5126,
            "count" : 32,
            "max" : [
                1,
                0,
                1
            ],
            "min" : [
                -1,
                0,
                -1
            ],
            "type" : "VEC3"
        },
        {
            "bufferView" : 1,
            "componentType" : 5126,
            "count" : 32,
            "type" : "VEC3"
        },
        {
            "bufferView" : 2,
            "componentType" : 5126,
            "count" : 32,
            "type" : "VEC2"
        },
        {
            "bufferView" : 3,
            "componentType" : 5123,
            "count" : 90,
            "type" : "SCALAR"
        },
        {
            "bufferView" : 4,
            "componentType" : 5126,
            "count" : 39,
            "max" : [
                0.6098143458366394,
                0.8053385019302368,
                0.8624075651168823
            ],
            "min" : [
                -0.8622862100601196,
                0.0939716175198555,
                -0.014478445053100586
            ],
            "type" : "VEC3"
        },
        {
            "bufferView" : 5,
            "componentType" : 5126,
            "count" : 39,
            "type" : "VEC3"
        },
        {
            "bufferView" : 6,
            "componentType" : 5126,
            "count" : 39,
            "type" : "VEC2"
        },
        {
            "bufferView" : 7,
            "componentType" : 5123,
            "count" : 144,
            "type" : "SCALAR"
        },
        {
            "bufferView" : 8,
            "componentType" : 5126,
            "count" : 1570,
            "max" : [
                0.8624076843261719,
                1.9986320734024048,
                0.8624075651168823
            ],
            "min" : [
                -0.8624076843261719,
                0,
                -0.8624077439308167
            ],
            "type" : "VEC3"
        },
        {
            "bufferView" : 9,
            "componentType" : 5126,
            "count" : 1570,
            "type" : "VEC3"
        },
        {
            "bufferView" : 10,
            "componentType" : 5123,
            "count" : 9408,
            "type" : "SCALAR"
        },
        {
            "bufferView" : 11,
            "componentType" : 5126,
            "count" : 288,
            "max" : [
                0.01639462821185589,
                0.20938177406787872,
                0.016394613310694695
            ],
            "min" : [
                -0.016394618898630142,
                0.15056107938289642,
                -0.016394633799791336
            ],
            "type" : "VEC3"
        },
        {
            "bufferView" : 12,
            "componentType" : 5126,
            "count" : 288,
            "type" : "VEC3"
        },
        {
            "bufferView" : 13,
            "componentType" : 5123,
            "count" : 1626,
            "type" : "SCALAR"
        },
        {
            "bufferView" : 14,
            "componentType" : 5126,
            "count" : 32,
            "max" : [
                1,
                0,
                1
            ],
            "min" : [
                -1,
                0,
                -1
            ],
            "type" : "VEC3"
        },
        {
            "bufferView" : 15,
            "componentType" : 5126,
            "count" : 32,
            "type" : "VEC3"
        },
        {
            "bufferView" : 16,
            "componentType" : 5126,
            "count" : 32,
            "type" : "VEC2"
        }
    ],
    "bufferViews" : [
        {
            "buffer" : 0,
            "byteLength" : 384,
            "byteOffset" : 0
        },
        {
            "buffer" : 0,
            "byteLength" : 384,
            "byteOffset" : 384
        },
        {
            "buffer" : 0,
            "byteLength" : 256,
            "byteOffset" : 768
        },
        {
            "buffer" : 0,
            "byteLength" : 180,
            "byteOffset" : 1024
        },
        {
            "buffer" : 0,
            "byteLength" : 468,
            "byteOffset" : 1204
        },
        {
            "buffer" : 0,
            "byteLength" : 468,
            "byteOffset" : 1672
        },
        {
            "buffer" : 0,
            "byteLength" : 312,
            "byteOffset" : 2140
        },
        {
            "buffer" : 0,
            "byteLength" : 288,
            "byteOffset" : 2452
        },
        {
            "buffer" : 0,
            "byteLength" : 18840,
            "byteOffset" : 2740
        },
        {
            "buffer" : 0,
            "byteLength" : 18840,
            "byteOffset" : 21580
        },
        {
            "buffer" : 0,
            "byteLength" : 18816,
            "byteOffset" : 40420
        },
        {
            "buffer" : 0,
            "byteLength" : 3456,
            "byteOffset" : 59236
        },
        {
            "buffer" : 0,
            "byteLength" : 3456,
            "byteOffset" : 62692
        },
        {
            "buffer" : 0,
            "byteLength" : 3252,
            "byteOffset" : 66148
        },
        {
            "buffer" : 0,
            "byteLength" : 384,
            "byteOffset" : 69400
        },
        {
            "buffer" : 0,
            "byteLength" : 384,
            "byteOffset" : 69784
        },
        {
            "buffer" : 0,
            "byteLength" : 256,
            "byteOffset" : 70168
        }
    ],
    "samplers" : [
        {
            "magFilter" : 9729,
            "minFilter" : 9987
        }
    ],
    "buffers" : [
        {
            "byteLength" : 70424,
            "uri" : "DW.bin"
        }
    ]
}
