{
    "asset" : {
        "generator" : "Khronos glTF Blender I/O v1.7.33",
        "version" : "2.0"
    },
    "scene" : 0,
    "scenes" : [
        {
            "name" : "Scene",
            "nodes" : [
                0,
                1
            ]
        }
    ],
    "nodes" : [
        {
            "mesh" : 0,
            "name" : "HaloCover",
            "scale" : [
                1.2400000095367432,
                0.020321616902947426,
                1.5549999475479126
            ]
        },
        {
            "mesh" : 1,
            "name" : "HaloPages",
            "scale" : [
                1.2400000095367432,
                0.020321616902947426,
                1.5549999475479126
            ]
        }
    ],
    "materials" : [
        {
            "doubleSided" : true,
            "emissiveFactor" : [
                0.7999999523162842,
                0.7999999523162842,
                0.7999999523162842
            ],
            "emissiveTexture" : {
                "index" : 0
            },
            "name" : "Cover",
            "normalTexture" : {
                "index" : 1,
                "scale" : 1.000000238418579
            },
            "pbrMetallicRoughness" : {
                "baseColorTexture" : {
                    "index" : 2
                },
                "metallicFactor" : 0,
                "roughnessFactor" : 0.11136364191770554
            }
        },
        {
            "doubleSided" : true,
            "emissiveFactor" : [
                0.09964260458946228,
                0.09964260458946228,
                0.09964260458946228
            ],
            "name" : "Paper",
            "pbrMetallicRoughness" : {
                "baseColorFactor" : [
                    0.7248943448066711,
                    0.7511128783226013,
                    0.8000000715255737,
                    1
                ],
                "metallicFactor" : 0,
                "roughnessFactor" : 0.5
            }
        }
    ],
    "meshes" : [
        {
            "name" : "Halo",
            "primitives" : [
                {
                    "attributes" : {
                        "POSITION" : 0,
                        "NORMAL" : 1,
                        "TEXCOORD_0" : 2
                    },
                    "indices" : 3,
                    "material" : 0
                }
            ]
        },
        {
            "name" : "Halo.001",
            "primitives" : [
                {
                    "attributes" : {
                        "POSITION" : 4,
                        "NORMAL" : 5,
                        "TEXCOORD_0" : 6,
                        "TEXCOORD_1" : 7
                    },
                    "indices" : 8,
                    "material" : 1
                }
            ]
        }
    ],
    "textures" : [
        {
            "sampler" : 0,
            "source" : 0
        },
        {
            "sampler" : 0,
            "source" : 1
        },
        {
            "sampler" : 0,
            "source" : 0
        }
    ],
    "images" : [
        {
            "mimeType" : "image/jpeg",
            "name" : "HaloDifuse",
            "uri" : "HaloDifuse.jpg"
        },
        {
            "mimeType" : "image/jpeg",
            "name" : "HaloNormal",
            "uri" : "HaloNormal.jpg"
        }
    ],
    "accessors" : [
        {
            "bufferView" : 0,
            "componentType" : 5126,
            "count" : 84,
            "max" : [
                1,
                1,
                1
            ],
            "min" : [
                -1,
                -1,
                -1
            ],
            "type" : "VEC3"
        },
        {
            "bufferView" : 1,
            "componentType" : 5126,
            "count" : 84,
            "type" : "VEC3"
        },
        {
            "bufferView" : 2,
            "componentType" : 5126,
            "count" : 84,
            "type" : "VEC2"
        },
        {
            "bufferView" : 3,
            "componentType" : 5123,
            "count" : 162,
            "type" : "SCALAR"
        },
        {
            "bufferView" : 4,
            "componentType" : 5126,
            "count" : 84,
            "max" : [
                1,
                1,
                1
            ],
            "min" : [
                -1,
                -1,
                -1
            ],
            "type" : "VEC3"
        },
        {
            "bufferView" : 5,
            "componentType" : 5126,
            "count" : 84,
            "type" : "VEC3"
        },
        {
            "bufferView" : 6,
            "componentType" : 5126,
            "count" : 84,
            "type" : "VEC2"
        },
        {
            "bufferView" : 7,
            "componentType" : 5126,
            "count" : 84,
            "type" : "VEC2"
        },
        {
            "bufferView" : 8,
            "componentType" : 5123,
            "count" : 162,
            "type" : "SCALAR"
        }
    ],
    "bufferViews" : [
        {
            "buffer" : 0,
            "byteLength" : 1008,
            "byteOffset" : 0
        },
        {
            "buffer" : 0,
            "byteLength" : 1008,
            "byteOffset" : 1008
        },
        {
            "buffer" : 0,
            "byteLength" : 672,
            "byteOffset" : 2016
        },
        {
            "buffer" : 0,
            "byteLength" : 324,
            "byteOffset" : 2688
        },
        {
            "buffer" : 0,
            "byteLength" : 1008,
            "byteOffset" : 3012
        },
        {
            "buffer" : 0,
            "byteLength" : 1008,
            "byteOffset" : 4020
        },
        {
            "buffer" : 0,
            "byteLength" : 672,
            "byteOffset" : 5028
        },
        {
            "buffer" : 0,
            "byteLength" : 672,
            "byteOffset" : 5700
        },
        {
            "buffer" : 0,
            "byteLength" : 324,
            "byteOffset" : 6372
        }
    ],
    "samplers" : [
        {
            "magFilter" : 9729,
            "minFilter" : 9987
        }
    ],
    "buffers" : [
        {
            "byteLength" : 6696,
            "uri" : "Halo.bin"
        }
    ]
}
