{
    "asset" : {
        "generator" : "Khronos glTF Blender I/O v1.7.33",
        "version" : "2.0"
    },
    "scene" : 0,
    "scenes" : [
        {
            "name" : "Scene",
            "nodes" : [
                0
            ]
        }
    ],
    "nodes" : [
        {
            "mesh" : 0,
            "name" : "Halo",
            "scale" : [
                1.2400000095367432,
                0.028881723061203957,
                1.5549999475479126
            ]
        }
    ],
    "materials" : [
        {
            "doubleSided" : true,
            "emissiveFactor" : [
                0.800000011920929,
                0.800000011920929,
                0.800000011920929
            ],
            "emissiveTexture" : {
                "index" : 0
            },
            "name" : "Cover",
            "normalTexture" : {
                "index" : 1,
                "scale" : 0.800000011920929
            },
            "pbrMetallicRoughness" : {
                "baseColorTexture" : {
                    "index" : 2
                },
                "metallicRoughnessTexture" : {
                    "index" : 3
                },
                "roughnessFactor" : 0.0863640159368515
            }
        },
        {
            "doubleSided" : true,
            "emissiveFactor" : [
                1,
                1,
                1
            ],
            "emissiveTexture" : {
                "index" : 4
            },
            "name" : "Paper",
            "pbrMetallicRoughness" : {
                "baseColorTexture" : {
                    "index" : 5
                },
                "metallicFactor" : 0,
                "roughnessFactor" : 0.08636364340782166
            }
        }
    ],
    "meshes" : [
        {
            "name" : "Halo",
            "primitives" : [
                {
                    "attributes" : {
                        "POSITION" : 0,
                        "NORMAL" : 1,
                        "TEXCOORD_0" : 2,
                        "TEXCOORD_1" : 3
                    },
                    "indices" : 4,
                    "material" : 0
                },
                {
                    "attributes" : {
                        "POSITION" : 5,
                        "NORMAL" : 6,
                        "TEXCOORD_0" : 7,
                        "TEXCOORD_1" : 8
                    },
                    "indices" : 9,
                    "material" : 1
                }
            ]
        }
    ],
    "textures" : [
        {
            "sampler" : 0,
            "source" : 0
        },
        {
            "sampler" : 0,
            "source" : 1
        },
        {
            "sampler" : 0,
            "source" : 0
        },
        {
            "sampler" : 0,
            "source" : 2
        },
        {
            "sampler" : 0,
            "source" : 3
        },
        {
            "sampler" : 0,
            "source" : 3
        }
    ],
    "images" : [
        {
            "mimeType" : "image/jpeg",
            "name" : "HaloDifuse",
            "uri" : "HaloDifuse.jpg"
        },
        {
            "mimeType" : "image/jpeg",
            "name" : "HaloNormal",
            "uri" : "HaloNormal.jpg"
        },
        {
            "mimeType" : "image/jpeg",
            "name" : "HaloRough",
            "uri" : "HaloRough.jpg"
        },
        {
            "mimeType" : "image/jpeg",
            "name" : "MagSide",
            "uri" : "MagSide.jpg"
        }
    ],
    "accessors" : [
        {
            "bufferView" : 0,
            "componentType" : 5126,
            "count" : 3394,
            "max" : [
                1.0000348091125488,
                1.0736570358276367,
                1.0035784244537354
            ],
            "min" : [
                -1.0080569982528687,
                -2.4261889457702637,
                -1
            ],
            "type" : "VEC3"
        },
        {
            "bufferView" : 1,
            "componentType" : 5126,
            "count" : 3394,
            "type" : "VEC3"
        },
        {
            "bufferView" : 2,
            "componentType" : 5126,
            "count" : 3394,
            "type" : "VEC2"
        },
        {
            "bufferView" : 3,
            "componentType" : 5126,
            "count" : 3394,
            "type" : "VEC2"
        },
        {
            "bufferView" : 4,
            "componentType" : 5123,
            "count" : 5541,
            "type" : "SCALAR"
        },
        {
            "bufferView" : 5,
            "componentType" : 5126,
            "count" : 1155,
            "max" : [
                1.0000348091125488,
                0.599206805229187,
                1.00812566280365
            ],
            "min" : [
                -1.001868486404419,
                -2.184380292892456,
                -1.0026546716690063
            ],
            "type" : "VEC3"
        },
        {
            "bufferView" : 6,
            "componentType" : 5126,
            "count" : 1155,
            "type" : "VEC3"
        },
        {
            "bufferView" : 7,
            "componentType" : 5126,
            "count" : 1155,
            "type" : "VEC2"
        },
        {
            "bufferView" : 8,
            "componentType" : 5126,
            "count" : 1155,
            "type" : "VEC2"
        },
        {
            "bufferView" : 9,
            "componentType" : 5123,
            "count" : 2523,
            "type" : "SCALAR"
        }
    ],
    "bufferViews" : [
        {
            "buffer" : 0,
            "byteLength" : 40728,
            "byteOffset" : 0
        },
        {
            "buffer" : 0,
            "byteLength" : 40728,
            "byteOffset" : 40728
        },
        {
            "buffer" : 0,
            "byteLength" : 27152,
            "byteOffset" : 81456
        },
        {
            "buffer" : 0,
            "byteLength" : 27152,
            "byteOffset" : 108608
        },
        {
            "buffer" : 0,
            "byteLength" : 11082,
            "byteOffset" : 135760
        },
        {
            "buffer" : 0,
            "byteLength" : 13860,
            "byteOffset" : 146844
        },
        {
            "buffer" : 0,
            "byteLength" : 13860,
            "byteOffset" : 160704
        },
        {
            "buffer" : 0,
            "byteLength" : 9240,
            "byteOffset" : 174564
        },
        {
            "buffer" : 0,
            "byteLength" : 9240,
            "byteOffset" : 183804
        },
        {
            "buffer" : 0,
            "byteLength" : 5046,
            "byteOffset" : 193044
        }
    ],
    "samplers" : [
        {
            "magFilter" : 9729,
            "minFilter" : 9987
        }
    ],
    "buffers" : [
        {
            "byteLength" : 198092,
            "uri" : "Halo.bin"
        }
    ]
}
