{
    "asset" : {
        "generator" : "Khronos glTF Blender I/O v1.7.33",
        "version" : "2.0"
    },
    "scene" : 0,
    "scenes" : [
        {
            "name" : "Scene",
            "nodes" : [
                0
            ]
        }
    ],
    "nodes" : [
        {
            "mesh" : 0,
            "name" : "Halo",
            "scale" : [
                1.2400000095367432,
                0.028881723061203957,
                1.5549999475479126
            ]
        }
    ],
    "materials" : [
        {
            "doubleSided" : true,
            "emissiveFactor" : [
                1,
                1,
                1
            ],
            "emissiveTexture" : {
                "index" : 0
            },
            "name" : "Cover",
            "normalTexture" : {
                "index" : 1,
                "scale" : 5
            },
            "pbrMetallicRoughness" : {
                "baseColorTexture" : {
                    "index" : 2
                },
                "metallicFactor" : 0,
                "roughnessFactor" : 0.03636401891708374
            }
        },
        {
            "doubleSided" : true,
            "emissiveFactor" : [
                0.13054199516773224,
                0.13054199516773224,
                0.13054199516773224
            ],
            "name" : "Paper",
            "pbrMetallicRoughness" : {
                "baseColorFactor" : [
                    0.7248943448066711,
                    0.7511128783226013,
                    0.8000000715255737,
                    1
                ],
                "metallicFactor" : 0,
                "roughnessFactor" : 0.11320754885673523
            }
        }
    ],
    "meshes" : [
        {
            "name" : "Halo",
            "primitives" : [
                {
                    "attributes" : {
                        "POSITION" : 0,
                        "NORMAL" : 1,
                        "TEXCOORD_0" : 2,
                        "TEXCOORD_1" : 3
                    },
                    "indices" : 4,
                    "material" : 0
                },
                {
                    "attributes" : {
                        "POSITION" : 5,
                        "NORMAL" : 6,
                        "TEXCOORD_0" : 7,
                        "TEXCOORD_1" : 8
                    },
                    "indices" : 9,
                    "material" : 1
                }
            ]
        }
    ],
    "textures" : [
        {
            "sampler" : 0,
            "source" : 0
        },
        {
            "sampler" : 0,
            "source" : 1
        },
        {
            "sampler" : 0,
            "source" : 0
        }
    ],
    "images" : [
        {
            "mimeType" : "image/jpeg",
            "name" : "HaloDifuse.jpg.001",
            "uri" : "HaloDifuse.jpg"
        },
        {
            "mimeType" : "image/jpeg",
            "name" : "HaloNormal.jpg.001",
            "uri" : "HaloNormal.jpg"
        }
    ],
    "accessors" : [
        {
            "bufferView" : 0,
            "componentType" : 5126,
            "count" : 84,
            "max" : [
                1,
                1,
                1
            ],
            "min" : [
                -1,
                -1.2331093549728394,
                -1
            ],
            "type" : "VEC3"
        },
        {
            "bufferView" : 1,
            "componentType" : 5126,
            "count" : 84,
            "type" : "VEC3"
        },
        {
            "bufferView" : 2,
            "componentType" : 5126,
            "count" : 84,
            "type" : "VEC2"
        },
        {
            "bufferView" : 3,
            "componentType" : 5126,
            "count" : 84,
            "type" : "VEC2"
        },
        {
            "bufferView" : 4,
            "componentType" : 5123,
            "count" : 162,
            "type" : "SCALAR"
        },
        {
            "bufferView" : 5,
            "componentType" : 5126,
            "count" : 81,
            "max" : [
                1.0000001192092896,
                1,
                1
            ],
            "min" : [
                -1.0000001192092896,
                -1.2331093549728394,
                -1
            ],
            "type" : "VEC3"
        },
        {
            "bufferView" : 6,
            "componentType" : 5126,
            "count" : 81,
            "type" : "VEC3"
        },
        {
            "bufferView" : 7,
            "componentType" : 5126,
            "count" : 81,
            "type" : "VEC2"
        },
        {
            "bufferView" : 8,
            "componentType" : 5126,
            "count" : 81,
            "type" : "VEC2"
        },
        {
            "bufferView" : 9,
            "componentType" : 5123,
            "count" : 162,
            "type" : "SCALAR"
        }
    ],
    "bufferViews" : [
        {
            "buffer" : 0,
            "byteLength" : 1008,
            "byteOffset" : 0
        },
        {
            "buffer" : 0,
            "byteLength" : 1008,
            "byteOffset" : 1008
        },
        {
            "buffer" : 0,
            "byteLength" : 672,
            "byteOffset" : 2016
        },
        {
            "buffer" : 0,
            "byteLength" : 672,
            "byteOffset" : 2688
        },
        {
            "buffer" : 0,
            "byteLength" : 324,
            "byteOffset" : 3360
        },
        {
            "buffer" : 0,
            "byteLength" : 972,
            "byteOffset" : 3684
        },
        {
            "buffer" : 0,
            "byteLength" : 972,
            "byteOffset" : 4656
        },
        {
            "buffer" : 0,
            "byteLength" : 648,
            "byteOffset" : 5628
        },
        {
            "buffer" : 0,
            "byteLength" : 648,
            "byteOffset" : 6276
        },
        {
            "buffer" : 0,
            "byteLength" : 324,
            "byteOffset" : 6924
        }
    ],
    "samplers" : [
        {
            "magFilter" : 9729,
            "minFilter" : 9987
        }
    ],
    "buffers" : [
        {
            "byteLength" : 7248,
            "uri" : "Halo.bin"
        }
    ]
}
