{
    "asset" : {
        "generator" : "Khronos glTF Blender I/O v1.7.33",
        "version" : "2.0"
    },
    "extensionsUsed" : [
        "KHR_texture_transform"
    ],
    "extensionsRequired" : [
        "KHR_texture_transform"
    ],
    "scene" : 0,
    "scenes" : [
        {
            "name" : "Scene",
            "nodes" : [
                9
            ]
        }
    ],
    "nodes" : [
        {
            "name" : "Bone.001",
            "rotation" : [
                6.660821583182042e-08,
                3.019343441934552e-09,
                0.0029707015492022038,
                0.9999955892562866
            ],
            "scale" : [
                0.9999999403953552,
                0.9999999403953552,
                1
            ],
            "translation" : [
                3.542326432182108e-10,
                0.8230800032615662,
                -7.465730609407511e-15
            ]
        },
        {
            "name" : "Bone.004",
            "rotation" : [
                -3.302384854464435e-08,
                -8.489642056019875e-08,
                0.29006868600845337,
                0.9570058584213257
            ],
            "scale" : [
                1,
                0.9999999403953552,
                1
            ],
            "translation" : [
                -5.960465188081798e-08,
                0.3895752727985382,
                -1.0658141036401503e-14
            ]
        },
        {
            "children" : [
                1
            ],
            "name" : "Bone.003",
            "rotation" : [
                -1.3036297730195656e-07,
                -1.0054781540702606e-07,
                0.4318138360977173,
                0.9019627571105957
            ],
            "translation" : [
                5.681067349883051e-08,
                0.15469032526016235,
                3.4638958368304884e-14
            ]
        },
        {
            "children" : [
                2
            ],
            "name" : "Bone.002",
            "rotation" : [
                2.7387986278881726e-07,
                8.239004500865121e-08,
                -0.7497914433479309,
                0.6616742610931396
            ],
            "scale" : [
                0.9999998807907104,
                0.9999998807907104,
                1
            ],
            "translation" : [
                1.3001226761844009e-08,
                0.8230801224708557,
                3.142278782010746e-14
            ]
        },
        {
            "name" : "Bone.007",
            "rotation" : [
                1.8210798202744627e-07,
                -7.672280588622016e-08,
                -0.7728187441825867,
                0.6346268057823181
            ],
            "scale" : [
                1.0643502473831177,
                1.147517204284668,
                1
            ],
            "translation" : [
                4.948334009213795e-08,
                0.45942187309265137,
                2.0282280154969475e-14
            ]
        },
        {
            "children" : [
                4
            ],
            "name" : "Bone.006",
            "rotation" : [
                -7.864803563961686e-08,
                2.0763798147527268e-07,
                0.38635262846946716,
                0.9223511815071106
            ],
            "scale" : [
                0.9860078692436218,
                0.7316963076591492,
                1
            ],
            "translation" : [
                -5.744198716683968e-08,
                0.20460936427116394,
                4.369709482492448e-14
            ]
        },
        {
            "children" : [
                5
            ],
            "name" : "Bone.005",
            "rotation" : [
                7.420978676009327e-08,
                -1.0961282725929777e-07,
                0.44832074642181396,
                0.8938727378845215
            ],
            "scale" : [
                0.9999999403953552,
                0.9999999403953552,
                1
            ],
            "translation" : [
                5.587935447692871e-09,
                0.8230800628662109,
                4.440892098500626e-16
            ]
        },
        {
            "children" : [
                0,
                3,
                6
            ],
            "name" : "Bone",
            "rotation" : [
                -4.083550919631307e-08,
                8.350581737204266e-08,
                0.04374997317790985,
                0.9990425109863281
            ],
            "scale" : [
                1,
                0.9999999403953552,
                1
            ],
            "translation" : [
                -0.023341668769717216,
                0.014004998840391636,
                0
            ]
        },
        {
            "mesh" : 0,
            "name" : "IKAC",
            "skin" : 0
        },
        {
            "children" : [
                8,
                7
            ],
            "name" : "Armature",
            "translation" : [
                0,
                -0.7881187200546265,
                0
            ]
        }
    ],
    "animations" : [
        {
            "channels" : [
                {
                    "sampler" : 0,
                    "target" : {
                        "node" : 7,
                        "path" : "translation"
                    }
                },
                {
                    "sampler" : 1,
                    "target" : {
                        "node" : 7,
                        "path" : "rotation"
                    }
                },
                {
                    "sampler" : 2,
                    "target" : {
                        "node" : 7,
                        "path" : "scale"
                    }
                },
                {
                    "sampler" : 3,
                    "target" : {
                        "node" : 2,
                        "path" : "translation"
                    }
                },
                {
                    "sampler" : 4,
                    "target" : {
                        "node" : 2,
                        "path" : "rotation"
                    }
                },
                {
                    "sampler" : 5,
                    "target" : {
                        "node" : 2,
                        "path" : "scale"
                    }
                },
                {
                    "sampler" : 6,
                    "target" : {
                        "node" : 1,
                        "path" : "translation"
                    }
                },
                {
                    "sampler" : 7,
                    "target" : {
                        "node" : 1,
                        "path" : "rotation"
                    }
                },
                {
                    "sampler" : 8,
                    "target" : {
                        "node" : 1,
                        "path" : "scale"
                    }
                },
                {
                    "sampler" : 9,
                    "target" : {
                        "node" : 5,
                        "path" : "translation"
                    }
                },
                {
                    "sampler" : 10,
                    "target" : {
                        "node" : 5,
                        "path" : "rotation"
                    }
                },
                {
                    "sampler" : 11,
                    "target" : {
                        "node" : 5,
                        "path" : "scale"
                    }
                },
                {
                    "sampler" : 12,
                    "target" : {
                        "node" : 4,
                        "path" : "translation"
                    }
                },
                {
                    "sampler" : 13,
                    "target" : {
                        "node" : 4,
                        "path" : "rotation"
                    }
                },
                {
                    "sampler" : 14,
                    "target" : {
                        "node" : 4,
                        "path" : "scale"
                    }
                }
            ],
            "name" : "ArmatureAction",
            "samplers" : [
                {
                    "input" : 8,
                    "interpolation" : "LINEAR",
                    "output" : 9
                },
                {
                    "input" : 10,
                    "interpolation" : "LINEAR",
                    "output" : 11
                },
                {
                    "input" : 8,
                    "interpolation" : "LINEAR",
                    "output" : 12
                },
                {
                    "input" : 8,
                    "interpolation" : "LINEAR",
                    "output" : 13
                },
                {
                    "input" : 10,
                    "interpolation" : "LINEAR",
                    "output" : 14
                },
                {
                    "input" : 10,
                    "interpolation" : "LINEAR",
                    "output" : 15
                },
                {
                    "input" : 8,
                    "interpolation" : "LINEAR",
                    "output" : 16
                },
                {
                    "input" : 10,
                    "interpolation" : "LINEAR",
                    "output" : 17
                },
                {
                    "input" : 10,
                    "interpolation" : "LINEAR",
                    "output" : 18
                },
                {
                    "input" : 8,
                    "interpolation" : "LINEAR",
                    "output" : 19
                },
                {
                    "input" : 10,
                    "interpolation" : "LINEAR",
                    "output" : 20
                },
                {
                    "input" : 10,
                    "interpolation" : "LINEAR",
                    "output" : 21
                },
                {
                    "input" : 8,
                    "interpolation" : "LINEAR",
                    "output" : 22
                },
                {
                    "input" : 10,
                    "interpolation" : "LINEAR",
                    "output" : 23
                },
                {
                    "input" : 10,
                    "interpolation" : "LINEAR",
                    "output" : 24
                }
            ]
        }
    ],
    "materials" : [
        {
            "doubleSided" : true,
            "emissiveFactor" : [
                0.008738236103981167,
                0.026167587485614874,
                0.003938987262606108
            ],
            "name" : "Green Jade",
            "normalTexture" : {
                "extensions" : {
                    "KHR_texture_transform" : {
                        "offset" : [
                            0,
                            0.5
                        ],
                        "scale" : [
                            0.5,
                            0.5
                        ]
                    }
                },
                "index" : 0,
                "scale" : 0.5
            },
            "pbrMetallicRoughness" : {
                "baseColorFactor" : [
                    0.0013346853666007519,
                    0.044647034257650375,
                    0.0033608279190957546,
                    1
                ],
                "metallicFactor" : 0,
                "metallicRoughnessTexture" : {
                    "extensions" : {
                        "KHR_texture_transform" : {
                            "offset" : [
                                0,
                                0.5
                            ],
                            "scale" : [
                                0.5,
                                0.5
                            ]
                        }
                    },
                    "index" : 1
                }
            }
        }
    ],
    "meshes" : [
        {
            "name" : "Cactus",
            "primitives" : [
                {
                    "attributes" : {
                        "POSITION" : 0,
                        "NORMAL" : 1,
                        "TEXCOORD_0" : 2,
                        "TEXCOORD_1" : 3,
                        "JOINTS_0" : 4,
                        "WEIGHTS_0" : 5
                    },
                    "indices" : 6,
                    "material" : 0
                }
            ]
        }
    ],
    "textures" : [
        {
            "sampler" : 0,
            "source" : 0
        },
        {
            "sampler" : 0,
            "source" : 1
        }
    ],
    "images" : [
        {
            "mimeType" : "image/jpeg",
            "name" : "marble_0014_normal_opengl_2k",
            "uri" : "marble_0014_normal_opengl_2k.jpg"
        },
        {
            "mimeType" : "image/png",
            "name" : "marble_0014_roughness_2k",
            "uri" : "marble_0014_roughness_2k.png"
        }
    ],
    "skins" : [
        {
            "inverseBindMatrices" : 7,
            "joints" : [
                7,
                0,
                3,
                2,
                1,
                6,
                5,
                4
            ],
            "name" : "Armature"
        }
    ],
    "accessors" : [
        {
            "bufferView" : 0,
            "componentType" : 5126,
            "count" : 4757,
            "max" : [
                0.5848440527915955,
                0.9236598014831543,
                0.18258272111415863
            ],
            "min" : [
                -0.7149859070777893,
                -0.7815059423446655,
                -0.1823050081729889
            ],
            "type" : "VEC3"
        },
        {
            "bufferView" : 1,
            "componentType" : 5126,
            "count" : 4757,
            "type" : "VEC3"
        },
        {
            "bufferView" : 2,
            "componentType" : 5126,
            "count" : 4757,
            "type" : "VEC2"
        },
        {
            "bufferView" : 3,
            "componentType" : 5126,
            "count" : 4757,
            "type" : "VEC2"
        },
        {
            "bufferView" : 4,
            "componentType" : 5121,
            "count" : 4757,
            "type" : "VEC4"
        },
        {
            "bufferView" : 5,
            "componentType" : 5126,
            "count" : 4757,
            "type" : "VEC4"
        },
        {
            "bufferView" : 6,
            "componentType" : 5123,
            "count" : 14400,
            "type" : "SCALAR"
        },
        {
            "bufferView" : 7,
            "componentType" : 5126,
            "count" : 8,
            "type" : "MAT4"
        },
        {
            "bufferView" : 8,
            "componentType" : 5126,
            "count" : 2,
            "max" : [
                0.8333333333333334
            ],
            "min" : [
                0.041666666666666664
            ],
            "type" : "SCALAR"
        },
        {
            "bufferView" : 9,
            "componentType" : 5126,
            "count" : 2,
            "type" : "VEC3"
        },
        {
            "bufferView" : 10,
            "componentType" : 5126,
            "count" : 20,
            "max" : [
                0.8333333333333334
            ],
            "min" : [
                0.041666666666666664
            ],
            "type" : "SCALAR"
        },
        {
            "bufferView" : 11,
            "componentType" : 5126,
            "count" : 20,
            "type" : "VEC4"
        },
        {
            "bufferView" : 12,
            "componentType" : 5126,
            "count" : 2,
            "type" : "VEC3"
        },
        {
            "bufferView" : 13,
            "componentType" : 5126,
            "count" : 2,
            "type" : "VEC3"
        },
        {
            "bufferView" : 14,
            "componentType" : 5126,
            "count" : 20,
            "type" : "VEC4"
        },
        {
            "bufferView" : 15,
            "componentType" : 5126,
            "count" : 20,
            "type" : "VEC3"
        },
        {
            "bufferView" : 16,
            "componentType" : 5126,
            "count" : 2,
            "type" : "VEC3"
        },
        {
            "bufferView" : 17,
            "componentType" : 5126,
            "count" : 20,
            "type" : "VEC4"
        },
        {
            "bufferView" : 18,
            "componentType" : 5126,
            "count" : 20,
            "type" : "VEC3"
        },
        {
            "bufferView" : 19,
            "componentType" : 5126,
            "count" : 2,
            "type" : "VEC3"
        },
        {
            "bufferView" : 20,
            "componentType" : 5126,
            "count" : 20,
            "type" : "VEC4"
        },
        {
            "bufferView" : 21,
            "componentType" : 5126,
            "count" : 20,
            "type" : "VEC3"
        },
        {
            "bufferView" : 22,
            "componentType" : 5126,
            "count" : 2,
            "type" : "VEC3"
        },
        {
            "bufferView" : 23,
            "componentType" : 5126,
            "count" : 20,
            "type" : "VEC4"
        },
        {
            "bufferView" : 24,
            "componentType" : 5126,
            "count" : 20,
            "type" : "VEC3"
        }
    ],
    "bufferViews" : [
        {
            "buffer" : 0,
            "byteLength" : 57084,
            "byteOffset" : 0
        },
        {
            "buffer" : 0,
            "byteLength" : 57084,
            "byteOffset" : 57084
        },
        {
            "buffer" : 0,
            "byteLength" : 38056,
            "byteOffset" : 114168
        },
        {
            "buffer" : 0,
            "byteLength" : 38056,
            "byteOffset" : 152224
        },
        {
            "buffer" : 0,
            "byteLength" : 19028,
            "byteOffset" : 190280
        },
        {
            "buffer" : 0,
            "byteLength" : 76112,
            "byteOffset" : 209308
        },
        {
            "buffer" : 0,
            "byteLength" : 28800,
            "byteOffset" : 285420
        },
        {
            "buffer" : 0,
            "byteLength" : 512,
            "byteOffset" : 314220
        },
        {
            "buffer" : 0,
            "byteLength" : 8,
            "byteOffset" : 314732
        },
        {
            "buffer" : 0,
            "byteLength" : 24,
            "byteOffset" : 314740
        },
        {
            "buffer" : 0,
            "byteLength" : 80,
            "byteOffset" : 314764
        },
        {
            "buffer" : 0,
            "byteLength" : 320,
            "byteOffset" : 314844
        },
        {
            "buffer" : 0,
            "byteLength" : 24,
            "byteOffset" : 315164
        },
        {
            "buffer" : 0,
            "byteLength" : 24,
            "byteOffset" : 315188
        },
        {
            "buffer" : 0,
            "byteLength" : 320,
            "byteOffset" : 315212
        },
        {
            "buffer" : 0,
            "byteLength" : 240,
            "byteOffset" : 315532
        },
        {
            "buffer" : 0,
            "byteLength" : 24,
            "byteOffset" : 315772
        },
        {
            "buffer" : 0,
            "byteLength" : 320,
            "byteOffset" : 315796
        },
        {
            "buffer" : 0,
            "byteLength" : 240,
            "byteOffset" : 316116
        },
        {
            "buffer" : 0,
            "byteLength" : 24,
            "byteOffset" : 316356
        },
        {
            "buffer" : 0,
            "byteLength" : 320,
            "byteOffset" : 316380
        },
        {
            "buffer" : 0,
            "byteLength" : 240,
            "byteOffset" : 316700
        },
        {
            "buffer" : 0,
            "byteLength" : 24,
            "byteOffset" : 316940
        },
        {
            "buffer" : 0,
            "byteLength" : 320,
            "byteOffset" : 316964
        },
        {
            "buffer" : 0,
            "byteLength" : 240,
            "byteOffset" : 317284
        }
    ],
    "samplers" : [
        {
            "magFilter" : 9729,
            "minFilter" : 9987
        }
    ],
    "buffers" : [
        {
            "byteLength" : 317524,
            "uri" : "IKAC.bin"
        }
    ]
}
