{
    "asset" : {
        "generator" : "Khronos glTF Blender I/O v1.7.33",
        "version" : "2.0"
    },
    "scene" : 0,
    "scenes" : [
        {
            "name" : "Scene",
            "nodes" : [
                0
            ]
        }
    ],
    "nodes" : [
        {
            "mesh" : 0,
            "name" : "SURF",
            "translation" : [
                2.1242618560791016,
                -5.000447750091553,
                -0.800811767578125
            ]
        }
    ],
    "materials" : [
        {
            "doubleSided" : true,
            "emissiveFactor" : [
                0.6000000238418579,
                0.6000000238418579,
                0.6000000238418579
            ],
            "emissiveTexture" : {
                "index" : 0
            },
            "name" : "Material",
            "pbrMetallicRoughness" : {
                "baseColorTexture" : {
                    "index" : 1
                },
                "metallicFactor" : 0.1533876359462738,
                "roughnessFactor" : 0.07500000298023224
            }
        }
    ],
    "meshes" : [
        {
            "name" : "Plane",
            "primitives" : [
                {
                    "attributes" : {
                        "POSITION" : 0,
                        "NORMAL" : 1,
                        "TEXCOORD_0" : 2
                    },
                    "indices" : 3,
                    "material" : 0
                }
            ]
        }
    ],
    "textures" : [
        {
            "sampler" : 0,
            "source" : 0
        },
        {
            "sampler" : 0,
            "source" : 0
        }
    ],
    "images" : [
        {
            "mimeType" : "image/jpeg",
            "name" : "SURF",
            "uri" : "SURF.jpg"
        }
    ],
    "accessors" : [
        {
            "bufferView" : 0,
            "componentType" : 5126,
            "count" : 473,
            "max" : [
                60.02560043334961,
                9.679755210876465,
                13.641935348510742
            ],
            "min" : [
                -62.65435791015625,
                -6.378856182098389,
                -13.839540481567383
            ],
            "type" : "VEC3"
        },
        {
            "bufferView" : 1,
            "componentType" : 5126,
            "count" : 473,
            "type" : "VEC3"
        },
        {
            "bufferView" : 2,
            "componentType" : 5126,
            "count" : 473,
            "type" : "VEC2"
        },
        {
            "bufferView" : 3,
            "componentType" : 5123,
            "count" : 2244,
            "type" : "SCALAR"
        }
    ],
    "bufferViews" : [
        {
            "buffer" : 0,
            "byteLength" : 5676,
            "byteOffset" : 0
        },
        {
            "buffer" : 0,
            "byteLength" : 5676,
            "byteOffset" : 5676
        },
        {
            "buffer" : 0,
            "byteLength" : 3784,
            "byteOffset" : 11352
        },
        {
            "buffer" : 0,
            "byteLength" : 4488,
            "byteOffset" : 15136
        }
    ],
    "samplers" : [
        {
            "magFilter" : 9729,
            "minFilter" : 9987
        }
    ],
    "buffers" : [
        {
            "byteLength" : 19624,
            "uri" : "ISA.bin"
        }
    ]
}
