{
    "asset" : {
        "generator" : "Khronos glTF Blender I/O v1.7.33",
        "version" : "2.0"
    },
    "scene" : 0,
    "scenes" : [
        {
            "name" : "Scene",
            "nodes" : [
                0,
                1,
                2
            ]
        }
    ],
    "nodes" : [
        {
            "mesh" : 0,
            "name" : "Box002",
            "rotation" : [
                0,
                1,
                0,
                1.9470718370939721e-07
            ],
            "scale" : [
                0.04796886444091797,
                0.057878509163856506,
                0.057878509163856506
            ],
            "translation" : [
                0.007984429597854614,
                -0.21782487630844116,
                -0.005444066599011421
            ]
        },
        {
            "mesh" : 1,
            "name" : "GPF Source 001->Event 002",
            "rotation" : [
                0,
                1,
                0,
                1.9470718370939721e-07
            ],
            "scale" : [
                0.06451600044965744,
                0.06451600044965744,
                0.06451600044965744
            ],
            "translation" : [
                -1.1070640087127686,
                -0.30519598722457886,
                -0.028763191774487495
            ]
        },
        {
            "mesh" : 2,
            "name" : "Curve.003",
            "rotation" : [
                -1,
                0,
                0,
                5.6999328827277325e-15
            ],
            "scale" : [
                2.11826491355896,
                1,
                2.11826491355896
            ],
            "translation" : [
                -0.12240516394376755,
                -0.2004804164171219,
                -0.0023402099031955004
            ]
        }
    ],
    "materials" : [
        {
            "doubleSided" : true,
            "name" : "Soap",
            "pbrMetallicRoughness" : {
                "baseColorFactor" : [
                    0.8140485286712646,
                    0.43844613432884216,
                    0.4222587049007416,
                    1
                ],
                "metallicFactor" : 0,
                "roughnessFactor" : 0.30352112650871277
            }
        },
        {
            "doubleSided" : true,
            "name" : "bubbles1",
            "pbrMetallicRoughness" : {
                "baseColorFactor" : [
                    1,
                    0.9409390687942505,
                    0.7073364853858948,
                    1
                ],
                "metallicFactor" : 0.02500000223517418,
                "roughnessFactor" : 0
            }
        },
        {
            "doubleSided" : true,
            "name" : "bubbles2",
            "pbrMetallicRoughness" : {
                "baseColorFactor" : [
                    1,
                    0.9803922176361084,
                    0.8352941870689392,
                    1
                ],
                "metallicFactor" : 0.008333333767950535,
                "roughnessFactor" : 0
            }
        }
    ],
    "meshes" : [
        {
            "name" : "Mesh.002",
            "primitives" : [
                {
                    "attributes" : {
                        "POSITION" : 0,
                        "NORMAL" : 1,
                        "TEXCOORD_0" : 2
                    },
                    "indices" : 3,
                    "material" : 0
                }
            ]
        },
        {
            "name" : "Mesh.003",
            "primitives" : [
                {
                    "attributes" : {
                        "POSITION" : 4,
                        "NORMAL" : 5
                    },
                    "indices" : 6,
                    "material" : 1
                },
                {
                    "attributes" : {
                        "POSITION" : 7,
                        "NORMAL" : 8
                    },
                    "indices" : 9,
                    "material" : 2
                }
            ]
        },
        {
            "name" : "Curve.003",
            "primitives" : [
                {
                    "attributes" : {
                        "POSITION" : 10,
                        "NORMAL" : 11,
                        "TEXCOORD_0" : 12
                    },
                    "indices" : 13,
                    "material" : 0
                }
            ]
        }
    ],
    "accessors" : [
        {
            "bufferView" : 0,
            "componentType" : 5126,
            "count" : 830,
            "max" : [
                14.835311889648438,
                7.941867351531982,
                8.076618194580078
            ],
            "min" : [
                -14.835311889648438,
                0,
                -8.076618194580078
            ],
            "type" : "VEC3"
        },
        {
            "bufferView" : 1,
            "componentType" : 5126,
            "count" : 830,
            "type" : "VEC3"
        },
        {
            "bufferView" : 2,
            "componentType" : 5126,
            "count" : 830,
            "type" : "VEC2"
        },
        {
            "bufferView" : 3,
            "componentType" : 5123,
            "count" : 4176,
            "type" : "SCALAR"
        },
        {
            "bufferView" : 4,
            "componentType" : 5126,
            "count" : 114996,
            "max" : [
                -4.5133185386657715,
                10.293127059936523,
                7.884075164794922
            ],
            "min" : [
                -29.558868408203125,
                -0.09380996227264404,
                -9.170904159545898
            ],
            "type" : "VEC3"
        },
        {
            "bufferView" : 5,
            "componentType" : 5126,
            "count" : 114996,
            "type" : "VEC3"
        },
        {
            "bufferView" : 6,
            "componentType" : 5125,
            "count" : 657120,
            "type" : "SCALAR"
        },
        {
            "bufferView" : 7,
            "componentType" : 5126,
            "count" : 3276,
            "max" : [
                -3.7061028480529785,
                10.971660614013672,
                8.109292984008789
            ],
            "min" : [
                -30.532470703125,
                -0.9311259984970093,
                -10.163302421569824
            ],
            "type" : "VEC3"
        },
        {
            "bufferView" : 8,
            "componentType" : 5126,
            "count" : 3276,
            "type" : "VEC3"
        },
        {
            "bufferView" : 9,
            "componentType" : 5123,
            "count" : 18720,
            "type" : "SCALAR"
        },
        {
            "bufferView" : 10,
            "componentType" : 5126,
            "count" : 5858,
            "max" : [
                0.19952017068862915,
                0.019999999552965164,
                0.08586478233337402
            ],
            "min" : [
                -0.09061018377542496,
                -0.019999999552965164,
                -0.05882890522480011
            ],
            "type" : "VEC3"
        },
        {
            "bufferView" : 11,
            "componentType" : 5126,
            "count" : 5858,
            "type" : "VEC3"
        },
        {
            "bufferView" : 12,
            "componentType" : 5126,
            "count" : 5858,
            "type" : "VEC2"
        },
        {
            "bufferView" : 13,
            "componentType" : 5123,
            "count" : 10512,
            "type" : "SCALAR"
        }
    ],
    "bufferViews" : [
        {
            "buffer" : 0,
            "byteLength" : 9960,
            "byteOffset" : 0
        },
        {
            "buffer" : 0,
            "byteLength" : 9960,
            "byteOffset" : 9960
        },
        {
            "buffer" : 0,
            "byteLength" : 6640,
            "byteOffset" : 19920
        },
        {
            "buffer" : 0,
            "byteLength" : 8352,
            "byteOffset" : 26560
        },
        {
            "buffer" : 0,
            "byteLength" : 1379952,
            "byteOffset" : 34912
        },
        {
            "buffer" : 0,
            "byteLength" : 1379952,
            "byteOffset" : 1414864
        },
        {
            "buffer" : 0,
            "byteLength" : 2628480,
            "byteOffset" : 2794816
        },
        {
            "buffer" : 0,
            "byteLength" : 39312,
            "byteOffset" : 5423296
        },
        {
            "buffer" : 0,
            "byteLength" : 39312,
            "byteOffset" : 5462608
        },
        {
            "buffer" : 0,
            "byteLength" : 37440,
            "byteOffset" : 5501920
        },
        {
            "buffer" : 0,
            "byteLength" : 70296,
            "byteOffset" : 5539360
        },
        {
            "buffer" : 0,
            "byteLength" : 70296,
            "byteOffset" : 5609656
        },
        {
            "buffer" : 0,
            "byteLength" : 46864,
            "byteOffset" : 5679952
        },
        {
            "buffer" : 0,
            "byteLength" : 21024,
            "byteOffset" : 5726816
        }
    ],
    "buffers" : [
        {
            "byteLength" : 5747840,
            "uri" : "Mbau.bin"
        }
    ]
}
