{
    "asset" : {
        "generator" : "Khronos glTF Blender I/O v1.7.33",
        "version" : "2.0"
    },
    "extensionsUsed" : [
        "KHR_texture_transform"
    ],
    "extensionsRequired" : [
        "KHR_texture_transform"
    ],
    "scene" : 0,
    "scenes" : [
        {
            "name" : "Scene",
            "nodes" : [
                0
            ]
        }
    ],
    "nodes" : [
        {
            "mesh" : 0,
            "name" : "Chris"
        }
    ],
    "materials" : [
        {
            "doubleSided" : true,
            "emissiveFactor" : [
                0.30000004172325134,
                0.30000004172325134,
                0.30000004172325134
            ],
            "emissiveTexture" : {
                "extensions" : {
                    "KHR_texture_transform" : {
                        "offset" : [
                            0,
                            0.3999999761581421
                        ],
                        "scale" : [
                            0.6000001430511475,
                            0.6000000238418579
                        ]
                    }
                },
                "index" : 0
            },
            "name" : "Marble grey",
            "pbrMetallicRoughness" : {
                "baseColorTexture" : {
                    "extensions" : {
                        "KHR_texture_transform" : {
                            "offset" : [
                                0,
                                0.3999999761581421
                            ],
                            "scale" : [
                                0.6000001430511475,
                                0.6000000238418579
                            ]
                        }
                    },
                    "index" : 1
                },
                "metallicFactor" : 0,
                "roughnessFactor" : 0.3136363625526428
            }
        }
    ],
    "meshes" : [
        {
            "name" : "Chris.001",
            "primitives" : [
                {
                    "attributes" : {
                        "POSITION" : 0,
                        "NORMAL" : 1,
                        "TEXCOORD_0" : 2
                    },
                    "indices" : 3,
                    "material" : 0
                }
            ]
        }
    ],
    "textures" : [
        {
            "sampler" : 0,
            "source" : 0
        },
        {
            "sampler" : 0,
            "source" : 0
        }
    ],
    "images" : [
        {
            "mimeType" : "image/jpeg",
            "name" : "marble base.jpg.002"
        }
    ],
    "accessors" : [
        {
            "bufferView" : 0,
            "componentType" : 5126,
            "count" : 30260,
            "max" : [
                1.725582242012024,
                3.907853126525879,
                1.526771903038025
            ],
            "min" : [
                -1.4571583271026611,
                -2.4907386302948,
                -2.4417905807495117
            ],
            "type" : "VEC3"
        },
        {
            "bufferView" : 1,
            "componentType" : 5126,
            "count" : 30260,
            "type" : "VEC3"
        },
        {
            "bufferView" : 2,
            "componentType" : 5126,
            "count" : 30260,
            "type" : "VEC2"
        },
        {
            "bufferView" : 3,
            "componentType" : 5123,
            "count" : 108357,
            "type" : "SCALAR"
        }
    ],
    "bufferViews" : [
        {
            "buffer" : 0,
            "byteLength" : 363120,
            "byteOffset" : 0
        },
        {
            "buffer" : 0,
            "byteLength" : 363120,
            "byteOffset" : 363120
        },
        {
            "buffer" : 0,
            "byteLength" : 242080,
            "byteOffset" : 726240
        },
        {
            "buffer" : 0,
            "byteLength" : 216714,
            "byteOffset" : 968320
        }
    ],
    "samplers" : [
        {
            "magFilter" : 9729,
            "minFilter" : 9987
        }
    ],
    "buffers" : [
        {
            "byteLength" : 1185036,
            "uri" : "PI1.bin"
        }
    ]
}
