{
    "asset" : {
        "generator" : "Khronos glTF Blender I/O v1.7.33",
        "version" : "2.0"
    },
    "scene" : 0,
    "scenes" : [
        {
            "name" : "Scene",
            "nodes" : [
                0
            ]
        }
    ],
    "nodes" : [
        {
            "mesh" : 0,
            "name" : "Chris"
        }
    ],
    "materials" : [
        {
            "doubleSided" : true,
            "name" : "Marble 7",
            "normalTexture" : {
                "index" : 0
            },
            "pbrMetallicRoughness" : {
                "baseColorTexture" : {
                    "index" : 1
                },
                "metallicFactor" : 0,
                "metallicRoughnessTexture" : {
                    "index" : 2
                }
            }
        }
    ],
    "meshes" : [
        {
            "name" : "Chris.001",
            "primitives" : [
                {
                    "attributes" : {
                        "POSITION" : 0,
                        "NORMAL" : 1,
                        "TEXCOORD_0" : 2
                    },
                    "indices" : 3,
                    "material" : 0
                }
            ]
        }
    ],
    "textures" : [
        {
            "sampler" : 0,
            "source" : 0
        },
        {
            "sampler" : 0,
            "source" : 1
        },
        {
            "sampler" : 0,
            "source" : 2
        }
    ],
    "images" : [
        {
            "mimeType" : "image/png",
            "name" : "13",
            "uri" : "13.png"
        },
        {
            "mimeType" : "image/png",
            "name" : "marble 7",
            "uri" : "marble%207.png"
        },
        {
            "mimeType" : "image/png",
            "name" : "13",
            "uri" : "13-1.png"
        }
    ],
    "accessors" : [
        {
            "bufferView" : 0,
            "componentType" : 5126,
            "count" : 30799,
            "max" : [
                1.725582242012024,
                3.907853126525879,
                1.526771903038025
            ],
            "min" : [
                -1.4571583271026611,
                -2.4907386302948,
                -2.4417905807495117
            ],
            "type" : "VEC3"
        },
        {
            "bufferView" : 1,
            "componentType" : 5126,
            "count" : 30799,
            "type" : "VEC3"
        },
        {
            "bufferView" : 2,
            "componentType" : 5126,
            "count" : 30799,
            "type" : "VEC2"
        },
        {
            "bufferView" : 3,
            "componentType" : 5123,
            "count" : 108357,
            "type" : "SCALAR"
        }
    ],
    "bufferViews" : [
        {
            "buffer" : 0,
            "byteLength" : 369588,
            "byteOffset" : 0
        },
        {
            "buffer" : 0,
            "byteLength" : 369588,
            "byteOffset" : 369588
        },
        {
            "buffer" : 0,
            "byteLength" : 246392,
            "byteOffset" : 739176
        },
        {
            "buffer" : 0,
            "byteLength" : 216714,
            "byteOffset" : 985568
        }
    ],
    "samplers" : [
        {
            "magFilter" : 9729,
            "minFilter" : 9987
        }
    ],
    "buffers" : [
        {
            "byteLength" : 1202284,
            "uri" : "PI1.bin"
        }
    ]
}
