{
    "asset" : {
        "generator" : "Khronos glTF Blender I/O v1.7.33",
        "version" : "2.0"
    },
    "extensionsUsed" : [
        "KHR_texture_transform"
    ],
    "extensionsRequired" : [
        "KHR_texture_transform"
    ],
    "scene" : 0,
    "scenes" : [
        {
            "name" : "Scene",
            "nodes" : [
                0
            ]
        }
    ],
    "nodes" : [
        {
            "mesh" : 0,
            "name" : "Chris"
        }
    ],
    "materials" : [
        {
            "doubleSided" : true,
            "emissiveFactor" : [
                0.4000000059604645,
                0.4000000059604645,
                0.4000000059604645
            ],
            "emissiveTexture" : {
                "extensions" : {
                    "KHR_texture_transform" : {
                        "offset" : [
                            0,
                            0.5
                        ],
                        "scale" : [
                            0.5,
                            0.5
                        ]
                    }
                },
                "index" : 0
            },
            "name" : "Marble grey.001",
            "pbrMetallicRoughness" : {
                "baseColorTexture" : {
                    "extensions" : {
                        "KHR_texture_transform" : {
                            "offset" : [
                                0,
                                0.5
                            ],
                            "scale" : [
                                0.5,
                                0.5
                            ]
                        }
                    },
                    "index" : 1
                },
                "metallicFactor" : 0,
                "roughnessFactor" : 0.418181836605072
            }
        }
    ],
    "meshes" : [
        {
            "name" : "Chris.001",
            "primitives" : [
                {
                    "attributes" : {
                        "POSITION" : 0,
                        "NORMAL" : 1,
                        "TEXCOORD_0" : 2
                    },
                    "indices" : 3,
                    "material" : 0
                }
            ]
        }
    ],
    "textures" : [
        {
            "sampler" : 0,
            "source" : 0
        },
        {
            "sampler" : 0,
            "source" : 0
        }
    ],
    "images" : [
        {
            "mimeType" : "image/jpeg",
            "name" : "marble11 diffuse 4k",
            "uri" : "marble11%20diffuse%204k.jpg"
        }
    ],
    "accessors" : [
        {
            "bufferView" : 0,
            "componentType" : 5126,
            "count" : 17036,
            "max" : [
                1.7263758182525635,
                3.9110422134399414,
                1.526780605316162
            ],
            "min" : [
                -1.458439826965332,
                -2.4913463592529297,
                -2.443007230758667
            ],
            "type" : "VEC3"
        },
        {
            "bufferView" : 1,
            "componentType" : 5126,
            "count" : 17036,
            "type" : "VEC3"
        },
        {
            "bufferView" : 2,
            "componentType" : 5126,
            "count" : 17036,
            "type" : "VEC2"
        },
        {
            "bufferView" : 3,
            "componentType" : 5123,
            "count" : 43341,
            "type" : "SCALAR"
        }
    ],
    "bufferViews" : [
        {
            "buffer" : 0,
            "byteLength" : 204432,
            "byteOffset" : 0
        },
        {
            "buffer" : 0,
            "byteLength" : 204432,
            "byteOffset" : 204432
        },
        {
            "buffer" : 0,
            "byteLength" : 136288,
            "byteOffset" : 408864
        },
        {
            "buffer" : 0,
            "byteLength" : 86682,
            "byteOffset" : 545152
        }
    ],
    "samplers" : [
        {
            "magFilter" : 9729,
            "minFilter" : 9987
        }
    ],
    "buffers" : [
        {
            "byteLength" : 631836,
            "uri" : "PI1.bin"
        }
    ]
}
