{
    "asset" : {
        "generator" : "Khronos glTF Blender I/O v1.7.33",
        "version" : "2.0"
    },
    "scene" : 0,
    "scenes" : [
        {
            "name" : "Scene",
            "nodes" : [
                0,
                1,
                2
            ]
        }
    ],
    "nodes" : [
        {
            "mesh" : 0,
            "name" : "Chris01"
        },
        {
            "mesh" : 1,
            "name" : "Chris00"
        },
        {
            "mesh" : 2,
            "name" : "Chris02"
        }
    ],
    "materials" : [
        {
            "doubleSided" : true,
            "name" : "Marble",
            "pbrMetallicRoughness" : {
                "baseColorTexture" : {
                    "index" : 0
                },
                "metallicFactor" : 0,
                "roughnessFactor" : 0.5
            }
        }
    ],
    "meshes" : [
        {
            "name" : "Chris01",
            "primitives" : [
                {
                    "attributes" : {
                        "POSITION" : 0,
                        "NORMAL" : 1,
                        "TEXCOORD_0" : 2,
                        "TEXCOORD_1" : 3,
                        "TEXCOORD_2" : 4,
                        "TEXCOORD_3" : 5
                    },
                    "indices" : 6,
                    "material" : 0
                }
            ]
        },
        {
            "name" : "Chris00",
            "primitives" : [
                {
                    "attributes" : {
                        "POSITION" : 7,
                        "NORMAL" : 8,
                        "TEXCOORD_0" : 9,
                        "TEXCOORD_1" : 10,
                        "TEXCOORD_2" : 11,
                        "TEXCOORD_3" : 12
                    },
                    "indices" : 13,
                    "material" : 0
                }
            ]
        },
        {
            "name" : "Chris02",
            "primitives" : [
                {
                    "attributes" : {
                        "POSITION" : 14,
                        "NORMAL" : 15,
                        "TEXCOORD_0" : 16,
                        "TEXCOORD_1" : 17,
                        "TEXCOORD_2" : 18,
                        "TEXCOORD_3" : 19
                    },
                    "indices" : 20,
                    "material" : 0
                }
            ]
        }
    ],
    "textures" : [
        {
            "sampler" : 0,
            "source" : 0
        }
    ],
    "images" : [
        {
            "mimeType" : "image/jpeg",
            "name" : "GWC Marble 01_BaseColor",
            "uri" : "GWC%20Marble%2001_BaseColor.jpg"
        }
    ],
    "accessors" : [
        {
            "bufferView" : 0,
            "componentType" : 5126,
            "count" : 6074,
            "max" : [
                1.58366060256958,
                3.907853126525879,
                1.1418870687484741
            ],
            "min" : [
                -0.020394334569573402,
                1.404499888420105,
                -1.6105643510818481
            ],
            "type" : "VEC3"
        },
        {
            "bufferView" : 1,
            "componentType" : 5126,
            "count" : 6074,
            "type" : "VEC3"
        },
        {
            "bufferView" : 2,
            "componentType" : 5126,
            "count" : 6074,
            "type" : "VEC2"
        },
        {
            "bufferView" : 3,
            "componentType" : 5126,
            "count" : 6074,
            "type" : "VEC2"
        },
        {
            "bufferView" : 4,
            "componentType" : 5126,
            "count" : 6074,
            "type" : "VEC2"
        },
        {
            "bufferView" : 5,
            "componentType" : 5126,
            "count" : 6074,
            "type" : "VEC2"
        },
        {
            "bufferView" : 6,
            "componentType" : 5123,
            "count" : 15102,
            "type" : "SCALAR"
        },
        {
            "bufferView" : 7,
            "componentType" : 5126,
            "count" : 42113,
            "max" : [
                1.725582242012024,
                2.9374396800994873,
                1.526771903038025
            ],
            "min" : [
                -1.4571583271026611,
                -2.4907386302948,
                -2.4417905807495117
            ],
            "type" : "VEC3"
        },
        {
            "bufferView" : 8,
            "componentType" : 5126,
            "count" : 42113,
            "type" : "VEC3"
        },
        {
            "bufferView" : 9,
            "componentType" : 5126,
            "count" : 42113,
            "type" : "VEC2"
        },
        {
            "bufferView" : 10,
            "componentType" : 5126,
            "count" : 42113,
            "type" : "VEC2"
        },
        {
            "bufferView" : 11,
            "componentType" : 5126,
            "count" : 42113,
            "type" : "VEC2"
        },
        {
            "bufferView" : 12,
            "componentType" : 5126,
            "count" : 42113,
            "type" : "VEC2"
        },
        {
            "bufferView" : 13,
            "componentType" : 5123,
            "count" : 74202,
            "type" : "SCALAR"
        },
        {
            "bufferView" : 14,
            "componentType" : 5126,
            "count" : 7241,
            "max" : [
                0.8518555164337158,
                3.8921244144439697,
                1.114692211151123
            ],
            "min" : [
                -1.0955746173858643,
                1.3131362199783325,
                -1.7207021713256836
            ],
            "type" : "VEC3"
        },
        {
            "bufferView" : 15,
            "componentType" : 5126,
            "count" : 7241,
            "type" : "VEC3"
        },
        {
            "bufferView" : 16,
            "componentType" : 5126,
            "count" : 7241,
            "type" : "VEC2"
        },
        {
            "bufferView" : 17,
            "componentType" : 5126,
            "count" : 7241,
            "type" : "VEC2"
        },
        {
            "bufferView" : 18,
            "componentType" : 5126,
            "count" : 7241,
            "type" : "VEC2"
        },
        {
            "bufferView" : 19,
            "componentType" : 5126,
            "count" : 7241,
            "type" : "VEC2"
        },
        {
            "bufferView" : 20,
            "componentType" : 5123,
            "count" : 19053,
            "type" : "SCALAR"
        }
    ],
    "bufferViews" : [
        {
            "buffer" : 0,
            "byteLength" : 72888,
            "byteOffset" : 0
        },
        {
            "buffer" : 0,
            "byteLength" : 72888,
            "byteOffset" : 72888
        },
        {
            "buffer" : 0,
            "byteLength" : 48592,
            "byteOffset" : 145776
        },
        {
            "buffer" : 0,
            "byteLength" : 48592,
            "byteOffset" : 194368
        },
        {
            "buffer" : 0,
            "byteLength" : 48592,
            "byteOffset" : 242960
        },
        {
            "buffer" : 0,
            "byteLength" : 48592,
            "byteOffset" : 291552
        },
        {
            "buffer" : 0,
            "byteLength" : 30204,
            "byteOffset" : 340144
        },
        {
            "buffer" : 0,
            "byteLength" : 505356,
            "byteOffset" : 370348
        },
        {
            "buffer" : 0,
            "byteLength" : 505356,
            "byteOffset" : 875704
        },
        {
            "buffer" : 0,
            "byteLength" : 336904,
            "byteOffset" : 1381060
        },
        {
            "buffer" : 0,
            "byteLength" : 336904,
            "byteOffset" : 1717964
        },
        {
            "buffer" : 0,
            "byteLength" : 336904,
            "byteOffset" : 2054868
        },
        {
            "buffer" : 0,
            "byteLength" : 336904,
            "byteOffset" : 2391772
        },
        {
            "buffer" : 0,
            "byteLength" : 148404,
            "byteOffset" : 2728676
        },
        {
            "buffer" : 0,
            "byteLength" : 86892,
            "byteOffset" : 2877080
        },
        {
            "buffer" : 0,
            "byteLength" : 86892,
            "byteOffset" : 2963972
        },
        {
            "buffer" : 0,
            "byteLength" : 57928,
            "byteOffset" : 3050864
        },
        {
            "buffer" : 0,
            "byteLength" : 57928,
            "byteOffset" : 3108792
        },
        {
            "buffer" : 0,
            "byteLength" : 57928,
            "byteOffset" : 3166720
        },
        {
            "buffer" : 0,
            "byteLength" : 57928,
            "byteOffset" : 3224648
        },
        {
            "buffer" : 0,
            "byteLength" : 38106,
            "byteOffset" : 3282576
        }
    ],
    "samplers" : [
        {
            "magFilter" : 9729,
            "minFilter" : 9987
        }
    ],
    "buffers" : [
        {
            "byteLength" : 3320684,
            "uri" : "PIChrisS.bin"
        }
    ]
}
