{
    "asset" : {
        "generator" : "Khronos glTF Blender I/O v1.7.33",
        "version" : "2.0"
    },
    "scene" : 0,
    "scenes" : [
        {
            "name" : "Scene",
            "nodes" : [
                31
            ]
        }
    ],
    "nodes" : [
        {
            "name" : "R_Pinky_3",
            "rotation" : [
                0.025819901376962662,
                -0.030147403478622437,
                0.12991128861904144,
                0.9907308220863342
            ],
            "scale" : [
                0.9999999403953552,
                0.9999998807907104,
                0.9999999403953552
            ],
            "translation" : [
                -2.9802322387695312e-08,
                0.01920076459646225,
                2.421438694000244e-08
            ]
        },
        {
            "children" : [
                0
            ],
            "name" : "R_Pinky_2",
            "rotation" : [
                0.01665542647242546,
                -0.011581641621887684,
                0.041957952082157135,
                0.9989134073257446
            ],
            "scale" : [
                1,
                1,
                0.9999998807907104
            ],
            "translation" : [
                -2.8814536534582658e-08,
                0.020450202748179436,
                -1.899206303335177e-08
            ]
        },
        {
            "children" : [
                1
            ],
            "name" : "R_Pinky_1",
            "rotation" : [
                -0.023989342153072357,
                -0.017057087272405624,
                0.10339810699224472,
                0.9942044019699097
            ],
            "scale" : [
                1.0000001192092896,
                1.0000001192092896,
                0.9999999403953552
            ],
            "translation" : [
                -1.0799276140005531e-08,
                0.08862864226102829,
                1.646206371219705e-08
            ]
        },
        {
            "children" : [
                2
            ],
            "name" : "R_Pinky_0",
            "rotation" : [
                -0.21637144684791565,
                -0.4247192144393921,
                -0.20220473408699036,
                0.8555175065994263
            ],
            "scale" : [
                0.9999998807907104,
                0.9999999403953552,
                1.0000001192092896
            ],
            "translation" : [
                3.4171019791529034e-08,
                0.2251986712217331,
                -8.612488500148174e-09
            ]
        },
        {
            "name" : "R_Ring_3",
            "rotation" : [
                0.022313188761472702,
                -0.008500189520418644,
                0.05048045888543129,
                0.998439610004425
            ],
            "scale" : [
                1.0000001192092896,
                1,
                1
            ],
            "translation" : [
                3.597081033035465e-08,
                0.02607984095811844,
                4.701048084143622e-08
            ]
        },
        {
            "children" : [
                4
            ],
            "name" : "R_Ring_2",
            "rotation" : [
                0.01616387441754341,
                -0.010009881108999252,
                0.09973039478063583,
                0.9948328733444214
            ],
            "scale" : [
                0.9999999403953552,
                1.0000001192092896,
                1.0000001192092896
            ],
            "translation" : [
                3.559537020692005e-08,
                0.03487652912735939,
                -1.2973792706816312e-08
            ]
        },
        {
            "children" : [
                5
            ],
            "name" : "R_Ring_1",
            "rotation" : [
                -0.018347742035984993,
                -0.004305980633944273,
                0.08802155405282974,
                0.9959403276443481
            ],
            "scale" : [
                1,
                1.000000238418579,
                1.0000001192092896
            ],
            "translation" : [
                1.3056720149506873e-08,
                0.08590728044509888,
                1.5657904972599113e-09
            ]
        },
        {
            "children" : [
                6
            ],
            "name" : "R_Ring_0",
            "rotation" : [
                -0.10661599785089493,
                -0.453620046377182,
                -0.16430766880512238,
                0.8694049119949341
            ],
            "scale" : [
                0.9999998211860657,
                1,
                0.9999998807907104
            ],
            "translation" : [
                2.309046109871815e-08,
                0.2251986861228943,
                -9.029158754003674e-09
            ]
        },
        {
            "name" : "R_Middle_3",
            "rotation" : [
                0.00038900665822438896,
                -5.4738917242502794e-05,
                0.04377923160791397,
                0.9990411400794983
            ],
            "scale" : [
                0.9999998211860657,
                0.9999999403953552,
                1
            ],
            "translation" : [
                -8.510208537870767e-09,
                0.029037516564130783,
                9.61129131837879e-09
            ]
        },
        {
            "children" : [
                8
            ],
            "name" : "R_Middle_2",
            "rotation" : [
                -0.0015823988942429423,
                0.0002799345238599926,
                0.04886873811483383,
                0.9988039135932922
            ],
            "translation" : [
                -5.1354255958813155e-08,
                0.033887021243572235,
                -9.0467340285727e-09
            ]
        },
        {
            "children" : [
                9
            ],
            "name" : "R_Middle_1",
            "rotation" : [
                -0.038324080407619476,
                0.004689655266702175,
                0.06497041136026382,
                0.9971399903297424
            ],
            "scale" : [
                0.9999998807907104,
                1,
                0.9999998807907104
            ],
            "translation" : [
                -4.87679798766294e-08,
                0.09097207337617874,
                7.664149315189661e-09
            ]
        },
        {
            "children" : [
                10
            ],
            "name" : "R_Middle_0",
            "rotation" : [
                -0.022513775154948235,
                -0.4717196524143219,
                -0.11431851238012314,
                0.8740166425704956
            ],
            "scale" : [
                0.9999998211860657,
                1,
                1
            ],
            "translation" : [
                2.6014511433913867e-08,
                0.2251986712217331,
                -3.1435856584494104e-08
            ]
        },
        {
            "name" : "R_Index_3",
            "rotation" : [
                -0.004029467701911926,
                0.006220926996320486,
                0.06533743441104889,
                0.9978357553482056
            ],
            "scale" : [
                0.9999999403953552,
                1,
                0.9999999403953552
            ],
            "translation" : [
                -1.3550890187730147e-08,
                0.02289281040430069,
                2.9294184855643834e-09
            ]
        },
        {
            "children" : [
                12
            ],
            "name" : "R_Index_2",
            "rotation" : [
                -0.008389540947973728,
                0.006484548095613718,
                0.05992212891578674,
                0.9981468319892883
            ],
            "scale" : [
                0.9999999403953552,
                0.9999998807907104,
                0.9999998211860657
            ],
            "translation" : [
                1.145204020502888e-08,
                0.03226760774850845,
                1.657653925235536e-08
            ]
        },
        {
            "children" : [
                13
            ],
            "name" : "R_Index_1",
            "rotation" : [
                -0.0582147091627121,
                0.012597179971635342,
                0.06965652853250504,
                0.9957913160324097
            ],
            "scale" : [
                1,
                0.9999998807907104,
                0.9999999403953552
            ],
            "translation" : [
                5.363454746998286e-08,
                0.09473812580108643,
                -2.357339656811064e-09
            ]
        },
        {
            "children" : [
                14
            ],
            "name" : "R_Index_0",
            "rotation" : [
                0.08331810683012009,
                -0.48774975538253784,
                -0.07869534939527512,
                0.8654278516769409
            ],
            "scale" : [
                0.9999998211860657,
                1,
                1
            ],
            "translation" : [
                3.1011602175112785e-08,
                0.2251986712217331,
                -2.2298243251839267e-08
            ]
        },
        {
            "name" : "R_Thumb_2",
            "rotation" : [
                -0.13069792091846466,
                0.037744566798210144,
                0.011133791878819466,
                0.9906409382820129
            ],
            "scale" : [
                1.0000001192092896,
                1,
                1
            ],
            "translation" : [
                -2.9130184486803046e-08,
                0.02652014046907425,
                -2.659493425483106e-08
            ]
        },
        {
            "children" : [
                16
            ],
            "name" : "R_Thumb_1",
            "rotation" : [
                -0.24201224744319916,
                0.0749153196811676,
                0.04587404057383537,
                0.9662884473800659
            ],
            "scale" : [
                1.0000001192092896,
                1,
                1.0000001192092896
            ],
            "translation" : [
                2.2265027155299322e-08,
                0.07370299845933914,
                -3.639894430307322e-08
            ]
        },
        {
            "children" : [
                17
            ],
            "name" : "R_Thumb_0",
            "rotation" : [
                0.25450193881988525,
                -0.48333948850631714,
                0.20813195407390594,
                0.8113524913787842
            ],
            "scale" : [
                1.0000001192092896,
                1,
                1.0000001192092896
            ],
            "translation" : [
                1.712433039813277e-08,
                0.2251986563205719,
                4.497205718934083e-09
            ]
        },
        {
            "name" : "R_Arm_Rotator_0",
            "rotation" : [
                0.001722374465316534,
                -0.2532939612865448,
                -0.0009028430795297027,
                0.9673874378204346
            ],
            "scale" : [
                1,
                0.9999998211860657,
                1
            ],
            "translation" : [
                4.527822383693092e-08,
                3.5716944069008605e-08,
                4.956725163651754e-08
            ]
        },
        {
            "name" : "R_Arm_Rotator_1",
            "rotation" : [
                0.0015927733620628715,
                -0.3747645616531372,
                -0.0011153374798595905,
                0.9271180033683777
            ],
            "scale" : [
                0.9999998211860657,
                0.9999996423721313,
                0.9999997019767761
            ],
            "translation" : [
                6.892078090459108e-05,
                0.07887187600135803,
                0.000298937811749056
            ]
        },
        {
            "name" : "R_Arm_Rotator_2",
            "rotation" : [
                -0.003607041435316205,
                -0.49019724130630493,
                0.0032869847491383553,
                0.8715980052947998
            ],
            "scale" : [
                1.0000001192092896,
                1.000000238418579,
                1.000000238418579
            ],
            "translation" : [
                0.00014162181469146162,
                0.16196711361408234,
                0.0006138437311165035
            ]
        },
        {
            "children" : [
                3,
                7,
                11,
                15,
                18,
                19,
                20,
                21
            ],
            "name" : "R_Arm",
            "rotation" : [
                0.5664268136024475,
                0.00833486020565033,
                0.22368736565113068,
                0.7931300401687622
            ],
            "scale" : [
                0.9999997615814209,
                0.9999997019767761,
                1
            ],
            "translation" : [
                1.94713800638624e-09,
                0.2618328928947449,
                -6.949053332760968e-09
            ]
        },
        {
            "children" : [
                22
            ],
            "name" : "R_Shoulder",
            "rotation" : [
                -0.8563663959503174,
                0.10486850887537003,
                -0.05457476153969765,
                0.5026538968086243
            ],
            "scale" : [
                1.0000001192092896,
                0.9999999403953552,
                0.9999998211860657
            ],
            "translation" : [
                0.3219628930091858,
                -0.01247534342110157,
                0.004835690837353468
            ]
        },
        {
            "name" : "R_Hand_IK",
            "rotation" : [
                -0.3931247889995575,
                -0.2704332172870636,
                0.022460024803876877,
                0.8785296678543091
            ],
            "translation" : [
                0.2468511015176773,
                0.027103036642074585,
                -0.37267953157424927
            ]
        },
        {
            "name" : "R_Hand_POLE",
            "rotation" : [
                -0.4939572811126709,
                -0.503852367401123,
                0.4831734597682953,
                0.5183460116386414
            ],
            "scale" : [
                1,
                1.0000001192092896,
                1.000000238418579
            ],
            "translation" : [
                0.27138328552246094,
                -0.07910732924938202,
                -0.19544465839862823
            ]
        },
        {
            "name" : "L_Arm_Rotator_0",
            "rotation" : [
                0.0018948984798043966,
                -3.41693485097494e-05,
                0.00043708193697966635,
                0.9999982118606567
            ],
            "scale" : [
                1.000000238418579,
                1.0000003576278687,
                1.000000238418579
            ],
            "translation" : [
                -4.17931005358696e-08,
                -4.656612873077393e-10,
                1.3242242857813835e-09
            ]
        },
        {
            "name" : "L_Arm_Rotator_1",
            "rotation" : [
                0.0018947584321722388,
                -3.41460072377231e-05,
                0.0004370816459413618,
                0.9999982118606567
            ],
            "scale" : [
                1,
                0.9999998807907104,
                0.9999999403953552
            ],
            "translation" : [
                -6.897500861668959e-05,
                0.07887185364961624,
                0.00029890151927247643
            ]
        },
        {
            "name" : "L_Arm_Rotator_2",
            "rotation" : [
                -0.004755418747663498,
                -0.00023119155957829207,
                -0.001095686573535204,
                0.9999880790710449
            ],
            "scale" : [
                1.0000001192092896,
                1.0000001192092896,
                0.9999999403953552
            ],
            "translation" : [
                -0.00014164439926389605,
                0.16196708381175995,
                0.0006138051976449788
            ]
        },
        {
            "children" : [
                26,
                27,
                28
            ],
            "name" : "L_Arm",
            "rotation" : [
                -0.697895884513855,
                0.014827261678874493,
                0.014827238395810127,
                0.7158921957015991
            ],
            "translation" : [
                -0.2822515666484833,
                -0.18518275022506714,
                -0.18141372501850128
            ]
        },
        {
            "mesh" : 0,
            "name" : "Hands01_BlackSleeveRolledUp",
            "skin" : 0
        },
        {
            "children" : [
                30,
                23,
                24,
                25,
                29
            ],
            "name" : "Armature",
            "translation" : [
                -0.09063226729631424,
                0,
                0
            ]
        }
    ],
    "materials" : [
        {
            "doubleSided" : true,
            "emissiveFactor" : [
                0.20000000298023224,
                0.20000000298023224,
                0.20000000298023224
            ],
            "emissiveTexture" : {
                "index" : 0
            },
            "name" : "Hand01",
            "normalTexture" : {
                "index" : 1
            },
            "pbrMetallicRoughness" : {
                "baseColorTexture" : {
                    "index" : 2
                },
                "metallicFactor" : 0,
                "roughnessFactor" : 0.7090908885002136
            }
        }
    ],
    "meshes" : [
        {
            "name" : "Hands01_BlackSleeveRolledUp",
            "primitives" : [
                {
                    "attributes" : {
                        "POSITION" : 0,
                        "NORMAL" : 1,
                        "TEXCOORD_0" : 2,
                        "COLOR_0" : 3,
                        "JOINTS_0" : 4,
                        "WEIGHTS_0" : 5
                    },
                    "indices" : 6,
                    "material" : 0
                }
            ]
        }
    ],
    "textures" : [
        {
            "sampler" : 0,
            "source" : 0
        },
        {
            "sampler" : 0,
            "source" : 1
        },
        {
            "sampler" : 0,
            "source" : 0
        }
    ],
    "images" : [
        {
            "mimeType" : "image/jpeg",
            "name" : "Hands01White_BaseColor",
            "uri" : "Hands01White_BaseColor.jpg"
        },
        {
            "mimeType" : "image/jpeg",
            "name" : "Hands01_Normal",
            "uri" : "Hands01_Normal.jpg"
        }
    ],
    "skins" : [
        {
            "inverseBindMatrices" : 7,
            "joints" : [
                23,
                22,
                3,
                2,
                1,
                0,
                7,
                6,
                5,
                4,
                11,
                10,
                9,
                8,
                15,
                14,
                13,
                12,
                18,
                17,
                16,
                19,
                20,
                21,
                24,
                25,
                29,
                26,
                27,
                28
            ],
            "name" : "Armature"
        }
    ],
    "accessors" : [
        {
            "bufferView" : 0,
            "componentType" : 5126,
            "count" : 2234,
            "max" : [
                0.23692047595977783,
                0.06047447770833969,
                0.043958332389593124
            ],
            "min" : [
                0.059847570955753326,
                -0.234821155667305,
                -0.5836789011955261
            ],
            "type" : "VEC3"
        },
        {
            "bufferView" : 1,
            "componentType" : 5126,
            "count" : 2234,
            "type" : "VEC3"
        },
        {
            "bufferView" : 2,
            "componentType" : 5126,
            "count" : 2234,
            "type" : "VEC2"
        },
        {
            "bufferView" : 3,
            "componentType" : 5123,
            "count" : 2234,
            "normalized" : true,
            "type" : "VEC4"
        },
        {
            "bufferView" : 4,
            "componentType" : 5121,
            "count" : 2234,
            "type" : "VEC4"
        },
        {
            "bufferView" : 5,
            "componentType" : 5126,
            "count" : 2234,
            "type" : "VEC4"
        },
        {
            "bufferView" : 6,
            "componentType" : 5123,
            "count" : 10092,
            "type" : "SCALAR"
        },
        {
            "bufferView" : 7,
            "componentType" : 5126,
            "count" : 30,
            "type" : "MAT4"
        }
    ],
    "bufferViews" : [
        {
            "buffer" : 0,
            "byteLength" : 26808,
            "byteOffset" : 0
        },
        {
            "buffer" : 0,
            "byteLength" : 26808,
            "byteOffset" : 26808
        },
        {
            "buffer" : 0,
            "byteLength" : 17872,
            "byteOffset" : 53616
        },
        {
            "buffer" : 0,
            "byteLength" : 17872,
            "byteOffset" : 71488
        },
        {
            "buffer" : 0,
            "byteLength" : 8936,
            "byteOffset" : 89360
        },
        {
            "buffer" : 0,
            "byteLength" : 35744,
            "byteOffset" : 98296
        },
        {
            "buffer" : 0,
            "byteLength" : 20184,
            "byteOffset" : 134040
        },
        {
            "buffer" : 0,
            "byteLength" : 1920,
            "byteOffset" : 154224
        }
    ],
    "samplers" : [
        {
            "magFilter" : 9729,
            "minFilter" : 9987
        }
    ],
    "buffers" : [
        {
            "byteLength" : 156144,
            "uri" : "Righthand.bin"
        }
    ]
}
