{
    "asset" : {
        "generator" : "Khronos glTF Blender I/O v1.7.33",
        "version" : "2.0"
    },
    "scene" : 0,
    "scenes" : [
        {
            "name" : "Scene",
            "nodes" : [
                31
            ]
        }
    ],
    "nodes" : [
        {
            "name" : "R_Pinky_3",
            "rotation" : [
                0.02581990323960781,
                -0.03014741837978363,
                0.12991130352020264,
                0.990730881690979
            ],
            "scale" : [
                1.0000001192092896,
                0.9999998211860657,
                0.9999998807907104
            ],
            "translation" : [
                -7.590737283180715e-08,
                0.019200706854462624,
                2.2030617330415225e-08
            ]
        },
        {
            "children" : [
                0
            ],
            "name" : "R_Pinky_2",
            "rotation" : [
                0.016655422747135162,
                -0.011581647209823132,
                0.04195793345570564,
                0.9989134073257446
            ],
            "scale" : [
                1,
                1.0000001192092896,
                0.9999998807907104
            ],
            "translation" : [
                -4.1149565532805354e-08,
                0.020450172945857048,
                -2.0320371163506934e-08
            ]
        },
        {
            "children" : [
                1
            ],
            "name" : "R_Pinky_1",
            "rotation" : [
                -0.02398933283984661,
                -0.01705709472298622,
                0.10339809954166412,
                0.9942044019699097
            ],
            "scale" : [
                0.9999999403953552,
                1.000000238418579,
                0.9999999403953552
            ],
            "translation" : [
                2.6819430232194463e-08,
                0.08862867951393127,
                1.6229765975595e-08
            ]
        },
        {
            "children" : [
                2
            ],
            "name" : "R_Pinky_0",
            "rotation" : [
                -0.13124866783618927,
                0.2927218973636627,
                0.12884587049484253,
                0.9383423924446106
            ],
            "scale" : [
                1,
                0.9999998807907104,
                1.000000238418579
            ],
            "translation" : [
                2.5492710165053722e-09,
                0.22519871592521667,
                1.7025987730789893e-08
            ]
        },
        {
            "name" : "R_Ring_3",
            "rotation" : [
                0.022313192486763,
                -0.008500206284224987,
                0.05048046633601189,
                0.998439610004425
            ],
            "scale" : [
                0.9999999403953552,
                1,
                1
            ],
            "translation" : [
                6.873088320702436e-09,
                0.02607983909547329,
                9.227055564053899e-09
            ]
        },
        {
            "children" : [
                4
            ],
            "name" : "R_Ring_2",
            "rotation" : [
                0.016163870692253113,
                -0.010009877383708954,
                0.09973037987947464,
                0.9948328733444214
            ],
            "scale" : [
                0.9999998807907104,
                1,
                1.0000001192092896
            ],
            "translation" : [
                -2.2811653010990085e-08,
                0.034876517951488495,
                -1.4353066291050709e-08
            ]
        },
        {
            "children" : [
                5
            ],
            "name" : "R_Ring_1",
            "rotation" : [
                -0.018347742035984993,
                -0.004305972717702389,
                0.08802158385515213,
                0.9959402680397034
            ],
            "scale" : [
                0.9999999403953552,
                1,
                1
            ],
            "translation" : [
                -5.841719996624306e-09,
                0.0859072133898735,
                3.6299616645862898e-09
            ]
        },
        {
            "children" : [
                6
            ],
            "name" : "R_Ring_0",
            "rotation" : [
                -0.02332243323326111,
                0.29905965924263,
                0.07720649987459183,
                0.9508199691772461
            ],
            "scale" : [
                0.9999999403953552,
                0.9999999403953552,
                1.0000001192092896
            ],
            "translation" : [
                1.3617219352113352e-08,
                0.2251986861228943,
                6.648081196658495e-09
            ]
        },
        {
            "name" : "R_Middle_3",
            "rotation" : [
                0.000388991815270856,
                -5.473210694617592e-05,
                0.043779224157333374,
                0.9990411996841431
            ],
            "scale" : [
                1,
                1.000000238418579,
                1.0000001192092896
            ],
            "translation" : [
                -5.564871230490098e-08,
                0.029037542641162872,
                2.177322544483218e-09
            ]
        },
        {
            "children" : [
                8
            ],
            "name" : "R_Middle_2",
            "rotation" : [
                -0.001582415890879929,
                0.00027992494869977236,
                0.04886876046657562,
                0.9988039135932922
            ],
            "scale" : [
                1.0000001192092896,
                1,
                1.0000001192092896
            ],
            "translation" : [
                -3.652426983080659e-08,
                0.033887021243572235,
                -9.05737085332703e-09
            ]
        },
        {
            "children" : [
                9
            ],
            "name" : "R_Middle_1",
            "rotation" : [
                -0.03832408785820007,
                0.004689650610089302,
                0.06497042626142502,
                0.9971399903297424
            ],
            "scale" : [
                0.9999999403953552,
                0.9999998807907104,
                0.9999999403953552
            ],
            "translation" : [
                -6.354268577979383e-08,
                0.09097206592559814,
                7.877717145277074e-09
            ]
        },
        {
            "children" : [
                10
            ],
            "name" : "R_Middle_0",
            "rotation" : [
                0.07280781120061874,
                0.30043482780456543,
                0.05119374394416809,
                0.9496405720710754
            ],
            "scale" : [
                1,
                1,
                1.000000238418579
            ],
            "translation" : [
                -1.2158166029507811e-08,
                0.2251986861228943,
                1.1456513959728909e-08
            ]
        },
        {
            "name" : "R_Index_3",
            "rotation" : [
                -0.004029459785670042,
                0.006220915354788303,
                0.06533744186162949,
                0.9978356957435608
            ],
            "scale" : [
                1.0000001192092896,
                1.0000001192092896,
                1
            ],
            "translation" : [
                6.324621182329793e-08,
                0.022892910987138748,
                -1.3773441054354407e-08
            ]
        },
        {
            "children" : [
                12
            ],
            "name" : "R_Index_2",
            "rotation" : [
                -0.008389516733586788,
                0.006484547164291143,
                0.05992214381694794,
                0.9981467723846436
            ],
            "scale" : [
                0.9999998807907104,
                1,
                0.9999998211860657
            ],
            "translation" : [
                -4.3631434465396524e-08,
                0.03226768970489502,
                1.5772274153391663e-08
            ]
        },
        {
            "children" : [
                13
            ],
            "name" : "R_Index_1",
            "rotation" : [
                -0.0582146942615509,
                0.01259716134518385,
                0.06965652853250504,
                0.9957913160324097
            ],
            "scale" : [
                1.0000001192092896,
                1,
                1
            ],
            "translation" : [
                6.446128253401184e-08,
                0.09473816305398941,
                8.540436802206841e-09
            ]
        },
        {
            "children" : [
                14
            ],
            "name" : "R_Index_0",
            "rotation" : [
                0.1719954013824463,
                0.2992323637008667,
                -0.00207409355789423,
                0.9385485053062439
            ],
            "scale" : [
                0.9999998807907104,
                1,
                1
            ],
            "translation" : [
                -1.1458919368934062e-09,
                0.2251986712217331,
                -4.37589786628223e-09
            ]
        },
        {
            "name" : "R_Thumb_2",
            "rotation" : [
                -0.13069790601730347,
                0.03774455189704895,
                0.011133800260722637,
                0.9906409382820129
            ],
            "scale" : [
                1.0000001192092896,
                0.9999999403953552,
                1
            ],
            "translation" : [
                -2.89508932382887e-08,
                0.02652019076049328,
                -1.6608868946832445e-08
            ]
        },
        {
            "children" : [
                16
            ],
            "name" : "R_Thumb_1",
            "rotation" : [
                -0.24201224744319916,
                0.074915312230587,
                0.045874059200286865,
                0.9662884473800659
            ],
            "scale" : [
                0.9999999403953552,
                1,
                0.9999999403953552
            ],
            "translation" : [
                3.8658100720567745e-08,
                0.07370306551456451,
                -7.534553425614376e-09
            ]
        },
        {
            "children" : [
                17
            ],
            "name" : "R_Thumb_0",
            "rotation" : [
                0.4843372106552124,
                0.26785504817962646,
                0.0634261891245842,
                0.8304506540298462
            ],
            "scale" : [
                1.0000001192092896,
                1.000000238418579,
                1
            ],
            "translation" : [
                1.600140819846274e-08,
                0.22519870102405548,
                1.1575821190490387e-08
            ]
        },
        {
            "name" : "R_Arm_Rotator_0",
            "rotation" : [
                0.0019393832189962268,
                0.15253284573554993,
                -0.00014301907503977418,
                0.9882965683937073
            ],
            "scale" : [
                0.9999998807907104,
                0.9999996423721313,
                0.9999997019767761
            ],
            "translation" : [
                1.5488989646428308e-08,
                5.3085273066244554e-08,
                1.9832523179275086e-08
            ]
        },
        {
            "name" : "R_Arm_Rotator_1",
            "rotation" : [
                0.0019444936187937856,
                0.2276647984981537,
                5.647395028063329e-06,
                0.9737376570701599
            ],
            "scale" : [
                0.999999463558197,
                0.9999999403953552,
                0.9999996423721313
            ],
            "translation" : [
                6.899524305481464e-05,
                0.07887183129787445,
                0.0002989301865454763
            ]
        },
        {
            "name" : "R_Arm_Rotator_2",
            "rotation" : [
                -0.004864645656198263,
                0.30134594440460205,
                -0.0003871906374115497,
                0.9535024166107178
            ],
            "scale" : [
                0.9999998211860657,
                0.9999998211860657,
                0.9999999403953552
            ],
            "translation" : [
                0.00014156235556583852,
                0.16196705400943756,
                0.0006138145108707249
            ]
        },
        {
            "children" : [
                3,
                7,
                11,
                15,
                18,
                19,
                20,
                21
            ],
            "name" : "R_Arm",
            "rotation" : [
                0.2693719267845154,
                0.010057893581688404,
                0.10637756437063217,
                0.9570901989936829
            ],
            "scale" : [
                0.9999998211860657,
                1.0000001192092896,
                1
            ],
            "translation" : [
                -1.683688921616522e-08,
                0.2618328630924225,
                -3.508807822072413e-08
            ]
        },
        {
            "children" : [
                22
            ],
            "name" : "R_Shoulder",
            "rotation" : [
                -0.7375783920288086,
                -0.26766204833984375,
                0.1711176484823227,
                0.5958639979362488
            ],
            "scale" : [
                1,
                0.9999999403953552,
                1.0000001192092896
            ],
            "translation" : [
                0.20256073772907257,
                -0.012475349940359592,
                -0.0014748751418665051
            ]
        },
        {
            "name" : "R_Hand_IK",
            "rotation" : [
                -0.6245696544647217,
                0.11993418633937836,
                0.11622767895460129,
                0.7629021406173706
            ],
            "translation" : [
                0.18607883155345917,
                -0.013255596160888672,
                -0.4674623906612396
            ]
        },
        {
            "name" : "R_Hand_POLE",
            "rotation" : [
                -0.6661178469657898,
                -0.23269695043563843,
                0.20334988832473755,
                0.678813636302948
            ],
            "scale" : [
                1.0000001192092896,
                1.0000001192092896,
                0.9999999403953552
            ],
            "translation" : [
                0.30285048484802246,
                -0.11768932640552521,
                -0.18229348957538605
            ]
        },
        {
            "name" : "L_Arm_Rotator_0",
            "rotation" : [
                0.0018948984798043966,
                -3.41693485097494e-05,
                0.00043708193697966635,
                0.9999982118606567
            ],
            "scale" : [
                1.000000238418579,
                1.0000003576278687,
                1.000000238418579
            ],
            "translation" : [
                -4.17931005358696e-08,
                -4.656612873077393e-10,
                1.3242242857813835e-09
            ]
        },
        {
            "name" : "L_Arm_Rotator_1",
            "rotation" : [
                0.0018947584321722388,
                -3.41460072377231e-05,
                0.0004370816459413618,
                0.9999982118606567
            ],
            "scale" : [
                1,
                0.9999998807907104,
                0.9999999403953552
            ],
            "translation" : [
                -6.897500861668959e-05,
                0.07887185364961624,
                0.00029890151927247643
            ]
        },
        {
            "name" : "L_Arm_Rotator_2",
            "rotation" : [
                -0.004755418747663498,
                -0.00023119155957829207,
                -0.001095686573535204,
                0.9999880790710449
            ],
            "scale" : [
                1.0000001192092896,
                1.0000001192092896,
                0.9999999403953552
            ],
            "translation" : [
                -0.00014164439926389605,
                0.16196708381175995,
                0.0006138051976449788
            ]
        },
        {
            "children" : [
                26,
                27,
                28
            ],
            "name" : "L_Arm",
            "rotation" : [
                -0.697895884513855,
                0.014827261678874493,
                0.014827238395810127,
                0.7158921957015991
            ],
            "translation" : [
                -0.2822515666484833,
                -0.18518275022506714,
                -0.18141372501850128
            ]
        },
        {
            "mesh" : 0,
            "name" : "Hands01_BlackSleeveRolledUp",
            "skin" : 0
        },
        {
            "children" : [
                30,
                23,
                24,
                25,
                29
            ],
            "name" : "Armature"
        }
    ],
    "materials" : [
        {
            "doubleSided" : true,
            "name" : "Hand01",
            "normalTexture" : {
                "index" : 0
            },
            "pbrMetallicRoughness" : {
                "baseColorTexture" : {
                    "index" : 1
                },
                "metallicFactor" : 0,
                "metallicRoughnessTexture" : {
                    "index" : 2
                }
            }
        }
    ],
    "meshes" : [
        {
            "name" : "Hands01_BlackSleeveRolledUp",
            "primitives" : [
                {
                    "attributes" : {
                        "POSITION" : 0,
                        "NORMAL" : 1,
                        "TEXCOORD_0" : 2,
                        "COLOR_0" : 3,
                        "JOINTS_0" : 4,
                        "WEIGHTS_0" : 5
                    },
                    "indices" : 6,
                    "material" : 0
                }
            ]
        }
    ],
    "textures" : [
        {
            "sampler" : 0,
            "source" : 0
        },
        {
            "sampler" : 0,
            "source" : 1
        },
        {
            "sampler" : 0,
            "source" : 2
        }
    ],
    "images" : [
        {
            "mimeType" : "image/jpeg",
            "name" : "Hands01_Normal",
            "uri" : "Hands01_Normal.jpg"
        },
        {
            "mimeType" : "image/jpeg",
            "name" : "Hands01White_BaseColor",
            "uri" : "Hands01White_BaseColor.jpg"
        },
        {
            "mimeType" : "image/jpeg",
            "name" : "Hands01_Roughness",
            "uri" : "Hands01_Roughness.jpg"
        }
    ],
    "skins" : [
        {
            "inverseBindMatrices" : 7,
            "joints" : [
                23,
                22,
                3,
                2,
                1,
                0,
                7,
                6,
                5,
                4,
                11,
                10,
                9,
                8,
                15,
                14,
                13,
                12,
                18,
                17,
                16,
                19,
                20,
                21,
                24,
                25,
                29,
                26,
                27,
                28
            ],
            "name" : "Armature"
        }
    ],
    "accessors" : [
        {
            "bufferView" : 0,
            "componentType" : 5126,
            "count" : 2234,
            "max" : [
                0.3275527358055115,
                0.06047447770833969,
                0.043958332389593124
            ],
            "min" : [
                0.15047983825206757,
                -0.234821155667305,
                -0.5836789011955261
            ],
            "type" : "VEC3"
        },
        {
            "bufferView" : 1,
            "componentType" : 5126,
            "count" : 2234,
            "type" : "VEC3"
        },
        {
            "bufferView" : 2,
            "componentType" : 5126,
            "count" : 2234,
            "type" : "VEC2"
        },
        {
            "bufferView" : 3,
            "componentType" : 5123,
            "count" : 2234,
            "normalized" : true,
            "type" : "VEC4"
        },
        {
            "bufferView" : 4,
            "componentType" : 5121,
            "count" : 2234,
            "type" : "VEC4"
        },
        {
            "bufferView" : 5,
            "componentType" : 5126,
            "count" : 2234,
            "type" : "VEC4"
        },
        {
            "bufferView" : 6,
            "componentType" : 5123,
            "count" : 10092,
            "type" : "SCALAR"
        },
        {
            "bufferView" : 7,
            "componentType" : 5126,
            "count" : 30,
            "type" : "MAT4"
        }
    ],
    "bufferViews" : [
        {
            "buffer" : 0,
            "byteLength" : 26808,
            "byteOffset" : 0
        },
        {
            "buffer" : 0,
            "byteLength" : 26808,
            "byteOffset" : 26808
        },
        {
            "buffer" : 0,
            "byteLength" : 17872,
            "byteOffset" : 53616
        },
        {
            "buffer" : 0,
            "byteLength" : 17872,
            "byteOffset" : 71488
        },
        {
            "buffer" : 0,
            "byteLength" : 8936,
            "byteOffset" : 89360
        },
        {
            "buffer" : 0,
            "byteLength" : 35744,
            "byteOffset" : 98296
        },
        {
            "buffer" : 0,
            "byteLength" : 20184,
            "byteOffset" : 134040
        },
        {
            "buffer" : 0,
            "byteLength" : 1920,
            "byteOffset" : 154224
        }
    ],
    "samplers" : [
        {
            "magFilter" : 9729,
            "minFilter" : 9987
        }
    ],
    "buffers" : [
        {
            "byteLength" : 156144,
            "uri" : "Righthand.bin"
        }
    ]
}
