{
    "asset" : {
        "generator" : "Khronos glTF Blender I/O v1.7.33",
        "version" : "2.0"
    },
    "scene" : 0,
    "scenes" : [
        {
            "name" : "Scene",
            "nodes" : [
                31
            ]
        }
    ],
    "nodes" : [
        {
            "name" : "R_Pinky_3",
            "rotation" : [
                0.21838459372520447,
                0.18233618140220642,
                0.40403103828430176,
                0.8693795800209045
            ],
            "scale" : [
                0.9999999403953552,
                0.9999999403953552,
                0.9999998211860657
            ],
            "translation" : [
                -1.5431218969297333e-08,
                0.019200768321752548,
                2.5204487386076835e-08
            ]
        },
        {
            "children" : [
                0
            ],
            "name" : "R_Pinky_2",
            "rotation" : [
                0.22184625267982483,
                -0.3506583273410797,
                0.28390824794769287,
                0.8644183874130249
            ],
            "scale" : [
                1,
                1.0000001192092896,
                1
            ],
            "translation" : [
                -1.3969838619232178e-08,
                0.020450204610824585,
                -1.862645149230957e-08
            ]
        },
        {
            "children" : [
                1
            ],
            "name" : "R_Pinky_1",
            "rotation" : [
                0.21197845041751862,
                -0.0706496387720108,
                0.4884912371635437,
                0.8434750437736511
            ],
            "scale" : [
                1,
                0.9999999403953552,
                1
            ],
            "translation" : [
                -3.091168876423467e-09,
                0.08862867206335068,
                1.517598313682811e-08
            ]
        },
        {
            "children" : [
                2
            ],
            "name" : "R_Pinky_0",
            "rotation" : [
                -0.009682423435151577,
                0.17626053094863892,
                0.26521387696266174,
                0.947892427444458
            ],
            "scale" : [
                0.9999998807907104,
                0.9999998807907104,
                1
            ],
            "translation" : [
                1.229906221311694e-08,
                0.22519870102405548,
                -1.6086139087434503e-09
            ]
        },
        {
            "name" : "R_Ring_3",
            "rotation" : [
                0.16577284038066864,
                0.14838160574436188,
                0.26811856031417847,
                0.937344491481781
            ],
            "scale" : [
                1.0000001192092896,
                1.0000001192092896,
                1.000000238418579
            ],
            "translation" : [
                6.773690053307746e-09,
                0.02607983909547329,
                1.5971444611295738e-08
            ]
        },
        {
            "children" : [
                4
            ],
            "name" : "R_Ring_2",
            "rotation" : [
                0.27665993571281433,
                -0.22733822464942932,
                0.5209954380989075,
                0.7748163342475891
            ],
            "scale" : [
                1.0000001192092896,
                1,
                1.0000001192092896
            ],
            "translation" : [
                2.2122437215443824e-08,
                0.03487655892968178,
                2.6431492550216262e-09
            ]
        },
        {
            "children" : [
                5
            ],
            "name" : "R_Ring_1",
            "rotation" : [
                0.10383111983537674,
                -0.05568448826670647,
                0.5005976557731628,
                0.8576248288154602
            ],
            "scale" : [
                1.0000001192092896,
                1,
                0.9999998807907104
            ],
            "translation" : [
                4.761661642760373e-08,
                0.08590725809335709,
                2.8369051552346036e-09
            ]
        },
        {
            "children" : [
                6
            ],
            "name" : "R_Ring_0",
            "rotation" : [
                0.10121019929647446,
                0.2017475664615631,
                0.22566953301429749,
                0.9476959705352783
            ],
            "scale" : [
                0.9999998807907104,
                0.9999998807907104,
                0.9999999403953552
            ],
            "translation" : [
                6.645363370694213e-09,
                0.22519870102405548,
                -7.810226243520901e-09
            ]
        },
        {
            "name" : "R_Middle_3",
            "rotation" : [
                0.21644289791584015,
                -0.13184095919132233,
                0.4055490791797638,
                0.8782370686531067
            ],
            "scale" : [
                1,
                0.9999998807907104,
                1
            ],
            "translation" : [
                -1.2420344752683832e-08,
                0.029037561267614365,
                5.920533396874816e-09
            ]
        },
        {
            "children" : [
                8
            ],
            "name" : "R_Middle_2",
            "rotation" : [
                0.17863692343235016,
                -0.08746924996376038,
                0.3358374238014221,
                0.9206798672676086
            ],
            "scale" : [
                0.9999999403953552,
                0.9999999403953552,
                1
            ],
            "translation" : [
                -3.163847850373713e-08,
                0.03388696163892746,
                -2.377100827288814e-08
            ]
        },
        {
            "children" : [
                9
            ],
            "name" : "R_Middle_1",
            "rotation" : [
                0.09294217824935913,
                -0.015877719968557358,
                0.6775352358818054,
                0.7294214367866516
            ],
            "scale" : [
                1,
                1.0000001192092896,
                0.9999999403953552
            ],
            "translation" : [
                -3.378151447464006e-08,
                0.09097207337617874,
                7.574152860456707e-09
            ]
        },
        {
            "children" : [
                10
            ],
            "name" : "R_Middle_0",
            "rotation" : [
                0.19677524268627167,
                0.2178427129983902,
                0.20792467892169952,
                0.9330548644065857
            ],
            "scale" : [
                1,
                0.9999998807907104,
                1
            ],
            "translation" : [
                2.4884517557666186e-08,
                0.2251986861228943,
                -1.0370120762104307e-08
            ]
        },
        {
            "name" : "R_Index_3",
            "rotation" : [
                0.14204701781272888,
                0.13622362911701202,
                0.6110718250274658,
                0.766718327999115
            ],
            "scale" : [
                1,
                0.9999999403953552,
                0.9999998211860657
            ],
            "translation" : [
                1.2062906229459713e-08,
                0.022892843931913376,
                -1.396574411671736e-09
            ]
        },
        {
            "children" : [
                12
            ],
            "name" : "R_Index_2",
            "rotation" : [
                0.09768582880496979,
                -0.05831477791070938,
                0.3273617923259735,
                0.9380251169204712
            ],
            "scale" : [
                0.9999999403953552,
                1,
                0.9999998211860657
            ],
            "translation" : [
                -1.792177783954685e-08,
                0.03226769343018532,
                5.106778888652741e-10
            ]
        },
        {
            "children" : [
                13
            ],
            "name" : "R_Index_1",
            "rotation" : [
                0.034743502736091614,
                0.09622983634471893,
                0.6369791626930237,
                0.764061689376831
            ],
            "scale" : [
                0.9999997615814209,
                1,
                1
            ],
            "translation" : [
                3.783819479963313e-08,
                0.09473813325166702,
                -2.7133855162730924e-09
            ]
        },
        {
            "children" : [
                14
            ],
            "name" : "R_Index_0",
            "rotation" : [
                0.29605236649513245,
                0.23716473579406738,
                0.162311851978302,
                0.910912036895752
            ],
            "scale" : [
                0.9999998211860657,
                0.9999998807907104,
                0.9999999403953552
            ],
            "translation" : [
                4.811349541000709e-09,
                0.2251986861228943,
                -1.0463520327963494e-10
            ]
        },
        {
            "name" : "R_Thumb_2",
            "rotation" : [
                -0.13069790601730347,
                0.03774455189704895,
                0.011133796535432339,
                0.9906409382820129
            ],
            "scale" : [
                0.9999999403953552,
                0.9999999403953552,
                1
            ],
            "translation" : [
                -5.764970012478443e-08,
                0.026520177721977234,
                -3.2725058218829872e-09
            ]
        },
        {
            "children" : [
                16
            ],
            "name" : "R_Thumb_1",
            "rotation" : [
                -0.40014201402664185,
                0.04893998056650162,
                0.011209169402718544,
                0.9150768518447876
            ],
            "scale" : [
                0.9999999403953552,
                0.9999999403953552,
                1
            ],
            "translation" : [
                1.30385160446167e-08,
                0.07370303571224213,
                1.1175870895385742e-08
            ]
        },
        {
            "children" : [
                17
            ],
            "name" : "R_Thumb_0",
            "rotation" : [
                0.5808429718017578,
                0.23710361123085022,
                0.23394858837127686,
                0.7427458167076111
            ],
            "scale" : [
                1,
                0.9999998807907104,
                1
            ],
            "translation" : [
                -3.1719744608693645e-09,
                0.2251986861228943,
                1.9098795434047133e-08
            ]
        },
        {
            "name" : "R_Arm_Rotator_0",
            "rotation" : [
                0.0019296110840514302,
                0.10221047699451447,
                -0.00024127651704475284,
                0.9947609305381775
            ],
            "scale" : [
                1,
                1,
                0.9999998211860657
            ],
            "translation" : [
                5.748059805910088e-10,
                3.81972498075811e-08,
                1.977709551681528e-08
            ]
        },
        {
            "name" : "R_Arm_Rotator_1",
            "rotation" : [
                0.0019393839174881577,
                0.15296383202075958,
                -0.00014221007586456835,
                0.9882299900054932
            ],
            "scale" : [
                0.9999998807907104,
                0.9999998211860657,
                0.9999999403953552
            ],
            "translation" : [
                6.896545528434217e-05,
                0.07887183874845505,
                0.00029901962261646986
            ]
        },
        {
            "name" : "R_Arm_Rotator_2",
            "rotation" : [
                -0.004878866020590067,
                0.20319730043411255,
                0.0001076394401025027,
                0.9791256785392761
            ],
            "scale" : [
                0.9999997615814209,
                0.9999998211860657,
                0.9999999403953552
            ],
            "translation" : [
                0.00014156226825434715,
                0.16196708381175995,
                0.0006138738244771957
            ]
        },
        {
            "children" : [
                3,
                7,
                11,
                15,
                18,
                19,
                20,
                21
            ],
            "name" : "R_Arm",
            "rotation" : [
                0.5225396752357483,
                0.008693112060427666,
                0.2063559591770172,
                0.827220618724823
            ],
            "scale" : [
                0.9999999403953552,
                0.9999997615814209,
                1.000000238418579
            ],
            "translation" : [
                1.5233428740657473e-08,
                0.2618328928947449,
                -3.052356811750201e-09
            ]
        },
        {
            "children" : [
                22
            ],
            "name" : "R_Shoulder",
            "rotation" : [
                -0.7005020380020142,
                -0.3394356369972229,
                0.2552450895309448,
                0.5735244154930115
            ],
            "scale" : [
                1,
                0.9999999403953552,
                1
            ],
            "translation" : [
                0.20256072282791138,
                -0.012475353665649891,
                0.004835678730159998
            ]
        },
        {
            "name" : "R_Hand_IK",
            "rotation" : [
                -0.32782354950904846,
                0.30770283937454224,
                0.5297195911407471,
                0.7191994786262512
            ],
            "scale" : [
                0.9999999403953552,
                0.9999999403953552,
                1
            ],
            "translation" : [
                0.07172796130180359,
                0.01470707356929779,
                -0.3758213222026825
            ]
        },
        {
            "name" : "R_Hand_POLE",
            "rotation" : [
                -0.6661178469657898,
                -0.23269695043563843,
                0.20334988832473755,
                0.678813636302948
            ],
            "scale" : [
                1.0000001192092896,
                1.0000001192092896,
                0.9999999403953552
            ],
            "translation" : [
                0.27138328552246094,
                -0.07910732924938202,
                -0.19544465839862823
            ]
        },
        {
            "name" : "L_Arm_Rotator_0",
            "rotation" : [
                0.0018948984798043966,
                -3.41693485097494e-05,
                0.00043708193697966635,
                0.9999982118606567
            ],
            "scale" : [
                1.000000238418579,
                1.0000003576278687,
                1.000000238418579
            ],
            "translation" : [
                -4.17931005358696e-08,
                -4.656612873077393e-10,
                1.3242242857813835e-09
            ]
        },
        {
            "name" : "L_Arm_Rotator_1",
            "rotation" : [
                0.0018947584321722388,
                -3.41460072377231e-05,
                0.0004370816459413618,
                0.9999982118606567
            ],
            "scale" : [
                1,
                0.9999998807907104,
                0.9999999403953552
            ],
            "translation" : [
                -6.897500861668959e-05,
                0.07887185364961624,
                0.00029890151927247643
            ]
        },
        {
            "name" : "L_Arm_Rotator_2",
            "rotation" : [
                -0.004755418747663498,
                -0.00023119155957829207,
                -0.001095686573535204,
                0.9999880790710449
            ],
            "scale" : [
                1.0000001192092896,
                1.0000001192092896,
                0.9999999403953552
            ],
            "translation" : [
                -0.00014164439926389605,
                0.16196708381175995,
                0.0006138051976449788
            ]
        },
        {
            "children" : [
                26,
                27,
                28
            ],
            "name" : "L_Arm",
            "rotation" : [
                -0.697895884513855,
                0.014827261678874493,
                0.014827238395810127,
                0.7158921957015991
            ],
            "translation" : [
                -0.2822515666484833,
                -0.18518275022506714,
                -0.18141372501850128
            ]
        },
        {
            "mesh" : 0,
            "name" : "Hands01_BlackSleeveRolledUp",
            "skin" : 0
        },
        {
            "children" : [
                30,
                23,
                24,
                25,
                29
            ],
            "name" : "Armature"
        }
    ],
    "materials" : [
        {
            "doubleSided" : true,
            "emissiveFactor" : [
                0.20000000298023224,
                0.20000000298023224,
                0.20000000298023224
            ],
            "emissiveTexture" : {
                "index" : 0
            },
            "name" : "Hand01",
            "normalTexture" : {
                "index" : 1
            },
            "pbrMetallicRoughness" : {
                "baseColorTexture" : {
                    "index" : 2
                },
                "metallicFactor" : 0,
                "roughnessFactor" : 0.7090908885002136
            }
        }
    ],
    "meshes" : [
        {
            "name" : "Hands01_BlackSleeveRolledUp",
            "primitives" : [
                {
                    "attributes" : {
                        "POSITION" : 0,
                        "NORMAL" : 1,
                        "TEXCOORD_0" : 2,
                        "COLOR_0" : 3,
                        "JOINTS_0" : 4,
                        "WEIGHTS_0" : 5
                    },
                    "indices" : 6,
                    "material" : 0
                }
            ]
        }
    ],
    "textures" : [
        {
            "sampler" : 0,
            "source" : 0
        },
        {
            "sampler" : 0,
            "source" : 1
        },
        {
            "sampler" : 0,
            "source" : 0
        }
    ],
    "images" : [
        {
            "mimeType" : "image/jpeg",
            "name" : "Hands01White_BaseColor",
            "uri" : "Hands01White_BaseColor.jpg"
        },
        {
            "mimeType" : "image/jpeg",
            "name" : "Hands01_Normal",
            "uri" : "Hands01_Normal.jpg"
        }
    ],
    "skins" : [
        {
            "inverseBindMatrices" : 7,
            "joints" : [
                23,
                22,
                3,
                2,
                1,
                0,
                7,
                6,
                5,
                4,
                11,
                10,
                9,
                8,
                15,
                14,
                13,
                12,
                18,
                17,
                16,
                19,
                20,
                21,
                24,
                25,
                29,
                26,
                27,
                28
            ],
            "name" : "Armature"
        }
    ],
    "accessors" : [
        {
            "bufferView" : 0,
            "componentType" : 5126,
            "count" : 2234,
            "max" : [
                0.3275527358055115,
                0.06047447770833969,
                0.043958332389593124
            ],
            "min" : [
                0.15047983825206757,
                -0.234821155667305,
                -0.5836789011955261
            ],
            "type" : "VEC3"
        },
        {
            "bufferView" : 1,
            "componentType" : 5126,
            "count" : 2234,
            "type" : "VEC3"
        },
        {
            "bufferView" : 2,
            "componentType" : 5126,
            "count" : 2234,
            "type" : "VEC2"
        },
        {
            "bufferView" : 3,
            "componentType" : 5123,
            "count" : 2234,
            "normalized" : true,
            "type" : "VEC4"
        },
        {
            "bufferView" : 4,
            "componentType" : 5121,
            "count" : 2234,
            "type" : "VEC4"
        },
        {
            "bufferView" : 5,
            "componentType" : 5126,
            "count" : 2234,
            "type" : "VEC4"
        },
        {
            "bufferView" : 6,
            "componentType" : 5123,
            "count" : 10092,
            "type" : "SCALAR"
        },
        {
            "bufferView" : 7,
            "componentType" : 5126,
            "count" : 30,
            "type" : "MAT4"
        }
    ],
    "bufferViews" : [
        {
            "buffer" : 0,
            "byteLength" : 26808,
            "byteOffset" : 0
        },
        {
            "buffer" : 0,
            "byteLength" : 26808,
            "byteOffset" : 26808
        },
        {
            "buffer" : 0,
            "byteLength" : 17872,
            "byteOffset" : 53616
        },
        {
            "buffer" : 0,
            "byteLength" : 17872,
            "byteOffset" : 71488
        },
        {
            "buffer" : 0,
            "byteLength" : 8936,
            "byteOffset" : 89360
        },
        {
            "buffer" : 0,
            "byteLength" : 35744,
            "byteOffset" : 98296
        },
        {
            "buffer" : 0,
            "byteLength" : 20184,
            "byteOffset" : 134040
        },
        {
            "buffer" : 0,
            "byteLength" : 1920,
            "byteOffset" : 154224
        }
    ],
    "samplers" : [
        {
            "magFilter" : 9729,
            "minFilter" : 9987
        }
    ],
    "buffers" : [
        {
            "byteLength" : 156144,
            "uri" : "Righthand.bin"
        }
    ]
}
