{
    "asset" : {
        "generator" : "Khronos glTF Blender I/O v1.7.33",
        "version" : "2.0"
    },
    "scene" : 0,
    "scenes" : [
        {
            "name" : "Scene",
            "nodes" : [
                0
            ]
        }
    ],
    "nodes" : [
        {
            "mesh" : 0,
            "name" : "V49can",
            "translation" : [
                0.051191117614507675,
                0,
                -0.036565084010362625
            ]
        }
    ],
    "materials" : [
        {
            "doubleSided" : true,
            "emissiveFactor" : [
                0.5,
                0.5,
                0.5
            ],
            "emissiveTexture" : {
                "index" : 0
            },
            "name" : "Wrap",
            "pbrMetallicRoughness" : {
                "baseColorTexture" : {
                    "index" : 1
                },
                "metallicRoughnessTexture" : {
                    "index" : 2
                },
                "roughnessFactor" : 0
            }
        },
        {
            "doubleSided" : true,
            "emissiveFactor" : [
                0.10000000149011612,
                0.10000000149011612,
                0.10000000149011612
            ],
            "name" : "can",
            "pbrMetallicRoughness" : {
                "baseColorFactor" : [
                    0.800000011920929,
                    0.800000011920929,
                    0.800000011920929,
                    1
                ],
                "roughnessFactor" : 0.10000000149011612
            }
        }
    ],
    "meshes" : [
        {
            "name" : "V49can",
            "primitives" : [
                {
                    "attributes" : {
                        "POSITION" : 0,
                        "NORMAL" : 1,
                        "TEXCOORD_0" : 2,
                        "TEXCOORD_1" : 3
                    },
                    "indices" : 4,
                    "material" : 0
                },
                {
                    "attributes" : {
                        "POSITION" : 5,
                        "NORMAL" : 6,
                        "TEXCOORD_0" : 7,
                        "TEXCOORD_1" : 8
                    },
                    "indices" : 9,
                    "material" : 1
                }
            ]
        }
    ],
    "textures" : [
        {
            "sampler" : 0,
            "source" : 0
        },
        {
            "sampler" : 0,
            "source" : 0
        },
        {
            "sampler" : 0,
            "source" : 1
        }
    ],
    "images" : [
        {
            "mimeType" : "image/jpeg",
            "name" : "V49D",
            "uri" : "V49D.jpg"
        },
        {
            "mimeType" : "image/png",
            "name" : "V49M",
            "uri" : "V49M.png"
        }
    ],
    "accessors" : [
        {
            "bufferView" : 0,
            "componentType" : 5126,
            "count" : 693,
            "max" : [
                0.9573453068733215,
                1.6970878839492798,
                1.0261932611465454
            ],
            "min" : [
                -1.0458757877349854,
                -1.6555253267288208,
                -0.9773162603378296
            ],
            "type" : "VEC3"
        },
        {
            "bufferView" : 1,
            "componentType" : 5126,
            "count" : 693,
            "type" : "VEC3"
        },
        {
            "bufferView" : 2,
            "componentType" : 5126,
            "count" : 693,
            "type" : "VEC2"
        },
        {
            "bufferView" : 3,
            "componentType" : 5126,
            "count" : 693,
            "type" : "VEC2"
        },
        {
            "bufferView" : 4,
            "componentType" : 5123,
            "count" : 3840,
            "type" : "SCALAR"
        },
        {
            "bufferView" : 5,
            "componentType" : 5126,
            "count" : 7832,
            "max" : [
                0.9271482825279236,
                1.953179121017456,
                0.9943259954452515
            ],
            "min" : [
                -1.0150007009506226,
                -1.872350811958313,
                -0.9481026530265808
            ],
            "type" : "VEC3"
        },
        {
            "bufferView" : 6,
            "componentType" : 5126,
            "count" : 7832,
            "type" : "VEC3"
        },
        {
            "bufferView" : 7,
            "componentType" : 5126,
            "count" : 7832,
            "type" : "VEC2"
        },
        {
            "bufferView" : 8,
            "componentType" : 5126,
            "count" : 7832,
            "type" : "VEC2"
        },
        {
            "bufferView" : 9,
            "componentType" : 5123,
            "count" : 38532,
            "type" : "SCALAR"
        }
    ],
    "bufferViews" : [
        {
            "buffer" : 0,
            "byteLength" : 8316,
            "byteOffset" : 0
        },
        {
            "buffer" : 0,
            "byteLength" : 8316,
            "byteOffset" : 8316
        },
        {
            "buffer" : 0,
            "byteLength" : 5544,
            "byteOffset" : 16632
        },
        {
            "buffer" : 0,
            "byteLength" : 5544,
            "byteOffset" : 22176
        },
        {
            "buffer" : 0,
            "byteLength" : 7680,
            "byteOffset" : 27720
        },
        {
            "buffer" : 0,
            "byteLength" : 93984,
            "byteOffset" : 35400
        },
        {
            "buffer" : 0,
            "byteLength" : 93984,
            "byteOffset" : 129384
        },
        {
            "buffer" : 0,
            "byteLength" : 62656,
            "byteOffset" : 223368
        },
        {
            "buffer" : 0,
            "byteLength" : 62656,
            "byteOffset" : 286024
        },
        {
            "buffer" : 0,
            "byteLength" : 77064,
            "byteOffset" : 348680
        }
    ],
    "samplers" : [
        {
            "magFilter" : 9729,
            "minFilter" : 9987
        }
    ],
    "buffers" : [
        {
            "byteLength" : 425744,
            "uri" : "V49.bin"
        }
    ]
}
