{
	"asset":{
		"generator":"Khronos glTF Blender I/O v3.6.27",
		"version":"2.0"
	},
	"extensionsUsed":[
		"KHR_texture_transform"
	],
	"extensionsRequired":[
		"KHR_texture_transform"
	],
	"scene":0,
	"scenes":[
		{
			"name":"Scene",
			"nodes":[
				0,
				1,
				2,
				3,
				4,
				5,
				6,
				7,
				8,
				9,
				10,
				11,
				12,
				13,
				14
			]
		}
	],
	"nodes":[
		{
			"mesh":0,
			"name":"side1.015"
		},
		{
			"mesh":1,
			"name":"side1.001"
		},
		{
			"mesh":2,
			"name":"side1.002"
		},
		{
			"mesh":3,
			"name":"side1.003"
		},
		{
			"mesh":4,
			"name":"side1.004"
		},
		{
			"mesh":5,
			"name":"side1.005"
		},
		{
			"mesh":6,
			"name":"side1.006"
		},
		{
			"mesh":7,
			"name":"side1.007"
		},
		{
			"mesh":8,
			"name":"side1.008"
		},
		{
			"mesh":9,
			"name":"side1.009"
		},
		{
			"mesh":10,
			"name":"side1.010"
		},
		{
			"mesh":11,
			"name":"side1.011"
		},
		{
			"mesh":12,
			"name":"side1.012"
		},
		{
			"mesh":13,
			"name":"side1.013"
		},
		{
			"mesh":14,
			"name":"side1.014"
		}
	],
	"materials":[
		{
			"doubleSided":true,
			"name":"Sides",
			"normalTexture":{
				"extensions":{
					"KHR_texture_transform":{
						"offset":[
							0,
							-2
						],
						"scale":[
							3,
							3
						]
					}
				},
				"index":0,
				"scale":2
			},
			"pbrMetallicRoughness":{
				"baseColorFactor":[
					0.16571606695652008,
					0.8000000715255737,
					0.11187510937452316,
					1
				],
				"metallicFactor":0,
				"roughnessFactor":0.5
			}
		}
	],
	"meshes":[
		{
			"name":"side1",
			"primitives":[
				{
					"attributes":{
						"POSITION":0,
						"NORMAL":1,
						"TEXCOORD_0":2
					},
					"indices":3,
					"material":0
				}
			]
		},
		{
			"name":"side1.001",
			"primitives":[
				{
					"attributes":{
						"POSITION":4,
						"NORMAL":5,
						"TEXCOORD_0":6
					},
					"indices":7,
					"material":0
				}
			]
		},
		{
			"name":"side1.002",
			"primitives":[
				{
					"attributes":{
						"POSITION":8,
						"NORMAL":9,
						"TEXCOORD_0":10
					},
					"indices":11,
					"material":0
				}
			]
		},
		{
			"name":"side1.003",
			"primitives":[
				{
					"attributes":{
						"POSITION":12,
						"NORMAL":13,
						"TEXCOORD_0":14
					},
					"indices":15,
					"material":0
				}
			]
		},
		{
			"name":"side1.004",
			"primitives":[
				{
					"attributes":{
						"POSITION":16,
						"NORMAL":17,
						"TEXCOORD_0":18
					},
					"indices":19,
					"material":0
				}
			]
		},
		{
			"name":"side1.005",
			"primitives":[
				{
					"attributes":{
						"POSITION":20,
						"NORMAL":21,
						"TEXCOORD_0":22
					},
					"indices":23,
					"material":0
				}
			]
		},
		{
			"name":"side1.006",
			"primitives":[
				{
					"attributes":{
						"POSITION":24,
						"NORMAL":25,
						"TEXCOORD_0":26
					},
					"indices":27,
					"material":0
				}
			]
		},
		{
			"name":"side1.007",
			"primitives":[
				{
					"attributes":{
						"POSITION":28,
						"NORMAL":29,
						"TEXCOORD_0":30
					},
					"indices":31,
					"material":0
				}
			]
		},
		{
			"name":"side1.008",
			"primitives":[
				{
					"attributes":{
						"POSITION":32,
						"NORMAL":33,
						"TEXCOORD_0":34
					},
					"indices":35,
					"material":0
				}
			]
		},
		{
			"name":"side1.009",
			"primitives":[
				{
					"attributes":{
						"POSITION":36,
						"NORMAL":37,
						"TEXCOORD_0":38
					},
					"indices":39,
					"material":0
				}
			]
		},
		{
			"name":"side1.010",
			"primitives":[
				{
					"attributes":{
						"POSITION":40,
						"NORMAL":41,
						"TEXCOORD_0":42
					},
					"indices":43,
					"material":0
				}
			]
		},
		{
			"name":"side1.011",
			"primitives":[
				{
					"attributes":{
						"POSITION":44,
						"NORMAL":45,
						"TEXCOORD_0":46
					},
					"indices":47,
					"material":0
				}
			]
		},
		{
			"name":"side1.012",
			"primitives":[
				{
					"attributes":{
						"POSITION":48,
						"NORMAL":49,
						"TEXCOORD_0":50
					},
					"indices":51,
					"material":0
				}
			]
		},
		{
			"name":"side1.013",
			"primitives":[
				{
					"attributes":{
						"POSITION":52,
						"NORMAL":53,
						"TEXCOORD_0":54
					},
					"indices":55,
					"material":0
				}
			]
		},
		{
			"name":"side1.014",
			"primitives":[
				{
					"attributes":{
						"POSITION":56,
						"NORMAL":57,
						"TEXCOORD_0":58
					},
					"indices":59,
					"material":0
				}
			]
		}
	],
	"textures":[
		{
			"sampler":0,
			"source":0
		}
	],
	"images":[
		{
			"mimeType":"image/jpeg",
			"name":"9926-normal",
			"uri":"9926-normal.jpg"
		}
	],
	"accessors":[
		{
			"bufferView":0,
			"componentType":5126,
			"count":182,
			"max":[
				1.0920134782791138,
				-1.9460935592651367,
				1.2247718572616577
			],
			"min":[
				-1.219771385192871,
				-2.183706283569336,
				-1.222523808479309
			],
			"type":"VEC3"
		},
		{
			"bufferView":1,
			"componentType":5126,
			"count":182,
			"type":"VEC3"
		},
		{
			"bufferView":2,
			"componentType":5126,
			"count":182,
			"type":"VEC2"
		},
		{
			"bufferView":3,
			"componentType":5123,
			"count":303,
			"type":"SCALAR"
		},
		{
			"bufferView":4,
			"componentType":5126,
			"count":42,
			"max":[
				1.0920134782791138,
				2.1879866123199463,
				1.2247718572616577
			],
			"min":[
				-1.2197718620300293,
				1.8904962539672852,
				-1.222522497177124
			],
			"type":"VEC3"
		},
		{
			"bufferView":5,
			"componentType":5126,
			"count":42,
			"type":"VEC3"
		},
		{
			"bufferView":6,
			"componentType":5126,
			"count":42,
			"type":"VEC2"
		},
		{
			"bufferView":7,
			"componentType":5123,
			"count":78,
			"type":"SCALAR"
		},
		{
			"bufferView":8,
			"componentType":5126,
			"count":196,
			"max":[
				1.0920134782791138,
				1.8932161331176758,
				1.2247718572616577
			],
			"min":[
				-1.2197718620300293,
				1.597691535949707,
				-1.2225289344787598
			],
			"type":"VEC3"
		},
		{
			"bufferView":9,
			"componentType":5126,
			"count":196,
			"type":"VEC3"
		},
		{
			"bufferView":10,
			"componentType":5126,
			"count":196,
			"type":"VEC2"
		},
		{
			"bufferView":11,
			"componentType":5123,
			"count":321,
			"type":"SCALAR"
		},
		{
			"bufferView":12,
			"componentType":5126,
			"count":154,
			"max":[
				1.0920134782791138,
				1.6017723083496094,
				1.2247718572616577
			],
			"min":[
				-1.2197718620300293,
				1.2959822416305542,
				-1.2225356101989746
			],
			"type":"VEC3"
		},
		{
			"bufferView":13,
			"componentType":5126,
			"count":154,
			"type":"VEC3"
		},
		{
			"bufferView":14,
			"componentType":5126,
			"count":154,
			"type":"VEC2"
		},
		{
			"bufferView":15,
			"componentType":5123,
			"count":279,
			"type":"SCALAR"
		},
		{
			"bufferView":16,
			"componentType":5126,
			"count":260,
			"max":[
				1.0920134782791138,
				1.2996141910552979,
				1.2247718572616577
			],
			"min":[
				-1.2197718620300293,
				0.9976346492767334,
				-1.2225421667099
			],
			"type":"VEC3"
		},
		{
			"bufferView":17,
			"componentType":5126,
			"count":260,
			"type":"VEC3"
		},
		{
			"bufferView":18,
			"componentType":5126,
			"count":260,
			"type":"VEC2"
		},
		{
			"bufferView":19,
			"componentType":5123,
			"count":447,
			"type":"SCALAR"
		},
		{
			"bufferView":20,
			"componentType":5126,
			"count":452,
			"max":[
				1.0920134782791138,
				0.9996101260185242,
				1.2247718572616577
			],
			"min":[
				-1.2197717428207397,
				0.6972368955612183,
				-1.2225488424301147
			],
			"type":"VEC3"
		},
		{
			"bufferView":21,
			"componentType":5126,
			"count":452,
			"type":"VEC3"
		},
		{
			"bufferView":22,
			"componentType":5126,
			"count":452,
			"type":"VEC2"
		},
		{
			"bufferView":23,
			"componentType":5123,
			"count":843,
			"type":"SCALAR"
		},
		{
			"bufferView":24,
			"componentType":5126,
			"count":417,
			"max":[
				1.0920134782791138,
				0.7018951177597046,
				1.2247718572616577
			],
			"min":[
				-1.2197717428207397,
				0.3984202742576599,
				-1.2225550413131714
			],
			"type":"VEC3"
		},
		{
			"bufferView":25,
			"componentType":5126,
			"count":417,
			"type":"VEC3"
		},
		{
			"bufferView":26,
			"componentType":5126,
			"count":417,
			"type":"VEC2"
		},
		{
			"bufferView":27,
			"componentType":5123,
			"count":717,
			"type":"SCALAR"
		},
		{
			"bufferView":28,
			"componentType":5126,
			"count":418,
			"max":[
				1.0920134782791138,
				0.4018321633338928,
				1.2247718572616577
			],
			"min":[
				-1.2197717428207397,
				0.09543204307556152,
				-1.2225550413131714
			],
			"type":"VEC3"
		},
		{
			"bufferView":29,
			"componentType":5126,
			"count":418,
			"type":"VEC3"
		},
		{
			"bufferView":30,
			"componentType":5126,
			"count":418,
			"type":"VEC2"
		},
		{
			"bufferView":31,
			"componentType":5123,
			"count":696,
			"type":"SCALAR"
		},
		{
			"bufferView":32,
			"componentType":5126,
			"count":107,
			"max":[
				1.0920134782791138,
				0.09543246030807495,
				1.2247718572616577
			],
			"min":[
				-1.2197717428207397,
				-0.20237767696380615,
				-1.2225550413131714
			],
			"type":"VEC3"
		},
		{
			"bufferView":33,
			"componentType":5126,
			"count":107,
			"type":"VEC3"
		},
		{
			"bufferView":34,
			"componentType":5126,
			"count":107,
			"type":"VEC2"
		},
		{
			"bufferView":35,
			"componentType":5123,
			"count":180,
			"type":"SCALAR"
		},
		{
			"bufferView":36,
			"componentType":5126,
			"count":200,
			"max":[
				1.0920134782791138,
				-0.20049059391021729,
				1.2247718572616577
			],
			"min":[
				-1.2197718620300293,
				-0.5007782578468323,
				-1.2225550413131714
			],
			"type":"VEC3"
		},
		{
			"bufferView":37,
			"componentType":5126,
			"count":200,
			"type":"VEC3"
		},
		{
			"bufferView":38,
			"componentType":5126,
			"count":200,
			"type":"VEC2"
		},
		{
			"bufferView":39,
			"componentType":5123,
			"count":300,
			"type":"SCALAR"
		},
		{
			"bufferView":40,
			"componentType":5126,
			"count":280,
			"max":[
				1.0920134782791138,
				-0.49901092052459717,
				1.2247718572616577
			],
			"min":[
				-1.2197718620300293,
				-0.8035132884979248,
				-1.2225550413131714
			],
			"type":"VEC3"
		},
		{
			"bufferView":41,
			"componentType":5126,
			"count":280,
			"type":"VEC3"
		},
		{
			"bufferView":42,
			"componentType":5126,
			"count":280,
			"type":"VEC2"
		},
		{
			"bufferView":43,
			"componentType":5123,
			"count":414,
			"type":"SCALAR"
		},
		{
			"bufferView":44,
			"componentType":5126,
			"count":779,
			"max":[
				1.0920134782791138,
				-0.801253616809845,
				1.2247718572616577
			],
			"min":[
				-1.2197717428207397,
				-1.1049350500106812,
				-1.2225550413131714
			],
			"type":"VEC3"
		},
		{
			"bufferView":45,
			"componentType":5126,
			"count":779,
			"type":"VEC3"
		},
		{
			"bufferView":46,
			"componentType":5126,
			"count":779,
			"type":"VEC2"
		},
		{
			"bufferView":47,
			"componentType":5123,
			"count":1179,
			"type":"SCALAR"
		},
		{
			"bufferView":48,
			"componentType":5126,
			"count":1100,
			"max":[
				1.0920134782791138,
				-1.1049065589904785,
				1.2247718572616577
			],
			"min":[
				-1.2197717428207397,
				-1.4027923345565796,
				-1.222554326057434
			],
			"type":"VEC3"
		},
		{
			"bufferView":49,
			"componentType":5126,
			"count":1100,
			"type":"VEC3"
		},
		{
			"bufferView":50,
			"componentType":5126,
			"count":1100,
			"type":"VEC2"
		},
		{
			"bufferView":51,
			"componentType":5123,
			"count":1656,
			"type":"SCALAR"
		},
		{
			"bufferView":52,
			"componentType":5126,
			"count":1010,
			"max":[
				1.0920134782791138,
				-1.3978437185287476,
				1.2247718572616577
			],
			"min":[
				-1.2197716236114502,
				-1.703673243522644,
				-1.2225435972213745
			],
			"type":"VEC3"
		},
		{
			"bufferView":53,
			"componentType":5126,
			"count":1010,
			"type":"VEC3"
		},
		{
			"bufferView":54,
			"componentType":5126,
			"count":1010,
			"type":"VEC2"
		},
		{
			"bufferView":55,
			"componentType":5123,
			"count":1473,
			"type":"SCALAR"
		},
		{
			"bufferView":56,
			"componentType":5126,
			"count":287,
			"max":[
				1.0920134782791138,
				-1.7001651525497437,
				1.2247718572616577
			],
			"min":[
				-1.219771385192871,
				-1.9527106285095215,
				-1.2225327491760254
			],
			"type":"VEC3"
		},
		{
			"bufferView":57,
			"componentType":5126,
			"count":287,
			"type":"VEC3"
		},
		{
			"bufferView":58,
			"componentType":5126,
			"count":287,
			"type":"VEC2"
		},
		{
			"bufferView":59,
			"componentType":5123,
			"count":555,
			"type":"SCALAR"
		}
	],
	"bufferViews":[
		{
			"buffer":0,
			"byteLength":2184,
			"byteOffset":0,
			"target":34962
		},
		{
			"buffer":0,
			"byteLength":2184,
			"byteOffset":2184,
			"target":34962
		},
		{
			"buffer":0,
			"byteLength":1456,
			"byteOffset":4368,
			"target":34962
		},
		{
			"buffer":0,
			"byteLength":606,
			"byteOffset":5824,
			"target":34963
		},
		{
			"buffer":0,
			"byteLength":504,
			"byteOffset":6432,
			"target":34962
		},
		{
			"buffer":0,
			"byteLength":504,
			"byteOffset":6936,
			"target":34962
		},
		{
			"buffer":0,
			"byteLength":336,
			"byteOffset":7440,
			"target":34962
		},
		{
			"buffer":0,
			"byteLength":156,
			"byteOffset":7776,
			"target":34963
		},
		{
			"buffer":0,
			"byteLength":2352,
			"byteOffset":7932,
			"target":34962
		},
		{
			"buffer":0,
			"byteLength":2352,
			"byteOffset":10284,
			"target":34962
		},
		{
			"buffer":0,
			"byteLength":1568,
			"byteOffset":12636,
			"target":34962
		},
		{
			"buffer":0,
			"byteLength":642,
			"byteOffset":14204,
			"target":34963
		},
		{
			"buffer":0,
			"byteLength":1848,
			"byteOffset":14848,
			"target":34962
		},
		{
			"buffer":0,
			"byteLength":1848,
			"byteOffset":16696,
			"target":34962
		},
		{
			"buffer":0,
			"byteLength":1232,
			"byteOffset":18544,
			"target":34962
		},
		{
			"buffer":0,
			"byteLength":558,
			"byteOffset":19776,
			"target":34963
		},
		{
			"buffer":0,
			"byteLength":3120,
			"byteOffset":20336,
			"target":34962
		},
		{
			"buffer":0,
			"byteLength":3120,
			"byteOffset":23456,
			"target":34962
		},
		{
			"buffer":0,
			"byteLength":2080,
			"byteOffset":26576,
			"target":34962
		},
		{
			"buffer":0,
			"byteLength":894,
			"byteOffset":28656,
			"target":34963
		},
		{
			"buffer":0,
			"byteLength":5424,
			"byteOffset":29552,
			"target":34962
		},
		{
			"buffer":0,
			"byteLength":5424,
			"byteOffset":34976,
			"target":34962
		},
		{
			"buffer":0,
			"byteLength":3616,
			"byteOffset":40400,
			"target":34962
		},
		{
			"buffer":0,
			"byteLength":1686,
			"byteOffset":44016,
			"target":34963
		},
		{
			"buffer":0,
			"byteLength":5004,
			"byteOffset":45704,
			"target":34962
		},
		{
			"buffer":0,
			"byteLength":5004,
			"byteOffset":50708,
			"target":34962
		},
		{
			"buffer":0,
			"byteLength":3336,
			"byteOffset":55712,
			"target":34962
		},
		{
			"buffer":0,
			"byteLength":1434,
			"byteOffset":59048,
			"target":34963
		},
		{
			"buffer":0,
			"byteLength":5016,
			"byteOffset":60484,
			"target":34962
		},
		{
			"buffer":0,
			"byteLength":5016,
			"byteOffset":65500,
			"target":34962
		},
		{
			"buffer":0,
			"byteLength":3344,
			"byteOffset":70516,
			"target":34962
		},
		{
			"buffer":0,
			"byteLength":1392,
			"byteOffset":73860,
			"target":34963
		},
		{
			"buffer":0,
			"byteLength":1284,
			"byteOffset":75252,
			"target":34962
		},
		{
			"buffer":0,
			"byteLength":1284,
			"byteOffset":76536,
			"target":34962
		},
		{
			"buffer":0,
			"byteLength":856,
			"byteOffset":77820,
			"target":34962
		},
		{
			"buffer":0,
			"byteLength":360,
			"byteOffset":78676,
			"target":34963
		},
		{
			"buffer":0,
			"byteLength":2400,
			"byteOffset":79036,
			"target":34962
		},
		{
			"buffer":0,
			"byteLength":2400,
			"byteOffset":81436,
			"target":34962
		},
		{
			"buffer":0,
			"byteLength":1600,
			"byteOffset":83836,
			"target":34962
		},
		{
			"buffer":0,
			"byteLength":600,
			"byteOffset":85436,
			"target":34963
		},
		{
			"buffer":0,
			"byteLength":3360,
			"byteOffset":86036,
			"target":34962
		},
		{
			"buffer":0,
			"byteLength":3360,
			"byteOffset":89396,
			"target":34962
		},
		{
			"buffer":0,
			"byteLength":2240,
			"byteOffset":92756,
			"target":34962
		},
		{
			"buffer":0,
			"byteLength":828,
			"byteOffset":94996,
			"target":34963
		},
		{
			"buffer":0,
			"byteLength":9348,
			"byteOffset":95824,
			"target":34962
		},
		{
			"buffer":0,
			"byteLength":9348,
			"byteOffset":105172,
			"target":34962
		},
		{
			"buffer":0,
			"byteLength":6232,
			"byteOffset":114520,
			"target":34962
		},
		{
			"buffer":0,
			"byteLength":2358,
			"byteOffset":120752,
			"target":34963
		},
		{
			"buffer":0,
			"byteLength":13200,
			"byteOffset":123112,
			"target":34962
		},
		{
			"buffer":0,
			"byteLength":13200,
			"byteOffset":136312,
			"target":34962
		},
		{
			"buffer":0,
			"byteLength":8800,
			"byteOffset":149512,
			"target":34962
		},
		{
			"buffer":0,
			"byteLength":3312,
			"byteOffset":158312,
			"target":34963
		},
		{
			"buffer":0,
			"byteLength":12120,
			"byteOffset":161624,
			"target":34962
		},
		{
			"buffer":0,
			"byteLength":12120,
			"byteOffset":173744,
			"target":34962
		},
		{
			"buffer":0,
			"byteLength":8080,
			"byteOffset":185864,
			"target":34962
		},
		{
			"buffer":0,
			"byteLength":2946,
			"byteOffset":193944,
			"target":34963
		},
		{
			"buffer":0,
			"byteLength":3444,
			"byteOffset":196892,
			"target":34962
		},
		{
			"buffer":0,
			"byteLength":3444,
			"byteOffset":200336,
			"target":34962
		},
		{
			"buffer":0,
			"byteLength":2296,
			"byteOffset":203780,
			"target":34962
		},
		{
			"buffer":0,
			"byteLength":1110,
			"byteOffset":206076,
			"target":34963
		}
	],
	"samplers":[
		{
			"magFilter":9729,
			"minFilter":9987
		}
	],
	"buffers":[
		{
			"byteLength":207188,
			"uri":"talisman4.bin"
		}
	]
}
