{
	"asset":{
		"generator":"Khronos glTF Blender I/O v3.6.27",
		"version":"2.0"
	},
	"scene":0,
	"scenes":[
		{
			"name":"Scene",
			"nodes":[
				0,
				1,
				2,
				3,
				4,
				5,
				6,
				7,
				8,
				9,
				10,
				11,
				12,
				13,
				14
			]
		}
	],
	"nodes":[
		{
			"mesh":0,
			"name":"side2.015"
		},
		{
			"mesh":1,
			"name":"side2.001"
		},
		{
			"mesh":2,
			"name":"side2.002"
		},
		{
			"mesh":3,
			"name":"side2.003"
		},
		{
			"mesh":4,
			"name":"side2.004"
		},
		{
			"mesh":5,
			"name":"side2.005"
		},
		{
			"mesh":6,
			"name":"side2.006"
		},
		{
			"mesh":7,
			"name":"side2.007"
		},
		{
			"mesh":8,
			"name":"side2.008"
		},
		{
			"mesh":9,
			"name":"side2.009"
		},
		{
			"mesh":10,
			"name":"side2.010"
		},
		{
			"mesh":11,
			"name":"side2.011"
		},
		{
			"mesh":12,
			"name":"side2.012"
		},
		{
			"mesh":13,
			"name":"side2.013"
		},
		{
			"mesh":14,
			"name":"side2.014"
		}
	],
	"materials":[
		{
			"doubleSided":true,
			"name":"Mask",
			"pbrMetallicRoughness":{
				"baseColorFactor":[
					0.04479823261499405,
					0.04479823261499405,
					0.04479823261499405,
					1
				],
				"metallicFactor":0,
				"roughnessFactor":0.5
			}
		}
	],
	"meshes":[
		{
			"name":"side2",
			"primitives":[
				{
					"attributes":{
						"POSITION":0,
						"NORMAL":1,
						"TEXCOORD_0":2
					},
					"indices":3,
					"material":0
				}
			]
		},
		{
			"name":"side2.001",
			"primitives":[
				{
					"attributes":{
						"POSITION":4,
						"NORMAL":5,
						"TEXCOORD_0":6
					},
					"indices":7,
					"material":0
				}
			]
		},
		{
			"name":"side2.002",
			"primitives":[
				{
					"attributes":{
						"POSITION":8,
						"NORMAL":9,
						"TEXCOORD_0":10
					},
					"indices":11,
					"material":0
				}
			]
		},
		{
			"name":"side2.003",
			"primitives":[
				{
					"attributes":{
						"POSITION":12,
						"NORMAL":13,
						"TEXCOORD_0":14
					},
					"indices":15,
					"material":0
				}
			]
		},
		{
			"name":"side2.004",
			"primitives":[
				{
					"attributes":{
						"POSITION":16,
						"NORMAL":17,
						"TEXCOORD_0":18
					},
					"indices":19,
					"material":0
				}
			]
		},
		{
			"name":"side2.005",
			"primitives":[
				{
					"attributes":{
						"POSITION":20,
						"NORMAL":21,
						"TEXCOORD_0":22
					},
					"indices":23,
					"material":0
				}
			]
		},
		{
			"name":"side2.006",
			"primitives":[
				{
					"attributes":{
						"POSITION":24,
						"NORMAL":25,
						"TEXCOORD_0":26
					},
					"indices":27,
					"material":0
				}
			]
		},
		{
			"name":"side2.007",
			"primitives":[
				{
					"attributes":{
						"POSITION":28,
						"NORMAL":29,
						"TEXCOORD_0":30
					},
					"indices":31,
					"material":0
				}
			]
		},
		{
			"name":"side2.008",
			"primitives":[
				{
					"attributes":{
						"POSITION":32,
						"NORMAL":33,
						"TEXCOORD_0":34
					},
					"indices":35,
					"material":0
				}
			]
		},
		{
			"name":"side2.009",
			"primitives":[
				{
					"attributes":{
						"POSITION":36,
						"NORMAL":37,
						"TEXCOORD_0":38
					},
					"indices":39,
					"material":0
				}
			]
		},
		{
			"name":"side2.010",
			"primitives":[
				{
					"attributes":{
						"POSITION":40,
						"NORMAL":41,
						"TEXCOORD_0":42
					},
					"indices":43,
					"material":0
				}
			]
		},
		{
			"name":"side2.011",
			"primitives":[
				{
					"attributes":{
						"POSITION":44,
						"NORMAL":45,
						"TEXCOORD_0":46
					},
					"indices":47,
					"material":0
				}
			]
		},
		{
			"name":"side2.012",
			"primitives":[
				{
					"attributes":{
						"POSITION":48,
						"NORMAL":49,
						"TEXCOORD_0":50
					},
					"indices":51,
					"material":0
				}
			]
		},
		{
			"name":"side2.013",
			"primitives":[
				{
					"attributes":{
						"POSITION":52,
						"NORMAL":53,
						"TEXCOORD_0":54
					},
					"indices":55,
					"material":0
				}
			]
		},
		{
			"name":"side2.014",
			"primitives":[
				{
					"attributes":{
						"POSITION":56,
						"NORMAL":57,
						"TEXCOORD_0":58
					},
					"indices":59,
					"material":0
				}
			]
		}
	],
	"accessors":[
		{
			"bufferView":0,
			"componentType":5126,
			"count":72,
			"max":[
				1.218097448348999,
				-1.9490801095962524,
				1.2253804206848145
			],
			"min":[
				-1.2236288785934448,
				-2.183706283569336,
				-1.1042351722717285
			],
			"type":"VEC3"
		},
		{
			"bufferView":1,
			"componentType":5126,
			"count":72,
			"type":"VEC3"
		},
		{
			"bufferView":2,
			"componentType":5126,
			"count":72,
			"type":"VEC2"
		},
		{
			"bufferView":3,
			"componentType":5123,
			"count":123,
			"type":"SCALAR"
		},
		{
			"bufferView":4,
			"componentType":5126,
			"count":51,
			"max":[
				1.2180980443954468,
				2.1878035068511963,
				1.225380778312683
			],
			"min":[
				-1.223659873008728,
				1.8904917240142822,
				-1.1042351722717285
			],
			"type":"VEC3"
		},
		{
			"bufferView":5,
			"componentType":5126,
			"count":51,
			"type":"VEC3"
		},
		{
			"bufferView":6,
			"componentType":5126,
			"count":51,
			"type":"VEC2"
		},
		{
			"bufferView":7,
			"componentType":5123,
			"count":117,
			"type":"SCALAR"
		},
		{
			"bufferView":8,
			"componentType":5126,
			"count":136,
			"max":[
				1.2181055545806885,
				1.893364429473877,
				1.225380778312683
			],
			"min":[
				-1.2236708402633667,
				1.597684621810913,
				-1.1042351722717285
			],
			"type":"VEC3"
		},
		{
			"bufferView":9,
			"componentType":5126,
			"count":136,
			"type":"VEC3"
		},
		{
			"bufferView":10,
			"componentType":5126,
			"count":136,
			"type":"VEC2"
		},
		{
			"bufferView":11,
			"componentType":5123,
			"count":324,
			"type":"SCALAR"
		},
		{
			"bufferView":12,
			"componentType":5126,
			"count":110,
			"max":[
				1.2181133031845093,
				1.6019948720932007,
				1.225380778312683
			],
			"min":[
				-1.2236708402633667,
				1.295976161956787,
				-1.1042351722717285
			],
			"type":"VEC3"
		},
		{
			"bufferView":13,
			"componentType":5126,
			"count":110,
			"type":"VEC3"
		},
		{
			"bufferView":14,
			"componentType":5126,
			"count":110,
			"type":"VEC2"
		},
		{
			"bufferView":15,
			"componentType":5123,
			"count":270,
			"type":"SCALAR"
		},
		{
			"bufferView":16,
			"componentType":5126,
			"count":139,
			"max":[
				1.2181199789047241,
				1.2998123168945312,
				1.225380778312683
			],
			"min":[
				-1.2236708402633667,
				0.9976346492767334,
				-1.1042351722717285
			],
			"type":"VEC3"
		},
		{
			"bufferView":17,
			"componentType":5126,
			"count":139,
			"type":"VEC3"
		},
		{
			"bufferView":18,
			"componentType":5126,
			"count":139,
			"type":"VEC2"
		},
		{
			"bufferView":19,
			"componentType":5123,
			"count":327,
			"type":"SCALAR"
		},
		{
			"bufferView":20,
			"componentType":5126,
			"count":121,
			"max":[
				1.2181199789047241,
				0.9993350505828857,
				1.225380778312683
			],
			"min":[
				-1.2236708402633667,
				0.6973236203193665,
				-1.1042351722717285
			],
			"type":"VEC3"
		},
		{
			"bufferView":21,
			"componentType":5126,
			"count":121,
			"type":"VEC3"
		},
		{
			"bufferView":22,
			"componentType":5126,
			"count":121,
			"type":"VEC2"
		},
		{
			"bufferView":23,
			"componentType":5123,
			"count":252,
			"type":"SCALAR"
		},
		{
			"bufferView":24,
			"componentType":5126,
			"count":233,
			"max":[
				1.2181199789047241,
				0.6990327835083008,
				1.2253806591033936
			],
			"min":[
				-1.2236708402633667,
				0.3984174132347107,
				-1.1042351722717285
			],
			"type":"VEC3"
		},
		{
			"bufferView":25,
			"componentType":5126,
			"count":233,
			"type":"VEC3"
		},
		{
			"bufferView":26,
			"componentType":5126,
			"count":233,
			"type":"VEC2"
		},
		{
			"bufferView":27,
			"componentType":5123,
			"count":453,
			"type":"SCALAR"
		},
		{
			"bufferView":28,
			"componentType":5126,
			"count":535,
			"max":[
				1.2181199789047241,
				0.40023428201675415,
				1.2253806591033936
			],
			"min":[
				-1.2236708402633667,
				0.09541942179203033,
				-1.1042351722717285
			],
			"type":"VEC3"
		},
		{
			"bufferView":29,
			"componentType":5126,
			"count":535,
			"type":"VEC3"
		},
		{
			"bufferView":30,
			"componentType":5126,
			"count":535,
			"type":"VEC2"
		},
		{
			"bufferView":31,
			"componentType":5123,
			"count":888,
			"type":"SCALAR"
		},
		{
			"bufferView":32,
			"componentType":5126,
			"count":453,
			"max":[
				1.2181199789047241,
				0.09543246030807495,
				1.2253806591033936
			],
			"min":[
				-1.2236708402633667,
				-0.20238085091114044,
				-1.1042351722717285
			],
			"type":"VEC3"
		},
		{
			"bufferView":33,
			"componentType":5126,
			"count":453,
			"type":"VEC3"
		},
		{
			"bufferView":34,
			"componentType":5126,
			"count":453,
			"type":"VEC2"
		},
		{
			"bufferView":35,
			"componentType":5123,
			"count":807,
			"type":"SCALAR"
		},
		{
			"bufferView":36,
			"componentType":5126,
			"count":470,
			"max":[
				1.2181199789047241,
				-0.2003875970840454,
				1.2253806591033936
			],
			"min":[
				-1.2236708402633667,
				-0.500781238079071,
				-1.1042351722717285
			],
			"type":"VEC3"
		},
		{
			"bufferView":37,
			"componentType":5126,
			"count":470,
			"type":"VEC3"
		},
		{
			"bufferView":38,
			"componentType":5126,
			"count":470,
			"type":"VEC2"
		},
		{
			"bufferView":39,
			"componentType":5123,
			"count":825,
			"type":"SCALAR"
		},
		{
			"bufferView":40,
			"componentType":5126,
			"count":774,
			"max":[
				1.2181199789047241,
				-0.49789366126060486,
				1.2253806591033936
			],
			"min":[
				-1.2236708402633667,
				-0.8035163879394531,
				-1.1042351722717285
			],
			"type":"VEC3"
		},
		{
			"bufferView":41,
			"componentType":5126,
			"count":774,
			"type":"VEC3"
		},
		{
			"bufferView":42,
			"componentType":5126,
			"count":774,
			"type":"VEC2"
		},
		{
			"bufferView":43,
			"componentType":5123,
			"count":1437,
			"type":"SCALAR"
		},
		{
			"bufferView":44,
			"componentType":5126,
			"count":341,
			"max":[
				1.2181199789047241,
				-0.7997350692749023,
				1.2253806591033936
			],
			"min":[
				-1.2236708402633667,
				-1.1049067974090576,
				-1.1042351722717285
			],
			"type":"VEC3"
		},
		{
			"bufferView":45,
			"componentType":5126,
			"count":341,
			"type":"VEC3"
		},
		{
			"bufferView":46,
			"componentType":5126,
			"count":341,
			"type":"VEC2"
		},
		{
			"bufferView":47,
			"componentType":5123,
			"count":654,
			"type":"SCALAR"
		},
		{
			"bufferView":48,
			"componentType":5126,
			"count":162,
			"max":[
				1.2181199789047241,
				-1.1049065589904785,
				1.2253806591033936
			],
			"min":[
				-1.2236708402633667,
				-1.4027951955795288,
				-1.1042351722717285
			],
			"type":"VEC3"
		},
		{
			"bufferView":49,
			"componentType":5126,
			"count":162,
			"type":"VEC3"
		},
		{
			"bufferView":50,
			"componentType":5126,
			"count":162,
			"type":"VEC2"
		},
		{
			"bufferView":51,
			"componentType":5123,
			"count":357,
			"type":"SCALAR"
		},
		{
			"bufferView":52,
			"componentType":5126,
			"count":175,
			"max":[
				1.2181199789047241,
				-1.4009945392608643,
				1.2253806591033936
			],
			"min":[
				-1.2236707210540771,
				-1.703679084777832,
				-1.1042351722717285
			],
			"type":"VEC3"
		},
		{
			"bufferView":53,
			"componentType":5126,
			"count":175,
			"type":"VEC3"
		},
		{
			"bufferView":54,
			"componentType":5126,
			"count":175,
			"type":"VEC2"
		},
		{
			"bufferView":55,
			"componentType":5123,
			"count":387,
			"type":"SCALAR"
		},
		{
			"bufferView":56,
			"componentType":5126,
			"count":155,
			"max":[
				1.2181199789047241,
				-1.6993236541748047,
				1.225380539894104
			],
			"min":[
				-1.223650574684143,
				-1.95271635055542,
				-1.1042351722717285
			],
			"type":"VEC3"
		},
		{
			"bufferView":57,
			"componentType":5126,
			"count":155,
			"type":"VEC3"
		},
		{
			"bufferView":58,
			"componentType":5126,
			"count":155,
			"type":"VEC2"
		},
		{
			"bufferView":59,
			"componentType":5123,
			"count":396,
			"type":"SCALAR"
		}
	],
	"bufferViews":[
		{
			"buffer":0,
			"byteLength":864,
			"byteOffset":0,
			"target":34962
		},
		{
			"buffer":0,
			"byteLength":864,
			"byteOffset":864,
			"target":34962
		},
		{
			"buffer":0,
			"byteLength":576,
			"byteOffset":1728,
			"target":34962
		},
		{
			"buffer":0,
			"byteLength":246,
			"byteOffset":2304,
			"target":34963
		},
		{
			"buffer":0,
			"byteLength":612,
			"byteOffset":2552,
			"target":34962
		},
		{
			"buffer":0,
			"byteLength":612,
			"byteOffset":3164,
			"target":34962
		},
		{
			"buffer":0,
			"byteLength":408,
			"byteOffset":3776,
			"target":34962
		},
		{
			"buffer":0,
			"byteLength":234,
			"byteOffset":4184,
			"target":34963
		},
		{
			"buffer":0,
			"byteLength":1632,
			"byteOffset":4420,
			"target":34962
		},
		{
			"buffer":0,
			"byteLength":1632,
			"byteOffset":6052,
			"target":34962
		},
		{
			"buffer":0,
			"byteLength":1088,
			"byteOffset":7684,
			"target":34962
		},
		{
			"buffer":0,
			"byteLength":648,
			"byteOffset":8772,
			"target":34963
		},
		{
			"buffer":0,
			"byteLength":1320,
			"byteOffset":9420,
			"target":34962
		},
		{
			"buffer":0,
			"byteLength":1320,
			"byteOffset":10740,
			"target":34962
		},
		{
			"buffer":0,
			"byteLength":880,
			"byteOffset":12060,
			"target":34962
		},
		{
			"buffer":0,
			"byteLength":540,
			"byteOffset":12940,
			"target":34963
		},
		{
			"buffer":0,
			"byteLength":1668,
			"byteOffset":13480,
			"target":34962
		},
		{
			"buffer":0,
			"byteLength":1668,
			"byteOffset":15148,
			"target":34962
		},
		{
			"buffer":0,
			"byteLength":1112,
			"byteOffset":16816,
			"target":34962
		},
		{
			"buffer":0,
			"byteLength":654,
			"byteOffset":17928,
			"target":34963
		},
		{
			"buffer":0,
			"byteLength":1452,
			"byteOffset":18584,
			"target":34962
		},
		{
			"buffer":0,
			"byteLength":1452,
			"byteOffset":20036,
			"target":34962
		},
		{
			"buffer":0,
			"byteLength":968,
			"byteOffset":21488,
			"target":34962
		},
		{
			"buffer":0,
			"byteLength":504,
			"byteOffset":22456,
			"target":34963
		},
		{
			"buffer":0,
			"byteLength":2796,
			"byteOffset":22960,
			"target":34962
		},
		{
			"buffer":0,
			"byteLength":2796,
			"byteOffset":25756,
			"target":34962
		},
		{
			"buffer":0,
			"byteLength":1864,
			"byteOffset":28552,
			"target":34962
		},
		{
			"buffer":0,
			"byteLength":906,
			"byteOffset":30416,
			"target":34963
		},
		{
			"buffer":0,
			"byteLength":6420,
			"byteOffset":31324,
			"target":34962
		},
		{
			"buffer":0,
			"byteLength":6420,
			"byteOffset":37744,
			"target":34962
		},
		{
			"buffer":0,
			"byteLength":4280,
			"byteOffset":44164,
			"target":34962
		},
		{
			"buffer":0,
			"byteLength":1776,
			"byteOffset":48444,
			"target":34963
		},
		{
			"buffer":0,
			"byteLength":5436,
			"byteOffset":50220,
			"target":34962
		},
		{
			"buffer":0,
			"byteLength":5436,
			"byteOffset":55656,
			"target":34962
		},
		{
			"buffer":0,
			"byteLength":3624,
			"byteOffset":61092,
			"target":34962
		},
		{
			"buffer":0,
			"byteLength":1614,
			"byteOffset":64716,
			"target":34963
		},
		{
			"buffer":0,
			"byteLength":5640,
			"byteOffset":66332,
			"target":34962
		},
		{
			"buffer":0,
			"byteLength":5640,
			"byteOffset":71972,
			"target":34962
		},
		{
			"buffer":0,
			"byteLength":3760,
			"byteOffset":77612,
			"target":34962
		},
		{
			"buffer":0,
			"byteLength":1650,
			"byteOffset":81372,
			"target":34963
		},
		{
			"buffer":0,
			"byteLength":9288,
			"byteOffset":83024,
			"target":34962
		},
		{
			"buffer":0,
			"byteLength":9288,
			"byteOffset":92312,
			"target":34962
		},
		{
			"buffer":0,
			"byteLength":6192,
			"byteOffset":101600,
			"target":34962
		},
		{
			"buffer":0,
			"byteLength":2874,
			"byteOffset":107792,
			"target":34963
		},
		{
			"buffer":0,
			"byteLength":4092,
			"byteOffset":110668,
			"target":34962
		},
		{
			"buffer":0,
			"byteLength":4092,
			"byteOffset":114760,
			"target":34962
		},
		{
			"buffer":0,
			"byteLength":2728,
			"byteOffset":118852,
			"target":34962
		},
		{
			"buffer":0,
			"byteLength":1308,
			"byteOffset":121580,
			"target":34963
		},
		{
			"buffer":0,
			"byteLength":1944,
			"byteOffset":122888,
			"target":34962
		},
		{
			"buffer":0,
			"byteLength":1944,
			"byteOffset":124832,
			"target":34962
		},
		{
			"buffer":0,
			"byteLength":1296,
			"byteOffset":126776,
			"target":34962
		},
		{
			"buffer":0,
			"byteLength":714,
			"byteOffset":128072,
			"target":34963
		},
		{
			"buffer":0,
			"byteLength":2100,
			"byteOffset":128788,
			"target":34962
		},
		{
			"buffer":0,
			"byteLength":2100,
			"byteOffset":130888,
			"target":34962
		},
		{
			"buffer":0,
			"byteLength":1400,
			"byteOffset":132988,
			"target":34962
		},
		{
			"buffer":0,
			"byteLength":774,
			"byteOffset":134388,
			"target":34963
		},
		{
			"buffer":0,
			"byteLength":1860,
			"byteOffset":135164,
			"target":34962
		},
		{
			"buffer":0,
			"byteLength":1860,
			"byteOffset":137024,
			"target":34962
		},
		{
			"buffer":0,
			"byteLength":1240,
			"byteOffset":138884,
			"target":34962
		},
		{
			"buffer":0,
			"byteLength":792,
			"byteOffset":140124,
			"target":34963
		}
	],
	"buffers":[
		{
			"byteLength":140916,
			"uri":"talisman_mask4.bin"
		}
	]
}
