{
    "asset" : {
        "generator" : "Khronos glTF Blender I/O v1.6.16",
        "version" : "2.0"
    },
    "scene" : 0,
    "scenes" : [
        {
            "name" : "Scene",
            "nodes" : [
                0
            ]
        }
    ],
    "nodes" : [
        {
            "mesh" : 0,
            "name" : "BezierCurve.003_BezierCurve.004",
            "rotation" : [
                0.7493004202842712,
                -0.07498917728662491,
                0.5219957232475281,
                0.4005570411682129
            ],
            "scale" : [
                16.207836151123047,
                16.20783805847168,
                16.207836151123047
            ],
            "translation" : [
                0.24961471557617188,
                2.634160041809082,
                -0.45418182015419006
            ]
        }
    ],
    "materials" : [
        {
            "doubleSided" : true,
            "name" : "Procedural Scratched Metal",
            "normalTexture" : {
                "index" : 0
            },
            "pbrMetallicRoughness" : {
                "baseColorTexture" : {
                    "index" : 1
                },
                "metallicRoughnessTexture" : {
                    "index" : 2
                }
            }
        }
    ],
    "meshes" : [
        {
            "name" : "BezierCurve.003_BezierCurve.004",
            "primitives" : [
                {
                    "attributes" : {
                        "POSITION" : 0,
                        "NORMAL" : 1,
                        "TEXCOORD_0" : 2
                    },
                    "indices" : 3,
                    "material" : 0
                }
            ]
        }
    ],
    "textures" : [
        {
            "sampler" : 0,
            "source" : 0
        },
        {
            "sampler" : 0,
            "source" : 1
        },
        {
            "sampler" : 0,
            "source" : 2
        }
    ],
    "images" : [
        {
            "mimeType" : "image/png",
            "name" : "GASsignatureNormal",
            "uri" : "GASsignatureNormal.png"
        },
        {
            "mimeType" : "image/jpeg",
            "name" : "Metal_Semirough_01_basecolor",
            "uri" : "Metal_Semirough_01_basecolor.jpg"
        },
        {
            "mimeType" : "image/png",
            "name" : "Metal_Semirough_01_metallic-Metal_Semirough_01_roughness",
            "uri" : "Metal_Semirough_01_metallic-Metal_Semirough_01_roughness.png"
        }
    ],
    "accessors" : [
        {
            "bufferView" : 0,
            "componentType" : 5126,
            "count" : 1901,
            "max" : [
                0.08675139397382736,
                0.07128452509641647,
                0.06901019811630249
            ],
            "min" : [
                -0.04492960125207901,
                -0.0365084707736969,
                -0.035370826721191406
            ],
            "type" : "VEC3"
        },
        {
            "bufferView" : 1,
            "componentType" : 5126,
            "count" : 1901,
            "type" : "VEC3"
        },
        {
            "bufferView" : 2,
            "componentType" : 5126,
            "count" : 1901,
            "type" : "VEC2"
        },
        {
            "bufferView" : 3,
            "componentType" : 5123,
            "count" : 10974,
            "type" : "SCALAR"
        }
    ],
    "bufferViews" : [
        {
            "buffer" : 0,
            "byteLength" : 22812,
            "byteOffset" : 0
        },
        {
            "buffer" : 0,
            "byteLength" : 22812,
            "byteOffset" : 22812
        },
        {
            "buffer" : 0,
            "byteLength" : 15208,
            "byteOffset" : 45624
        },
        {
            "buffer" : 0,
            "byteLength" : 21948,
            "byteOffset" : 60832
        }
    ],
    "samplers" : [
        {
            "magFilter" : 9729,
            "minFilter" : 9987
        }
    ],
    "buffers" : [
        {
            "byteLength" : 82780,
            "uri" : "GAS9.bin"
        }
    ]
}
