{
    "asset" : {
        "generator" : "Khronos glTF Blender I/O v1.7.33",
        "version" : "2.0"
    },
    "extensionsUsed" : [
        "KHR_texture_transform"
    ],
    "extensionsRequired" : [
        "KHR_texture_transform"
    ],
    "scene" : 0,
    "scenes" : [
        {
            "name" : "Scene",
            "nodes" : [
                0,
                1
            ]
        }
    ],
    "nodes" : [
        {
            "mesh" : 0,
            "name" : "A6"
        },
        {
            "mesh" : 1,
            "name" : "A5"
        }
    ],
    "materials" : [
        {
            "doubleSided" : true,
            "name" : "A6",
            "normalTexture" : {
                "extensions" : {
                    "KHR_texture_transform" : {
                        "offset" : [
                            0,
                            -1
                        ]
                    }
                },
                "index" : 0,
                "scale" : 0.10000000149011612
            },
            "pbrMetallicRoughness" : {
                "baseColorTexture" : {
                    "extensions" : {
                        "KHR_texture_transform" : {
                            "offset" : [
                                0,
                                -1
                            ]
                        }
                    },
                    "index" : 1
                },
                "metallicFactor" : 0.43236714601516724,
                "metallicRoughnessTexture" : {
                    "extensions" : {
                        "KHR_texture_transform" : {
                            "offset" : [
                                0,
                                -1
                            ]
                        }
                    },
                    "index" : 2
                }
            }
        },
        {
            "doubleSided" : true,
            "name" : "paper.001",
            "pbrMetallicRoughness" : {
                "metallicFactor" : 0
            }
        },
        {
            "doubleSided" : true,
            "name" : "A5",
            "normalTexture" : {
                "extensions" : {
                    "KHR_texture_transform" : {
                        "offset" : [
                            0,
                            -1
                        ]
                    }
                },
                "index" : 3,
                "scale" : 0.10000000149011612
            },
            "pbrMetallicRoughness" : {
                "baseColorTexture" : {
                    "extensions" : {
                        "KHR_texture_transform" : {
                            "offset" : [
                                0,
                                -1
                            ]
                        }
                    },
                    "index" : 4
                },
                "metallicFactor" : 0.43236714601516724,
                "metallicRoughnessTexture" : {
                    "extensions" : {
                        "KHR_texture_transform" : {
                            "offset" : [
                                0,
                                -1
                            ]
                        }
                    },
                    "index" : 5
                }
            }
        }
    ],
    "meshes" : [
        {
            "name" : "A6",
            "primitives" : [
                {
                    "attributes" : {
                        "POSITION" : 0,
                        "NORMAL" : 1,
                        "TEXCOORD_0" : 2
                    },
                    "indices" : 3,
                    "material" : 0
                }
            ]
        },
        {
            "name" : "A5.001",
            "primitives" : [
                {
                    "attributes" : {
                        "POSITION" : 4,
                        "NORMAL" : 5,
                        "TEXCOORD_0" : 6
                    },
                    "indices" : 7,
                    "material" : 1
                },
                {
                    "attributes" : {
                        "POSITION" : 8,
                        "NORMAL" : 9,
                        "TEXCOORD_0" : 10
                    },
                    "indices" : 11,
                    "material" : 2
                }
            ]
        }
    ],
    "textures" : [
        {
            "sampler" : 0,
            "source" : 0
        },
        {
            "sampler" : 0,
            "source" : 1
        },
        {
            "sampler" : 0,
            "source" : 2
        },
        {
            "sampler" : 0,
            "source" : 3
        },
        {
            "sampler" : 0,
            "source" : 4
        },
        {
            "sampler" : 0,
            "source" : 5
        }
    ],
    "images" : [
        {
            "mimeType" : "image/jpeg",
            "name" : "A6normal",
            "uri" : "A6normal.jpg"
        },
        {
            "mimeType" : "image/jpeg",
            "name" : "A6diffuse",
            "uri" : "A6diffuse.jpg"
        },
        {
            "mimeType" : "image/png",
            "name" : "A6rough",
            "uri" : "A6rough.png"
        },
        {
            "mimeType" : "image/jpeg",
            "name" : "A5normal",
            "uri" : "A5normal.jpg"
        },
        {
            "mimeType" : "image/jpeg",
            "name" : "A5diffuse",
            "uri" : "A5diffuse.jpg"
        },
        {
            "mimeType" : "image/png",
            "name" : "A5rough",
            "uri" : "A5rough.png"
        }
    ],
    "accessors" : [
        {
            "bufferView" : 0,
            "componentType" : 5126,
            "count" : 1330,
            "max" : [
                0.6366330981254578,
                1.0658977031707764,
                -0.5020182132720947
            ],
            "min" : [
                -0.6418322920799255,
                -1.064254879951477,
                -0.702944815158844
            ],
            "type" : "VEC3"
        },
        {
            "bufferView" : 1,
            "componentType" : 5126,
            "count" : 1330,
            "type" : "VEC3"
        },
        {
            "bufferView" : 2,
            "componentType" : 5126,
            "count" : 1330,
            "type" : "VEC2"
        },
        {
            "bufferView" : 3,
            "componentType" : 5123,
            "count" : 7368,
            "type" : "SCALAR"
        },
        {
            "bufferView" : 4,
            "componentType" : 5126,
            "count" : 1282,
            "max" : [
                1.0265018939971924,
                1.272615909576416,
                -0.5919634103775024
            ],
            "min" : [
                -0.7222015261650085,
                -1.2036292552947998,
                -0.8335011005401611
            ],
            "type" : "VEC3"
        },
        {
            "bufferView" : 5,
            "componentType" : 5126,
            "count" : 1282,
            "type" : "VEC3"
        },
        {
            "bufferView" : 6,
            "componentType" : 5126,
            "count" : 1282,
            "type" : "VEC2"
        },
        {
            "bufferView" : 7,
            "componentType" : 5123,
            "count" : 4638,
            "type" : "SCALAR"
        },
        {
            "bufferView" : 8,
            "componentType" : 5126,
            "count" : 172,
            "max" : [
                1.0265018939971924,
                1.2726160287857056,
                -0.36998963356018066
            ],
            "min" : [
                -0.7222015261650085,
                -1.2036292552947998,
                -0.8335011005401611
            ],
            "type" : "VEC3"
        },
        {
            "bufferView" : 9,
            "componentType" : 5126,
            "count" : 172,
            "type" : "VEC3"
        },
        {
            "bufferView" : 10,
            "componentType" : 5126,
            "count" : 172,
            "type" : "VEC2"
        },
        {
            "bufferView" : 11,
            "componentType" : 5123,
            "count" : 462,
            "type" : "SCALAR"
        }
    ],
    "bufferViews" : [
        {
            "buffer" : 0,
            "byteLength" : 15960,
            "byteOffset" : 0
        },
        {
            "buffer" : 0,
            "byteLength" : 15960,
            "byteOffset" : 15960
        },
        {
            "buffer" : 0,
            "byteLength" : 10640,
            "byteOffset" : 31920
        },
        {
            "buffer" : 0,
            "byteLength" : 14736,
            "byteOffset" : 42560
        },
        {
            "buffer" : 0,
            "byteLength" : 15384,
            "byteOffset" : 57296
        },
        {
            "buffer" : 0,
            "byteLength" : 15384,
            "byteOffset" : 72680
        },
        {
            "buffer" : 0,
            "byteLength" : 10256,
            "byteOffset" : 88064
        },
        {
            "buffer" : 0,
            "byteLength" : 9276,
            "byteOffset" : 98320
        },
        {
            "buffer" : 0,
            "byteLength" : 2064,
            "byteOffset" : 107596
        },
        {
            "buffer" : 0,
            "byteLength" : 2064,
            "byteOffset" : 109660
        },
        {
            "buffer" : 0,
            "byteLength" : 1376,
            "byteOffset" : 111724
        },
        {
            "buffer" : 0,
            "byteLength" : 924,
            "byteOffset" : 113100
        }
    ],
    "samplers" : [
        {
            "magFilter" : 9729,
            "minFilter" : 9987
        }
    ],
    "buffers" : [
        {
            "byteLength" : 114024,
            "uri" : "A5A62.bin"
        }
    ]
}
