{
    "asset" : {
        "generator" : "Khronos glTF Blender I/O v1.7.33",
        "version" : "2.0"
    },
    "extensionsUsed" : [
        "KHR_texture_transform"
    ],
    "extensionsRequired" : [
        "KHR_texture_transform"
    ],
    "scene" : 0,
    "scenes" : [
        {
            "name" : "Scene",
            "nodes" : [
                0,
                1,
                2,
                3
            ]
        }
    ],
    "nodes" : [
        {
            "mesh" : 0,
            "name" : "A6"
        },
        {
            "mesh" : 1,
            "name" : "A5"
        },
        {
            "mesh" : 2,
            "name" : "Band"
        },
        {
            "mesh" : 3,
            "name" : "Stickers"
        }
    ],
    "materials" : [
        {
            "doubleSided" : true,
            "name" : "A6",
            "normalTexture" : {
                "extensions" : {
                    "KHR_texture_transform" : {
                        "offset" : [
                            0,
                            -1
                        ]
                    }
                },
                "index" : 0
            },
            "pbrMetallicRoughness" : {
                "baseColorTexture" : {
                    "extensions" : {
                        "KHR_texture_transform" : {
                            "offset" : [
                                0,
                                -1
                            ]
                        }
                    },
                    "index" : 1
                },
                "metallicFactor" : 0.43236714601516724,
                "metallicRoughnessTexture" : {
                    "extensions" : {
                        "KHR_texture_transform" : {
                            "offset" : [
                                0,
                                -1
                            ]
                        }
                    },
                    "index" : 2
                }
            }
        },
        {
            "doubleSided" : true,
            "name" : "paper.001",
            "pbrMetallicRoughness" : {
                "metallicFactor" : 0
            }
        },
        {
            "doubleSided" : true,
            "name" : "A5",
            "normalTexture" : {
                "extensions" : {
                    "KHR_texture_transform" : {
                        "offset" : [
                            0,
                            -1
                        ]
                    }
                },
                "index" : 3
            },
            "pbrMetallicRoughness" : {
                "baseColorTexture" : {
                    "extensions" : {
                        "KHR_texture_transform" : {
                            "offset" : [
                                0,
                                -1
                            ]
                        }
                    },
                    "index" : 4
                },
                "metallicFactor" : 0.43236714601516724,
                "metallicRoughnessTexture" : {
                    "extensions" : {
                        "KHR_texture_transform" : {
                            "offset" : [
                                0,
                                -1
                            ]
                        }
                    },
                    "index" : 5
                }
            }
        },
        {
            "doubleSided" : true,
            "name" : "Bellyband",
            "normalTexture" : {
                "extensions" : {
                    "KHR_texture_transform" : {
                        "offset" : [
                            0,
                            -1
                        ]
                    }
                },
                "index" : 6
            },
            "pbrMetallicRoughness" : {
                "baseColorTexture" : {
                    "extensions" : {
                        "KHR_texture_transform" : {
                            "offset" : [
                                0,
                                -1
                            ]
                        }
                    },
                    "index" : 7
                },
                "metallicFactor" : 0.43236714601516724,
                "metallicRoughnessTexture" : {
                    "extensions" : {
                        "KHR_texture_transform" : {
                            "offset" : [
                                0,
                                -1
                            ]
                        }
                    },
                    "index" : 8
                }
            }
        },
        {
            "doubleSided" : true,
            "name" : "Stickersheet",
            "pbrMetallicRoughness" : {
                "baseColorTexture" : {
                    "extensions" : {
                        "KHR_texture_transform" : {
                            "offset" : [
                                0,
                                -1
                            ]
                        }
                    },
                    "index" : 9
                },
                "metallicFactor" : 0.28985506296157837,
                "roughnessFactor" : 0
            }
        }
    ],
    "meshes" : [
        {
            "name" : "A6",
            "primitives" : [
                {
                    "attributes" : {
                        "POSITION" : 0,
                        "NORMAL" : 1,
                        "TEXCOORD_0" : 2
                    },
                    "indices" : 3,
                    "material" : 0
                }
            ]
        },
        {
            "name" : "A5",
            "primitives" : [
                {
                    "attributes" : {
                        "POSITION" : 4,
                        "NORMAL" : 5,
                        "TEXCOORD_0" : 6
                    },
                    "indices" : 7,
                    "material" : 1
                },
                {
                    "attributes" : {
                        "POSITION" : 8,
                        "NORMAL" : 9,
                        "TEXCOORD_0" : 10
                    },
                    "indices" : 11,
                    "material" : 2
                }
            ]
        },
        {
            "name" : "Band",
            "primitives" : [
                {
                    "attributes" : {
                        "POSITION" : 12,
                        "NORMAL" : 13,
                        "TEXCOORD_0" : 14
                    },
                    "indices" : 15,
                    "material" : 3
                }
            ]
        },
        {
            "name" : "Stickers",
            "primitives" : [
                {
                    "attributes" : {
                        "POSITION" : 16,
                        "NORMAL" : 17,
                        "TEXCOORD_0" : 18
                    },
                    "indices" : 19,
                    "material" : 4
                }
            ]
        }
    ],
    "textures" : [
        {
            "sampler" : 0,
            "source" : 0
        },
        {
            "sampler" : 0,
            "source" : 1
        },
        {
            "sampler" : 0,
            "source" : 2
        },
        {
            "sampler" : 0,
            "source" : 3
        },
        {
            "sampler" : 0,
            "source" : 4
        },
        {
            "sampler" : 0,
            "source" : 5
        },
        {
            "sampler" : 0,
            "source" : 6
        },
        {
            "sampler" : 0,
            "source" : 7
        },
        {
            "sampler" : 0,
            "source" : 8
        },
        {
            "sampler" : 0,
            "source" : 9
        }
    ],
    "images" : [
        {
            "mimeType" : "image/png",
            "name" : "A6normal",
            "uri" : "A6normal.png"
        },
        {
            "mimeType" : "image/jpeg",
            "name" : "A6diffuse",
            "uri" : "A6diffuse.jpg"
        },
        {
            "mimeType" : "image/png",
            "name" : "A6rough",
            "uri" : "A6rough.png"
        },
        {
            "mimeType" : "image/jpeg",
            "name" : "A5normal",
            "uri" : "A5normal.jpg"
        },
        {
            "mimeType" : "image/jpeg",
            "name" : "A5diffuse",
            "uri" : "A5diffuse.jpg"
        },
        {
            "mimeType" : "image/png",
            "name" : "A5rough",
            "uri" : "A5rough.png"
        },
        {
            "mimeType" : "image/jpeg",
            "name" : "BellybandNormal",
            "uri" : "BellybandNormal.jpg"
        },
        {
            "mimeType" : "image/jpeg",
            "name" : "BellybandDifuse",
            "uri" : "BellybandDifuse.jpg"
        },
        {
            "mimeType" : "image/png",
            "name" : "BellybandRough",
            "uri" : "BellybandRough.png"
        },
        {
            "mimeType" : "image/jpeg",
            "name" : "Stickersdiffuse",
            "uri" : "Stickersdiffuse.jpg"
        }
    ],
    "accessors" : [
        {
            "bufferView" : 0,
            "componentType" : 5126,
            "count" : 1330,
            "max" : [
                0.6366330981254578,
                1.0658977031707764,
                -0.5020182132720947
            ],
            "min" : [
                -0.6418322920799255,
                -1.064254879951477,
                -0.702944815158844
            ],
            "type" : "VEC3"
        },
        {
            "bufferView" : 1,
            "componentType" : 5126,
            "count" : 1330,
            "type" : "VEC3"
        },
        {
            "bufferView" : 2,
            "componentType" : 5126,
            "count" : 1330,
            "type" : "VEC2"
        },
        {
            "bufferView" : 3,
            "componentType" : 5123,
            "count" : 7368,
            "type" : "SCALAR"
        },
        {
            "bufferView" : 4,
            "componentType" : 5126,
            "count" : 1282,
            "max" : [
                1.0265018939971924,
                1.272615909576416,
                -0.5919634103775024
            ],
            "min" : [
                -0.7222015261650085,
                -1.2036292552947998,
                -0.8335011005401611
            ],
            "type" : "VEC3"
        },
        {
            "bufferView" : 5,
            "componentType" : 5126,
            "count" : 1282,
            "type" : "VEC3"
        },
        {
            "bufferView" : 6,
            "componentType" : 5126,
            "count" : 1282,
            "type" : "VEC2"
        },
        {
            "bufferView" : 7,
            "componentType" : 5123,
            "count" : 4638,
            "type" : "SCALAR"
        },
        {
            "bufferView" : 8,
            "componentType" : 5126,
            "count" : 172,
            "max" : [
                1.0265018939971924,
                1.2726160287857056,
                -0.36998963356018066
            ],
            "min" : [
                -0.7222015261650085,
                -1.2036292552947998,
                -0.8335011005401611
            ],
            "type" : "VEC3"
        },
        {
            "bufferView" : 9,
            "componentType" : 5126,
            "count" : 172,
            "type" : "VEC3"
        },
        {
            "bufferView" : 10,
            "componentType" : 5126,
            "count" : 172,
            "type" : "VEC2"
        },
        {
            "bufferView" : 11,
            "componentType" : 5123,
            "count" : 462,
            "type" : "SCALAR"
        },
        {
            "bufferView" : 12,
            "componentType" : 5126,
            "count" : 234,
            "max" : [
                1.0352842807769775,
                0.41999995708465576,
                -0.3623393177986145
            ],
            "min" : [
                -0.7280593514442444,
                -0.41999995708465576,
                -0.8404034376144409
            ],
            "type" : "VEC3"
        },
        {
            "bufferView" : 13,
            "componentType" : 5126,
            "count" : 234,
            "type" : "VEC3"
        },
        {
            "bufferView" : 14,
            "componentType" : 5126,
            "count" : 234,
            "type" : "VEC2"
        },
        {
            "bufferView" : 15,
            "componentType" : 5123,
            "count" : 672,
            "type" : "SCALAR"
        },
        {
            "bufferView" : 16,
            "componentType" : 5126,
            "count" : 26,
            "max" : [
                0.7728379964828491,
                1.3360812664031982,
                -0.7138898968696594
            ],
            "min" : [
                -0.4998669922351837,
                -0.8398780226707458,
                -0.7718055248260498
            ],
            "type" : "VEC3"
        },
        {
            "bufferView" : 17,
            "componentType" : 5126,
            "count" : 26,
            "type" : "VEC3"
        },
        {
            "bufferView" : 18,
            "componentType" : 5126,
            "count" : 26,
            "type" : "VEC2"
        },
        {
            "bufferView" : 19,
            "componentType" : 5123,
            "count" : 72,
            "type" : "SCALAR"
        }
    ],
    "bufferViews" : [
        {
            "buffer" : 0,
            "byteLength" : 15960,
            "byteOffset" : 0
        },
        {
            "buffer" : 0,
            "byteLength" : 15960,
            "byteOffset" : 15960
        },
        {
            "buffer" : 0,
            "byteLength" : 10640,
            "byteOffset" : 31920
        },
        {
            "buffer" : 0,
            "byteLength" : 14736,
            "byteOffset" : 42560
        },
        {
            "buffer" : 0,
            "byteLength" : 15384,
            "byteOffset" : 57296
        },
        {
            "buffer" : 0,
            "byteLength" : 15384,
            "byteOffset" : 72680
        },
        {
            "buffer" : 0,
            "byteLength" : 10256,
            "byteOffset" : 88064
        },
        {
            "buffer" : 0,
            "byteLength" : 9276,
            "byteOffset" : 98320
        },
        {
            "buffer" : 0,
            "byteLength" : 2064,
            "byteOffset" : 107596
        },
        {
            "buffer" : 0,
            "byteLength" : 2064,
            "byteOffset" : 109660
        },
        {
            "buffer" : 0,
            "byteLength" : 1376,
            "byteOffset" : 111724
        },
        {
            "buffer" : 0,
            "byteLength" : 924,
            "byteOffset" : 113100
        },
        {
            "buffer" : 0,
            "byteLength" : 2808,
            "byteOffset" : 114024
        },
        {
            "buffer" : 0,
            "byteLength" : 2808,
            "byteOffset" : 116832
        },
        {
            "buffer" : 0,
            "byteLength" : 1872,
            "byteOffset" : 119640
        },
        {
            "buffer" : 0,
            "byteLength" : 1344,
            "byteOffset" : 121512
        },
        {
            "buffer" : 0,
            "byteLength" : 312,
            "byteOffset" : 122856
        },
        {
            "buffer" : 0,
            "byteLength" : 312,
            "byteOffset" : 123168
        },
        {
            "buffer" : 0,
            "byteLength" : 208,
            "byteOffset" : 123480
        },
        {
            "buffer" : 0,
            "byteLength" : 144,
            "byteOffset" : 123688
        }
    ],
    "samplers" : [
        {
            "magFilter" : 9729,
            "minFilter" : 9987
        }
    ],
    "buffers" : [
        {
            "byteLength" : 123832,
            "uri" : "A5A66.bin"
        }
    ]
}
