{
    "asset" : {
        "generator" : "Khronos glTF Blender I/O v1.7.33",
        "version" : "2.0"
    },
    "extensionsUsed" : [
        "KHR_texture_transform"
    ],
    "extensionsRequired" : [
        "KHR_texture_transform"
    ],
    "scene" : 0,
    "scenes" : [
        {
            "name" : "Scene",
            "nodes" : [
                0,
                1,
                2,
                3,
                4,
                5,
                6,
                7
            ]
        }
    ],
    "nodes" : [
        {
            "mesh" : 0,
            "name" : "Bus",
            "translation" : [
                -3.370849609375,
                0,
                43.58171844482422
            ]
        },
        {
            "mesh" : 1,
            "name" : "Westfield",
            "scale" : [
                0.8142455816268921,
                0.8142455816268921,
                0.8142455816268921
            ],
            "translation" : [
                13.144285202026367,
                39.07231140136719,
                -114.98944091796875
            ]
        },
        {
            "mesh" : 2,
            "name" : "Aarons",
            "translation" : [
                -3.370849609375,
                0,
                43.58171844482422
            ]
        },
        {
            "mesh" : 3,
            "name" : "Sandhu",
            "translation" : [
                -3.370849609375,
                0,
                43.58171844482422
            ]
        },
        {
            "mesh" : 4,
            "name" : "Hows",
            "translation" : [
                -3.370849609375,
                0,
                43.58171844482422
            ]
        },
        {
            "mesh" : 5,
            "name" : "Tree",
            "translation" : [
                -3.370849609375,
                0,
                43.58171844482422
            ]
        },
        {
            "mesh" : 6,
            "name" : "Towers",
            "translation" : [
                -3.370849609375,
                0,
                43.58171844482422
            ]
        },
        {
            "mesh" : 7,
            "name" : "Plane"
        }
    ],
    "materials" : [
        {
            "doubleSided" : true,
            "name" : "copper",
            "normalTexture" : {
                "extensions" : {
                    "KHR_texture_transform" : {
                        "offset" : [
                            0,
                            0.5
                        ],
                        "scale" : [
                            0.5,
                            0.5
                        ]
                    }
                },
                "index" : 0
            },
            "pbrMetallicRoughness" : {
                "baseColorTexture" : {
                    "extensions" : {
                        "KHR_texture_transform" : {
                            "offset" : [
                                0,
                                0.5
                            ],
                            "scale" : [
                                0.5,
                                0.5
                            ]
                        }
                    },
                    "index" : 1
                },
                "metallicRoughnessTexture" : {
                    "extensions" : {
                        "KHR_texture_transform" : {
                            "offset" : [
                                0,
                                0.5
                            ],
                            "scale" : [
                                0.5,
                                0.5
                            ]
                        }
                    },
                    "index" : 2
                }
            }
        }
    ],
    "meshes" : [
        {
            "name" : "Plane.015",
            "primitives" : [
                {
                    "attributes" : {
                        "POSITION" : 0,
                        "NORMAL" : 1,
                        "TEXCOORD_0" : 2
                    },
                    "indices" : 3,
                    "material" : 0
                }
            ]
        },
        {
            "name" : "Westfield",
            "primitives" : [
                {
                    "attributes" : {
                        "POSITION" : 4,
                        "NORMAL" : 5,
                        "TEXCOORD_0" : 6
                    },
                    "indices" : 7,
                    "material" : 0
                }
            ]
        },
        {
            "name" : "Cube.011",
            "primitives" : [
                {
                    "attributes" : {
                        "POSITION" : 8,
                        "NORMAL" : 9,
                        "TEXCOORD_0" : 10
                    },
                    "indices" : 11,
                    "material" : 0
                }
            ]
        },
        {
            "name" : "SANDHU",
            "primitives" : [
                {
                    "attributes" : {
                        "POSITION" : 12,
                        "NORMAL" : 13,
                        "TEXCOORD_0" : 14
                    },
                    "indices" : 15,
                    "material" : 0
                }
            ]
        },
        {
            "name" : "Hows",
            "primitives" : [
                {
                    "attributes" : {
                        "POSITION" : 16,
                        "NORMAL" : 17,
                        "TEXCOORD_0" : 18
                    },
                    "indices" : 19,
                    "material" : 0
                }
            ]
        },
        {
            "name" : "Cone.019",
            "primitives" : [
                {
                    "attributes" : {
                        "POSITION" : 20,
                        "NORMAL" : 21,
                        "TEXCOORD_0" : 22,
                        "TEXCOORD_1" : 23,
                        "COLOR_0" : 24
                    },
                    "indices" : 25,
                    "material" : 0
                }
            ]
        },
        {
            "name" : "Cube.010",
            "primitives" : [
                {
                    "attributes" : {
                        "POSITION" : 26,
                        "NORMAL" : 27,
                        "TEXCOORD_0" : 28,
                        "TEXCOORD_1" : 29
                    },
                    "indices" : 30,
                    "material" : 0
                }
            ]
        },
        {
            "name" : "Plane",
            "primitives" : [
                {
                    "attributes" : {
                        "POSITION" : 31,
                        "NORMAL" : 32,
                        "TEXCOORD_0" : 33
                    },
                    "indices" : 34,
                    "material" : 0
                }
            ]
        }
    ],
    "textures" : [
        {
            "sampler" : 0,
            "source" : 0
        },
        {
            "sampler" : 0,
            "source" : 1
        },
        {
            "sampler" : 0,
            "source" : 2
        }
    ],
    "images" : [
        {
            "mimeType" : "image/jpeg",
            "name" : "FblenderDEVblenderhubmodelstexworkmetalscoppercopper_normal",
            "uri" : "FblenderDEVblenderhubmodelstexworkmetalscoppercopper_normal.jpg"
        },
        {
            "mimeType" : "image/jpeg",
            "name" : "FblenderDEVblenderhubmodelstexworkmetalscoppercopper_albedo",
            "uri" : "FblenderDEVblenderhubmodelstexworkmetalscoppercopper_albedo.jpg"
        },
        {
            "mimeType" : "image/jpeg",
            "name" : "copper_metallic-copper_roughness",
            "uri" : "copper_metallic-copper_roughness.jpg"
        }
    ],
    "accessors" : [
        {
            "bufferView" : 0,
            "componentType" : 5126,
            "count" : 6460,
            "max" : [
                34.139522552490234,
                6.048257350921631,
                30.753124237060547
            ],
            "min" : [
                18.90353775024414,
                -0.20541119575500488,
                26.947368621826172
            ],
            "type" : "VEC3"
        },
        {
            "bufferView" : 1,
            "componentType" : 5126,
            "count" : 6460,
            "type" : "VEC3"
        },
        {
            "bufferView" : 2,
            "componentType" : 5126,
            "count" : 6460,
            "type" : "VEC2"
        },
        {
            "bufferView" : 3,
            "componentType" : 5123,
            "count" : 11178,
            "type" : "SCALAR"
        },
        {
            "bufferView" : 4,
            "componentType" : 5126,
            "count" : 409,
            "max" : [
                -2.288818359375e-05,
                1.9134178161621094,
                -5.040590286254883
            ],
            "min" : [
                -2.288818359375e-05,
                -1.9760246276855469,
                -56.5509033203125
            ],
            "type" : "VEC3"
        },
        {
            "bufferView" : 5,
            "componentType" : 5126,
            "count" : 409,
            "type" : "VEC3"
        },
        {
            "bufferView" : 6,
            "componentType" : 5126,
            "count" : 409,
            "type" : "VEC2"
        },
        {
            "bufferView" : 7,
            "componentType" : 5123,
            "count" : 756,
            "type" : "SCALAR"
        },
        {
            "bufferView" : 8,
            "componentType" : 5126,
            "count" : 62,
            "max" : [
                51.83956527709961,
                36.10016632080078,
                -63.405540466308594
            ],
            "min" : [
                18.86673355102539,
                -0.1473217010498047,
                -113.19996643066406
            ],
            "type" : "VEC3"
        },
        {
            "bufferView" : 9,
            "componentType" : 5126,
            "count" : 62,
            "type" : "VEC3"
        },
        {
            "bufferView" : 10,
            "componentType" : 5126,
            "count" : 62,
            "type" : "VEC2"
        },
        {
            "bufferView" : 11,
            "componentType" : 5123,
            "count" : 72,
            "type" : "SCALAR"
        },
        {
            "bufferView" : 12,
            "componentType" : 5126,
            "count" : 2376,
            "max" : [
                78.0782470703125,
                38.10249328613281,
                -33.94234085083008
            ],
            "min" : [
                49.87970733642578,
                -0.1473217010498047,
                -125.80838775634766
            ],
            "type" : "VEC3"
        },
        {
            "bufferView" : 13,
            "componentType" : 5126,
            "count" : 2376,
            "type" : "VEC3"
        },
        {
            "bufferView" : 14,
            "componentType" : 5126,
            "count" : 2376,
            "type" : "VEC2"
        },
        {
            "bufferView" : 15,
            "componentType" : 5123,
            "count" : 2448,
            "type" : "SCALAR"
        },
        {
            "bufferView" : 16,
            "componentType" : 5126,
            "count" : 171,
            "max" : [
                75.32894897460938,
                28.804256439208984,
                13.74963665008545
            ],
            "min" : [
                13.851073265075684,
                -0.1473217010498047,
                -31.386859893798828
            ],
            "type" : "VEC3"
        },
        {
            "bufferView" : 17,
            "componentType" : 5126,
            "count" : 171,
            "type" : "VEC3"
        },
        {
            "bufferView" : 18,
            "componentType" : 5126,
            "count" : 171,
            "type" : "VEC2"
        },
        {
            "bufferView" : 19,
            "componentType" : 5123,
            "count" : 180,
            "type" : "SCALAR"
        },
        {
            "bufferView" : 20,
            "componentType" : 5126,
            "count" : 108236,
            "max" : [
                53.61265182495117,
                18.86855125427246,
                23.8636474609375
            ],
            "min" : [
                -69.96866607666016,
                -0.05171431228518486,
                -87.10954284667969
            ],
            "type" : "VEC3"
        },
        {
            "bufferView" : 21,
            "componentType" : 5126,
            "count" : 108236,
            "type" : "VEC3"
        },
        {
            "bufferView" : 22,
            "componentType" : 5126,
            "count" : 108236,
            "type" : "VEC2"
        },
        {
            "bufferView" : 23,
            "componentType" : 5126,
            "count" : 108236,
            "type" : "VEC2"
        },
        {
            "bufferView" : 24,
            "componentType" : 5123,
            "count" : 108236,
            "normalized" : true,
            "type" : "VEC4"
        },
        {
            "bufferView" : 25,
            "componentType" : 5125,
            "count" : 114306,
            "type" : "SCALAR"
        },
        {
            "bufferView" : 26,
            "componentType" : 5126,
            "count" : 14679,
            "max" : [
                2.9156599044799805,
                128.99244689941406,
                14.505847930908203
            ],
            "min" : [
                -70.85305786132812,
                -0.2626410722732544,
                -121.72097778320312
            ],
            "type" : "VEC3"
        },
        {
            "bufferView" : 27,
            "componentType" : 5126,
            "count" : 14679,
            "type" : "VEC3"
        },
        {
            "bufferView" : 28,
            "componentType" : 5126,
            "count" : 14679,
            "type" : "VEC2"
        },
        {
            "bufferView" : 29,
            "componentType" : 5126,
            "count" : 14679,
            "type" : "VEC2"
        },
        {
            "bufferView" : 30,
            "componentType" : 5123,
            "count" : 20490,
            "type" : "SCALAR"
        },
        {
            "bufferView" : 31,
            "componentType" : 5126,
            "count" : 24,
            "max" : [
                13.448933601379395,
                40.82843780517578,
                -114.66316223144531
            ],
            "min" : [
                13.248929977416992,
                0.8284358978271484,
                -115.16316223144531
            ],
            "type" : "VEC3"
        },
        {
            "bufferView" : 32,
            "componentType" : 5126,
            "count" : 24,
            "type" : "VEC3"
        },
        {
            "bufferView" : 33,
            "componentType" : 5126,
            "count" : 24,
            "type" : "VEC2"
        },
        {
            "bufferView" : 34,
            "componentType" : 5123,
            "count" : 36,
            "type" : "SCALAR"
        }
    ],
    "bufferViews" : [
        {
            "buffer" : 0,
            "byteLength" : 77520,
            "byteOffset" : 0
        },
        {
            "buffer" : 0,
            "byteLength" : 77520,
            "byteOffset" : 77520
        },
        {
            "buffer" : 0,
            "byteLength" : 51680,
            "byteOffset" : 155040
        },
        {
            "buffer" : 0,
            "byteLength" : 22356,
            "byteOffset" : 206720
        },
        {
            "buffer" : 0,
            "byteLength" : 4908,
            "byteOffset" : 229076
        },
        {
            "buffer" : 0,
            "byteLength" : 4908,
            "byteOffset" : 233984
        },
        {
            "buffer" : 0,
            "byteLength" : 3272,
            "byteOffset" : 238892
        },
        {
            "buffer" : 0,
            "byteLength" : 1512,
            "byteOffset" : 242164
        },
        {
            "buffer" : 0,
            "byteLength" : 744,
            "byteOffset" : 243676
        },
        {
            "buffer" : 0,
            "byteLength" : 744,
            "byteOffset" : 244420
        },
        {
            "buffer" : 0,
            "byteLength" : 496,
            "byteOffset" : 245164
        },
        {
            "buffer" : 0,
            "byteLength" : 144,
            "byteOffset" : 245660
        },
        {
            "buffer" : 0,
            "byteLength" : 28512,
            "byteOffset" : 245804
        },
        {
            "buffer" : 0,
            "byteLength" : 28512,
            "byteOffset" : 274316
        },
        {
            "buffer" : 0,
            "byteLength" : 19008,
            "byteOffset" : 302828
        },
        {
            "buffer" : 0,
            "byteLength" : 4896,
            "byteOffset" : 321836
        },
        {
            "buffer" : 0,
            "byteLength" : 2052,
            "byteOffset" : 326732
        },
        {
            "buffer" : 0,
            "byteLength" : 2052,
            "byteOffset" : 328784
        },
        {
            "buffer" : 0,
            "byteLength" : 1368,
            "byteOffset" : 330836
        },
        {
            "buffer" : 0,
            "byteLength" : 360,
            "byteOffset" : 332204
        },
        {
            "buffer" : 0,
            "byteLength" : 1298832,
            "byteOffset" : 332564
        },
        {
            "buffer" : 0,
            "byteLength" : 1298832,
            "byteOffset" : 1631396
        },
        {
            "buffer" : 0,
            "byteLength" : 865888,
            "byteOffset" : 2930228
        },
        {
            "buffer" : 0,
            "byteLength" : 865888,
            "byteOffset" : 3796116
        },
        {
            "buffer" : 0,
            "byteLength" : 865888,
            "byteOffset" : 4662004
        },
        {
            "buffer" : 0,
            "byteLength" : 457224,
            "byteOffset" : 5527892
        },
        {
            "buffer" : 0,
            "byteLength" : 176148,
            "byteOffset" : 5985116
        },
        {
            "buffer" : 0,
            "byteLength" : 176148,
            "byteOffset" : 6161264
        },
        {
            "buffer" : 0,
            "byteLength" : 117432,
            "byteOffset" : 6337412
        },
        {
            "buffer" : 0,
            "byteLength" : 117432,
            "byteOffset" : 6454844
        },
        {
            "buffer" : 0,
            "byteLength" : 40980,
            "byteOffset" : 6572276
        },
        {
            "buffer" : 0,
            "byteLength" : 288,
            "byteOffset" : 6613256
        },
        {
            "buffer" : 0,
            "byteLength" : 288,
            "byteOffset" : 6613544
        },
        {
            "buffer" : 0,
            "byteLength" : 192,
            "byteOffset" : 6613832
        },
        {
            "buffer" : 0,
            "byteLength" : 72,
            "byteOffset" : 6614024
        }
    ],
    "samplers" : [
        {
            "magFilter" : 9729,
            "minFilter" : 9987
        }
    ],
    "buffers" : [
        {
            "byteLength" : 6614096,
            "uri" : "CMS9.bin"
        }
    ]
}
