{
    "asset" : {
        "generator" : "Khronos glTF Blender I/O v1.7.33",
        "version" : "2.0"
    },
    "extensionsUsed" : [
        "KHR_texture_transform"
    ],
    "extensionsRequired" : [
        "KHR_texture_transform"
    ],
    "scene" : 0,
    "scenes" : [
        {
            "name" : "Scene",
            "nodes" : [
                0,
                1,
                2
            ]
        }
    ],
    "nodes" : [
        {
            "mesh" : 0,
            "name" : "Cube",
            "scale" : [
                100,
                2.5,
                100
            ],
            "translation" : [
                0,
                -2.519085645675659,
                0
            ]
        },
        {
            "mesh" : 1,
            "name" : "Bus",
            "rotation" : [
                0.0005858108052052557,
                0.00743262842297554,
                -0.0008075396763160825,
                0.999971866607666
            ],
            "scale" : [
                0.13732437789440155,
                0.13732437789440155,
                0.13732436299324036
            ],
            "translation" : [
                39.22803497314453,
                3.2395505905151367,
                69.87277221679688
            ]
        },
        {
            "mesh" : 2,
            "name" : "Plane",
            "translation" : [
                -16.068340301513672,
                0,
                0
            ]
        }
    ],
    "animations" : [
        {
            "channels" : [
                {
                    "sampler" : 0,
                    "target" : {
                        "node" : 1,
                        "path" : "translation"
                    }
                },
                {
                    "sampler" : 1,
                    "target" : {
                        "node" : 1,
                        "path" : "rotation"
                    }
                },
                {
                    "sampler" : 2,
                    "target" : {
                        "node" : 1,
                        "path" : "scale"
                    }
                }
            ],
            "name" : "BusAction",
            "samplers" : [
                {
                    "input" : 12,
                    "interpolation" : "LINEAR",
                    "output" : 13
                },
                {
                    "input" : 12,
                    "interpolation" : "LINEAR",
                    "output" : 14
                },
                {
                    "input" : 15,
                    "interpolation" : "LINEAR",
                    "output" : 16
                }
            ]
        }
    ],
    "materials" : [
        {
            "doubleSided" : true,
            "name" : "copper",
            "normalTexture" : {
                "extensions" : {
                    "KHR_texture_transform" : {
                        "offset" : [
                            0,
                            -1
                        ],
                        "scale" : [
                            2,
                            2
                        ]
                    }
                },
                "index" : 0
            },
            "pbrMetallicRoughness" : {
                "baseColorTexture" : {
                    "extensions" : {
                        "KHR_texture_transform" : {
                            "offset" : [
                                0,
                                -1
                            ],
                            "scale" : [
                                2,
                                2
                            ]
                        }
                    },
                    "index" : 1
                },
                "metallicRoughnessTexture" : {
                    "extensions" : {
                        "KHR_texture_transform" : {
                            "offset" : [
                                0,
                                -1
                            ],
                            "scale" : [
                                2,
                                2
                            ]
                        }
                    },
                    "index" : 2
                }
            }
        }
    ],
    "meshes" : [
        {
            "name" : "Cube.034",
            "primitives" : [
                {
                    "attributes" : {
                        "POSITION" : 0,
                        "NORMAL" : 1,
                        "TEXCOORD_0" : 2
                    },
                    "indices" : 3,
                    "material" : 0
                }
            ]
        },
        {
            "name" : "Plane.015",
            "primitives" : [
                {
                    "attributes" : {
                        "POSITION" : 4,
                        "NORMAL" : 5,
                        "TEXCOORD_0" : 6
                    },
                    "indices" : 7,
                    "material" : 0
                }
            ]
        },
        {
            "name" : "Plane",
            "primitives" : [
                {
                    "attributes" : {
                        "POSITION" : 8,
                        "NORMAL" : 9,
                        "TEXCOORD_0" : 10
                    },
                    "indices" : 11,
                    "material" : 0
                }
            ]
        }
    ],
    "textures" : [
        {
            "sampler" : 0,
            "source" : 0
        },
        {
            "sampler" : 0,
            "source" : 1
        },
        {
            "sampler" : 0,
            "source" : 2
        }
    ],
    "images" : [
        {
            "mimeType" : "image/jpeg",
            "name" : "FblenderDEVblenderhubmodelstexworkmetalscoppercopper_normal",
            "uri" : "FblenderDEVblenderhubmodelstexworkmetalscoppercopper_normal.jpg"
        },
        {
            "mimeType" : "image/jpeg",
            "name" : "FblenderDEVblenderhubmodelstexworkmetalscoppercopper_albedo",
            "uri" : "FblenderDEVblenderhubmodelstexworkmetalscoppercopper_albedo.jpg"
        },
        {
            "mimeType" : "image/jpeg",
            "name" : "copper_metallic-copper_roughness",
            "uri" : "copper_metallic-copper_roughness.jpg"
        }
    ],
    "accessors" : [
        {
            "bufferView" : 0,
            "componentType" : 5126,
            "count" : 24130,
            "max" : [
                0.6569446921348572,
                52.23806381225586,
                0.5759782791137695
            ],
            "min" : [
                -0.9827345013618469,
                0.9076342582702637,
                -0.8271639943122864
            ],
            "type" : "VEC3"
        },
        {
            "bufferView" : 1,
            "componentType" : 5126,
            "count" : 24130,
            "type" : "VEC3"
        },
        {
            "bufferView" : 2,
            "componentType" : 5126,
            "count" : 24130,
            "type" : "VEC2"
        },
        {
            "bufferView" : 3,
            "componentType" : 5123,
            "count" : 29433,
            "type" : "SCALAR"
        },
        {
            "bufferView" : 4,
            "componentType" : 5126,
            "count" : 757725,
            "max" : [
                65.75597381591797,
                29.889984130859375,
                11.127038955688477
            ],
            "min" : [
                -62.65636444091797,
                -21.8695011138916,
                -21.374948501586914
            ],
            "type" : "VEC3"
        },
        {
            "bufferView" : 5,
            "componentType" : 5126,
            "count" : 757725,
            "type" : "VEC3"
        },
        {
            "bufferView" : 6,
            "componentType" : 5126,
            "count" : 757725,
            "type" : "VEC2"
        },
        {
            "bufferView" : 7,
            "componentType" : 5125,
            "count" : 1211883,
            "type" : "SCALAR"
        },
        {
            "bufferView" : 8,
            "componentType" : 5126,
            "count" : 24,
            "max" : [
                100,
                0,
                100
            ],
            "min" : [
                -100,
                -10,
                -100
            ],
            "type" : "VEC3"
        },
        {
            "bufferView" : 9,
            "componentType" : 5126,
            "count" : 24,
            "type" : "VEC3"
        },
        {
            "bufferView" : 10,
            "componentType" : 5126,
            "count" : 24,
            "type" : "VEC2"
        },
        {
            "bufferView" : 11,
            "componentType" : 5123,
            "count" : 36,
            "type" : "SCALAR"
        },
        {
            "bufferView" : 12,
            "componentType" : 5126,
            "count" : 200,
            "max" : [
                8.333333333333334
            ],
            "min" : [
                0.041666666666666664
            ],
            "type" : "SCALAR"
        },
        {
            "bufferView" : 13,
            "componentType" : 5126,
            "count" : 200,
            "type" : "VEC3"
        },
        {
            "bufferView" : 14,
            "componentType" : 5126,
            "count" : 200,
            "type" : "VEC4"
        },
        {
            "bufferView" : 15,
            "componentType" : 5126,
            "count" : 2,
            "max" : [
                8.333333333333334
            ],
            "min" : [
                0.041666666666666664
            ],
            "type" : "SCALAR"
        },
        {
            "bufferView" : 16,
            "componentType" : 5126,
            "count" : 2,
            "type" : "VEC3"
        }
    ],
    "bufferViews" : [
        {
            "buffer" : 0,
            "byteLength" : 289560,
            "byteOffset" : 0
        },
        {
            "buffer" : 0,
            "byteLength" : 289560,
            "byteOffset" : 289560
        },
        {
            "buffer" : 0,
            "byteLength" : 193040,
            "byteOffset" : 579120
        },
        {
            "buffer" : 0,
            "byteLength" : 58866,
            "byteOffset" : 772160
        },
        {
            "buffer" : 0,
            "byteLength" : 9092700,
            "byteOffset" : 831028
        },
        {
            "buffer" : 0,
            "byteLength" : 9092700,
            "byteOffset" : 9923728
        },
        {
            "buffer" : 0,
            "byteLength" : 6061800,
            "byteOffset" : 19016428
        },
        {
            "buffer" : 0,
            "byteLength" : 4847532,
            "byteOffset" : 25078228
        },
        {
            "buffer" : 0,
            "byteLength" : 288,
            "byteOffset" : 29925760
        },
        {
            "buffer" : 0,
            "byteLength" : 288,
            "byteOffset" : 29926048
        },
        {
            "buffer" : 0,
            "byteLength" : 192,
            "byteOffset" : 29926336
        },
        {
            "buffer" : 0,
            "byteLength" : 72,
            "byteOffset" : 29926528
        },
        {
            "buffer" : 0,
            "byteLength" : 800,
            "byteOffset" : 29926600
        },
        {
            "buffer" : 0,
            "byteLength" : 2400,
            "byteOffset" : 29927400
        },
        {
            "buffer" : 0,
            "byteLength" : 3200,
            "byteOffset" : 29929800
        },
        {
            "buffer" : 0,
            "byteLength" : 8,
            "byteOffset" : 29933000
        },
        {
            "buffer" : 0,
            "byteLength" : 24,
            "byteOffset" : 29933008
        }
    ],
    "samplers" : [
        {
            "magFilter" : 9729,
            "minFilter" : 9987
        }
    ],
    "buffers" : [
        {
            "byteLength" : 29933032,
            "uri" : "CS8.bin"
        }
    ]
}
