{
    "asset" : {
        "generator" : "Khronos glTF Blender I/O v1.7.33",
        "version" : "2.0"
    },
    "extensionsUsed" : [
        "KHR_texture_transform"
    ],
    "extensionsRequired" : [
        "KHR_texture_transform"
    ],
    "scene" : 0,
    "scenes" : [
        {
            "name" : "Scene",
            "nodes" : [
                0,
                1,
                2
            ]
        }
    ],
    "nodes" : [
        {
            "mesh" : 0,
            "name" : "Buildings",
            "scale" : [
                100,
                2.5,
                100
            ],
            "translation" : [
                0,
                -2.519085645675659,
                0
            ]
        },
        {
            "mesh" : 1,
            "name" : "Bus",
            "rotation" : [
                0.0005858108052052557,
                0.00743262842297554,
                -0.0008075396763160825,
                0.999971866607666
            ],
            "scale" : [
                0.13732437789440155,
                0.13732437789440155,
                0.13732436299324036
            ],
            "translation" : [
                39.22803497314453,
                3.2395505905151367,
                69.87277221679688
            ]
        },
        {
            "mesh" : 2,
            "name" : "Base",
            "translation" : [
                -16.068340301513672,
                0,
                0
            ]
        }
    ],
    "materials" : [
        {
            "doubleSided" : true,
            "name" : "copper",
            "normalTexture" : {
                "extensions" : {
                    "KHR_texture_transform" : {
                        "offset" : [
                            0,
                            -1
                        ],
                        "scale" : [
                            2,
                            2
                        ]
                    }
                },
                "index" : 0
            },
            "pbrMetallicRoughness" : {
                "baseColorTexture" : {
                    "extensions" : {
                        "KHR_texture_transform" : {
                            "offset" : [
                                0,
                                -1
                            ],
                            "scale" : [
                                2,
                                2
                            ]
                        }
                    },
                    "index" : 1
                },
                "metallicRoughnessTexture" : {
                    "extensions" : {
                        "KHR_texture_transform" : {
                            "offset" : [
                                0,
                                -1
                            ],
                            "scale" : [
                                2,
                                2
                            ]
                        }
                    },
                    "index" : 2
                }
            }
        },
        {
            "doubleSided" : true,
            "name" : "Material",
            "pbrMetallicRoughness" : {
                "baseColorFactor" : [
                    0.7379111647605896,
                    0.708375871181488,
                    0.6375972032546997,
                    1
                ],
                "metallicFactor" : 0,
                "roughnessFactor" : 0.8679245710372925
            }
        }
    ],
    "meshes" : [
        {
            "name" : "Buildings",
            "primitives" : [
                {
                    "attributes" : {
                        "POSITION" : 0,
                        "NORMAL" : 1,
                        "TEXCOORD_0" : 2
                    },
                    "indices" : 3,
                    "material" : 0
                }
            ]
        },
        {
            "name" : "Base",
            "primitives" : [
                {
                    "attributes" : {
                        "POSITION" : 4,
                        "NORMAL" : 5,
                        "TEXCOORD_0" : 6
                    },
                    "indices" : 7,
                    "material" : 0
                }
            ]
        },
        {
            "name" : "Plane",
            "primitives" : [
                {
                    "attributes" : {
                        "POSITION" : 8,
                        "NORMAL" : 9,
                        "TEXCOORD_0" : 10
                    },
                    "indices" : 11,
                    "material" : 1
                }
            ]
        }
    ],
    "textures" : [
        {
            "sampler" : 0,
            "source" : 0
        },
        {
            "sampler" : 0,
            "source" : 1
        },
        {
            "sampler" : 0,
            "source" : 2
        }
    ],
    "images" : [
        {
            "mimeType" : "image/jpeg",
            "name" : "FblenderDEVblenderhubmodelstexworkmetalscoppercopper_normal",
            "uri" : "FblenderDEVblenderhubmodelstexworkmetalscoppercopper_normal.jpg"
        },
        {
            "mimeType" : "image/jpeg",
            "name" : "FblenderDEVblenderhubmodelstexworkmetalscoppercopper_albedo",
            "uri" : "FblenderDEVblenderhubmodelstexworkmetalscoppercopper_albedo.jpg"
        },
        {
            "mimeType" : "image/jpeg",
            "name" : "copper_metallic-copper_roughness",
            "uri" : "copper_metallic-copper_roughness.jpg"
        }
    ],
    "accessors" : [
        {
            "bufferView" : 0,
            "componentType" : 5126,
            "count" : 24130,
            "max" : [
                0.6569446921348572,
                52.23806381225586,
                0.5759782791137695
            ],
            "min" : [
                -0.9827345013618469,
                0.9076342582702637,
                -0.8271639943122864
            ],
            "type" : "VEC3"
        },
        {
            "bufferView" : 1,
            "componentType" : 5126,
            "count" : 24130,
            "type" : "VEC3"
        },
        {
            "bufferView" : 2,
            "componentType" : 5126,
            "count" : 24130,
            "type" : "VEC2"
        },
        {
            "bufferView" : 3,
            "componentType" : 5123,
            "count" : 29433,
            "type" : "SCALAR"
        },
        {
            "bufferView" : 4,
            "componentType" : 5126,
            "count" : 42751,
            "max" : [
                65.80233764648438,
                29.889984130859375,
                11.089424133300781
            ],
            "min" : [
                -62.65497589111328,
                -21.828344345092773,
                -21.335586547851562
            ],
            "type" : "VEC3"
        },
        {
            "bufferView" : 5,
            "componentType" : 5126,
            "count" : 42751,
            "type" : "VEC3"
        },
        {
            "bufferView" : 6,
            "componentType" : 5126,
            "count" : 42751,
            "type" : "VEC2"
        },
        {
            "bufferView" : 7,
            "componentType" : 5123,
            "count" : 60573,
            "type" : "SCALAR"
        },
        {
            "bufferView" : 8,
            "componentType" : 5126,
            "count" : 24,
            "max" : [
                100,
                0,
                100
            ],
            "min" : [
                -100,
                -10,
                -100
            ],
            "type" : "VEC3"
        },
        {
            "bufferView" : 9,
            "componentType" : 5126,
            "count" : 24,
            "type" : "VEC3"
        },
        {
            "bufferView" : 10,
            "componentType" : 5126,
            "count" : 24,
            "type" : "VEC2"
        },
        {
            "bufferView" : 11,
            "componentType" : 5123,
            "count" : 36,
            "type" : "SCALAR"
        }
    ],
    "bufferViews" : [
        {
            "buffer" : 0,
            "byteLength" : 289560,
            "byteOffset" : 0
        },
        {
            "buffer" : 0,
            "byteLength" : 289560,
            "byteOffset" : 289560
        },
        {
            "buffer" : 0,
            "byteLength" : 193040,
            "byteOffset" : 579120
        },
        {
            "buffer" : 0,
            "byteLength" : 58866,
            "byteOffset" : 772160
        },
        {
            "buffer" : 0,
            "byteLength" : 513012,
            "byteOffset" : 831028
        },
        {
            "buffer" : 0,
            "byteLength" : 513012,
            "byteOffset" : 1344040
        },
        {
            "buffer" : 0,
            "byteLength" : 342008,
            "byteOffset" : 1857052
        },
        {
            "buffer" : 0,
            "byteLength" : 121146,
            "byteOffset" : 2199060
        },
        {
            "buffer" : 0,
            "byteLength" : 288,
            "byteOffset" : 2320208
        },
        {
            "buffer" : 0,
            "byteLength" : 288,
            "byteOffset" : 2320496
        },
        {
            "buffer" : 0,
            "byteLength" : 192,
            "byteOffset" : 2320784
        },
        {
            "buffer" : 0,
            "byteLength" : 72,
            "byteOffset" : 2320976
        }
    ],
    "samplers" : [
        {
            "magFilter" : 9729,
            "minFilter" : 9987
        }
    ],
    "buffers" : [
        {
            "byteLength" : 2321048,
            "uri" : "CS9.bin"
        }
    ]
}
