{
    "asset" : {
        "generator" : "Khronos glTF Blender I/O v1.7.33",
        "version" : "2.0"
    },
    "scene" : 0,
    "scenes" : [
        {
            "name" : "Scene",
            "nodes" : [
                7
            ]
        }
    ],
    "nodes" : [
        {
            "mesh" : 0,
            "name" : "Plane",
            "scale" : [
                2.9711811542510986,
                2.9711811542510986,
                1
            ],
            "translation" : [
                -155.5501708984375,
                -81.2475814819336,
                140.07443237304688
            ]
        },
        {
            "mesh" : 1,
            "name" : "HALF_SPHERE_03",
            "rotation" : [
                0.3004196584224701,
                -0.041600558906793594,
                -0.013116603717207909,
                0.9528093338012695
            ],
            "translation" : [
                20.047618865966797,
                61.23414611816406,
                119.7022476196289
            ]
        },
        {
            "mesh" : 2,
            "name" : "SPHERE_01",
            "translation" : [
                -552.946533203125,
                -241.25604248046875,
                121.6279525756836
            ]
        },
        {
            "children" : [
                1,
                2
            ],
            "name" : "SPHERE_HALF_SPHERE",
            "translation" : [
                253.35415649414062,
                -167.86973571777344,
                14.925562858581543
            ]
        },
        {
            "mesh" : 3,
            "name" : "Extrude_CYLINDER_L_01_1_2"
        },
        {
            "children" : [
                4
            ],
            "name" : "Extrude_CYLINDER_L_01_1"
        },
        {
            "children" : [
                5
            ],
            "name" : "Subdivision_Surface",
            "rotation" : [
                0.1530458927154541,
                -0.6903455257415771,
                0.1530459225177765,
                0.6903455257415771
            ],
            "translation" : [
                -282.93743896484375,
                231.311279296875,
                -14.925562858581543
            ]
        },
        {
            "children" : [
                0,
                3,
                6
            ],
            "name" : "OBJECTS",
            "rotation" : [
                0.7071068286895752,
                0,
                0,
                0.7071067094802856
            ],
            "scale" : [
                0.009999999776482582,
                0.009999999776482582,
                0.009999999776482582
            ],
            "translation" : [
                -2.5444982051849365,
                1.4007443189620972,
                -1.637524127960205
            ]
        }
    ],
    "animations" : [
        {
            "channels" : [
                {
                    "sampler" : 0,
                    "target" : {
                        "node" : 2,
                        "path" : "translation"
                    }
                },
                {
                    "sampler" : 1,
                    "target" : {
                        "node" : 2,
                        "path" : "rotation"
                    }
                },
                {
                    "sampler" : 2,
                    "target" : {
                        "node" : 2,
                        "path" : "scale"
                    }
                }
            ],
            "name" : "SPHERE_01|CINEMA_4D_Main|Layer0",
            "samplers" : [
                {
                    "input" : 16,
                    "interpolation" : "LINEAR",
                    "output" : 17
                },
                {
                    "input" : 18,
                    "interpolation" : "LINEAR",
                    "output" : 19
                },
                {
                    "input" : 18,
                    "interpolation" : "LINEAR",
                    "output" : 20
                }
            ]
        },
        {
            "channels" : [
                {
                    "sampler" : 0,
                    "target" : {
                        "node" : 1,
                        "path" : "translation"
                    }
                },
                {
                    "sampler" : 1,
                    "target" : {
                        "node" : 1,
                        "path" : "rotation"
                    }
                },
                {
                    "sampler" : 2,
                    "target" : {
                        "node" : 1,
                        "path" : "scale"
                    }
                }
            ],
            "name" : "HALF_SPHERE_03|CINEMA_4D_Main|Layer0",
            "samplers" : [
                {
                    "input" : 21,
                    "interpolation" : "LINEAR",
                    "output" : 22
                },
                {
                    "input" : 23,
                    "interpolation" : "LINEAR",
                    "output" : 24
                },
                {
                    "input" : 21,
                    "interpolation" : "LINEAR",
                    "output" : 25
                }
            ]
        },
        {
            "channels" : [
                {
                    "sampler" : 0,
                    "target" : {
                        "node" : 6,
                        "path" : "translation"
                    }
                },
                {
                    "sampler" : 1,
                    "target" : {
                        "node" : 6,
                        "path" : "rotation"
                    }
                },
                {
                    "sampler" : 2,
                    "target" : {
                        "node" : 6,
                        "path" : "scale"
                    }
                }
            ],
            "name" : "Subdivision_Surface|CINEMA_4D_Main|Layer0",
            "samplers" : [
                {
                    "input" : 23,
                    "interpolation" : "LINEAR",
                    "output" : 26
                },
                {
                    "input" : 23,
                    "interpolation" : "LINEAR",
                    "output" : 27
                },
                {
                    "input" : 21,
                    "interpolation" : "LINEAR",
                    "output" : 28
                }
            ]
        }
    ],
    "materials" : [
        {
            "doubleSided" : true,
            "name" : "Yellow",
            "pbrMetallicRoughness" : {
                "baseColorFactor" : [
                    1,
                    0.6038272976875305,
                    0,
                    1
                ],
                "metallicFactor" : 0
            }
        },
        {
            "doubleSided" : true,
            "name" : "Yellow Light",
            "pbrMetallicRoughness" : {
                "baseColorFactor" : [
                    1,
                    0.6745724678039551,
                    0.17857158184051514,
                    1
                ],
                "metallicFactor" : 0
            }
        }
    ],
    "meshes" : [
        {
            "name" : "Mesh.002",
            "primitives" : [
                {
                    "attributes" : {
                        "POSITION" : 0,
                        "NORMAL" : 1,
                        "TEXCOORD_0" : 2
                    },
                    "indices" : 3,
                    "material" : 0
                }
            ]
        },
        {
            "name" : "Mesh.004",
            "primitives" : [
                {
                    "attributes" : {
                        "POSITION" : 4,
                        "NORMAL" : 5,
                        "TEXCOORD_0" : 6
                    },
                    "indices" : 7,
                    "material" : 0
                }
            ]
        },
        {
            "name" : "Mesh.003",
            "primitives" : [
                {
                    "attributes" : {
                        "POSITION" : 8,
                        "NORMAL" : 9,
                        "TEXCOORD_0" : 10
                    },
                    "indices" : 11,
                    "material" : 1
                }
            ]
        },
        {
            "name" : "Mesh.005",
            "primitives" : [
                {
                    "attributes" : {
                        "POSITION" : 12,
                        "NORMAL" : 13,
                        "TEXCOORD_0" : 14
                    },
                    "indices" : 15,
                    "material" : 1
                }
            ]
        }
    ],
    "accessors" : [
        {
            "bufferView" : 0,
            "componentType" : 5126,
            "count" : 121,
            "max" : [
                1000,
                1000,
                0
            ],
            "min" : [
                -1000,
                -1000,
                0
            ],
            "type" : "VEC3"
        },
        {
            "bufferView" : 1,
            "componentType" : 5126,
            "count" : 121,
            "type" : "VEC3"
        },
        {
            "bufferView" : 2,
            "componentType" : 5126,
            "count" : 121,
            "type" : "VEC2"
        },
        {
            "bufferView" : 3,
            "componentType" : 5123,
            "count" : 600,
            "type" : "SCALAR"
        },
        {
            "bufferView" : 4,
            "componentType" : 5126,
            "count" : 7456,
            "max" : [
                179.93125915527344,
                179.9242706298828,
                0
            ],
            "min" : [
                -179.93125915527344,
                -179.9242706298828,
                -179.9475860595703
            ],
            "type" : "VEC3"
        },
        {
            "bufferView" : 5,
            "componentType" : 5126,
            "count" : 7456,
            "type" : "VEC3"
        },
        {
            "bufferView" : 6,
            "componentType" : 5126,
            "count" : 7456,
            "type" : "VEC2"
        },
        {
            "bufferView" : 7,
            "componentType" : 5123,
            "count" : 44724,
            "type" : "SCALAR"
        },
        {
            "bufferView" : 8,
            "componentType" : 5126,
            "count" : 8383,
            "max" : [
                60,
                60,
                0
            ],
            "min" : [
                -60,
                -60,
                -120
            ],
            "type" : "VEC3"
        },
        {
            "bufferView" : 9,
            "componentType" : 5126,
            "count" : 8383,
            "type" : "VEC3"
        },
        {
            "bufferView" : 10,
            "componentType" : 5126,
            "count" : 8383,
            "type" : "VEC2"
        },
        {
            "bufferView" : 11,
            "componentType" : 5123,
            "count" : 48384,
            "type" : "SCALAR"
        },
        {
            "bufferView" : 12,
            "componentType" : 5126,
            "count" : 1906,
            "max" : [
                153.60000610351562,
                153.60000610351562,
                307.20001220703125
            ],
            "min" : [
                -153.60000610351562,
                -153.60000610351562,
                -307.20001220703125
            ],
            "type" : "VEC3"
        },
        {
            "bufferView" : 13,
            "componentType" : 5126,
            "count" : 1906,
            "type" : "VEC3"
        },
        {
            "bufferView" : 14,
            "componentType" : 5126,
            "count" : 1906,
            "type" : "VEC2"
        },
        {
            "bufferView" : 15,
            "componentType" : 5123,
            "count" : 5700,
            "type" : "SCALAR"
        },
        {
            "bufferView" : 16,
            "componentType" : 5126,
            "count" : 331,
            "max" : [
                11.033333333333333
            ],
            "min" : [
                0.03333333333333333
            ],
            "type" : "SCALAR"
        },
        {
            "bufferView" : 17,
            "componentType" : 5126,
            "count" : 331,
            "type" : "VEC3"
        },
        {
            "bufferView" : 18,
            "componentType" : 5126,
            "count" : 2,
            "max" : [
                11.033333333333333
            ],
            "min" : [
                0.03333333333333333
            ],
            "type" : "SCALAR"
        },
        {
            "bufferView" : 19,
            "componentType" : 5126,
            "count" : 2,
            "type" : "VEC4"
        },
        {
            "bufferView" : 20,
            "componentType" : 5126,
            "count" : 2,
            "type" : "VEC3"
        },
        {
            "bufferView" : 21,
            "componentType" : 5126,
            "count" : 2,
            "max" : [
                15
            ],
            "min" : [
                0.03333333333333333
            ],
            "type" : "SCALAR"
        },
        {
            "bufferView" : 22,
            "componentType" : 5126,
            "count" : 2,
            "type" : "VEC3"
        },
        {
            "bufferView" : 23,
            "componentType" : 5126,
            "count" : 450,
            "max" : [
                15
            ],
            "min" : [
                0.03333333333333333
            ],
            "type" : "SCALAR"
        },
        {
            "bufferView" : 24,
            "componentType" : 5126,
            "count" : 450,
            "type" : "VEC4"
        },
        {
            "bufferView" : 25,
            "componentType" : 5126,
            "count" : 2,
            "type" : "VEC3"
        },
        {
            "bufferView" : 26,
            "componentType" : 5126,
            "count" : 450,
            "type" : "VEC3"
        },
        {
            "bufferView" : 27,
            "componentType" : 5126,
            "count" : 450,
            "type" : "VEC4"
        },
        {
            "bufferView" : 28,
            "componentType" : 5126,
            "count" : 2,
            "type" : "VEC3"
        }
    ],
    "bufferViews" : [
        {
            "buffer" : 0,
            "byteLength" : 1452,
            "byteOffset" : 0
        },
        {
            "buffer" : 0,
            "byteLength" : 1452,
            "byteOffset" : 1452
        },
        {
            "buffer" : 0,
            "byteLength" : 968,
            "byteOffset" : 2904
        },
        {
            "buffer" : 0,
            "byteLength" : 1200,
            "byteOffset" : 3872
        },
        {
            "buffer" : 0,
            "byteLength" : 89472,
            "byteOffset" : 5072
        },
        {
            "buffer" : 0,
            "byteLength" : 89472,
            "byteOffset" : 94544
        },
        {
            "buffer" : 0,
            "byteLength" : 59648,
            "byteOffset" : 184016
        },
        {
            "buffer" : 0,
            "byteLength" : 89448,
            "byteOffset" : 243664
        },
        {
            "buffer" : 0,
            "byteLength" : 100596,
            "byteOffset" : 333112
        },
        {
            "buffer" : 0,
            "byteLength" : 100596,
            "byteOffset" : 433708
        },
        {
            "buffer" : 0,
            "byteLength" : 67064,
            "byteOffset" : 534304
        },
        {
            "buffer" : 0,
            "byteLength" : 96768,
            "byteOffset" : 601368
        },
        {
            "buffer" : 0,
            "byteLength" : 22872,
            "byteOffset" : 698136
        },
        {
            "buffer" : 0,
            "byteLength" : 22872,
            "byteOffset" : 721008
        },
        {
            "buffer" : 0,
            "byteLength" : 15248,
            "byteOffset" : 743880
        },
        {
            "buffer" : 0,
            "byteLength" : 11400,
            "byteOffset" : 759128
        },
        {
            "buffer" : 0,
            "byteLength" : 1324,
            "byteOffset" : 770528
        },
        {
            "buffer" : 0,
            "byteLength" : 3972,
            "byteOffset" : 771852
        },
        {
            "buffer" : 0,
            "byteLength" : 8,
            "byteOffset" : 775824
        },
        {
            "buffer" : 0,
            "byteLength" : 32,
            "byteOffset" : 775832
        },
        {
            "buffer" : 0,
            "byteLength" : 24,
            "byteOffset" : 775864
        },
        {
            "buffer" : 0,
            "byteLength" : 8,
            "byteOffset" : 775888
        },
        {
            "buffer" : 0,
            "byteLength" : 24,
            "byteOffset" : 775896
        },
        {
            "buffer" : 0,
            "byteLength" : 1800,
            "byteOffset" : 775920
        },
        {
            "buffer" : 0,
            "byteLength" : 7200,
            "byteOffset" : 777720
        },
        {
            "buffer" : 0,
            "byteLength" : 24,
            "byteOffset" : 784920
        },
        {
            "buffer" : 0,
            "byteLength" : 5400,
            "byteOffset" : 784944
        },
        {
            "buffer" : 0,
            "byteLength" : 7200,
            "byteOffset" : 790344
        },
        {
            "buffer" : 0,
            "byteLength" : 24,
            "byteOffset" : 797544
        }
    ],
    "buffers" : [
        {
            "byteLength" : 797568,
            "uri" : "HS.bin"
        }
    ]
}
