{
    "asset" : {
        "generator" : "Khronos glTF Blender I/O v1.7.33",
        "version" : "2.0"
    },
    "scene" : 0,
    "scenes" : [
        {
            "name" : "Scene",
            "nodes" : [
                0,
                1
            ]
        }
    ],
    "nodes" : [
        {
            "mesh" : 0,
            "name" : "Model_LP"
        },
        {
            "mesh" : 1,
            "name" : "Model_LP2"
        }
    ],
    "materials" : [
        {
            "doubleSided" : true,
            "name" : "line",
            "pbrMetallicRoughness" : {
                "baseColorFactor" : [
                    0.800000011920929,
                    0.800000011920929,
                    0.800000011920929,
                    1
                ],
                "metallicFactor" : 0,
                "roughnessFactor" : 0.5
            }
        },
        {
            "doubleSided" : true,
            "name" : "full",
            "normalTexture" : {
                "index" : 0
            },
            "pbrMetallicRoughness" : {
                "baseColorTexture" : {
                    "index" : 1
                },
                "metallicRoughnessTexture" : {
                    "index" : 2
                }
            }
        }
    ],
    "meshes" : [
        {
            "name" : "Model_LP",
            "primitives" : [
                {
                    "attributes" : {
                        "POSITION" : 0,
                        "NORMAL" : 1,
                        "TEXCOORD_0" : 2
                    },
                    "indices" : 3,
                    "material" : 0
                }
            ]
        },
        {
            "name" : "Model_LP2",
            "primitives" : [
                {
                    "attributes" : {
                        "POSITION" : 4,
                        "NORMAL" : 5,
                        "TEXCOORD_0" : 6
                    },
                    "indices" : 7,
                    "material" : 1
                }
            ]
        }
    ],
    "textures" : [
        {
            "sampler" : 0,
            "source" : 0
        },
        {
            "sampler" : 0,
            "source" : 1
        },
        {
            "sampler" : 0,
            "source" : 2
        }
    ],
    "images" : [
        {
            "mimeType" : "image/png",
            "name" : "Normal map_tif",
            "uri" : "Normal%20map_tif.png"
        },
        {
            "mimeType" : "image/png",
            "name" : "Diffuse Texture",
            "uri" : "Diffuse%20Texture.png"
        },
        {
            "mimeType" : "image/png",
            "name" : "Glossyrock",
            "uri" : "Glossyrock.png"
        }
    ],
    "accessors" : [
        {
            "bufferView" : 0,
            "componentType" : 5126,
            "count" : 3521,
            "max" : [
                0.6628201603889465,
                0.8804569244384766,
                0.40765872597694397
            ],
            "min" : [
                -0.5470514893531799,
                -0.8720952272415161,
                -0.35177648067474365
            ],
            "type" : "VEC3"
        },
        {
            "bufferView" : 1,
            "componentType" : 5126,
            "count" : 3521,
            "type" : "VEC3"
        },
        {
            "bufferView" : 2,
            "componentType" : 5126,
            "count" : 3521,
            "type" : "VEC2"
        },
        {
            "bufferView" : 3,
            "componentType" : 5123,
            "count" : 20286,
            "type" : "SCALAR"
        },
        {
            "bufferView" : 4,
            "componentType" : 5126,
            "count" : 7042,
            "max" : [
                0.6633096933364868,
                0.8809490203857422,
                0.4081442654132843
            ],
            "min" : [
                -0.5475274324417114,
                -0.872585654258728,
                -0.35227474570274353
            ],
            "type" : "VEC3"
        },
        {
            "bufferView" : 5,
            "componentType" : 5126,
            "count" : 7042,
            "type" : "VEC3"
        },
        {
            "bufferView" : 6,
            "componentType" : 5126,
            "count" : 7042,
            "type" : "VEC2"
        },
        {
            "bufferView" : 7,
            "componentType" : 5123,
            "count" : 42228,
            "type" : "SCALAR"
        }
    ],
    "bufferViews" : [
        {
            "buffer" : 0,
            "byteLength" : 42252,
            "byteOffset" : 0
        },
        {
            "buffer" : 0,
            "byteLength" : 42252,
            "byteOffset" : 42252
        },
        {
            "buffer" : 0,
            "byteLength" : 28168,
            "byteOffset" : 84504
        },
        {
            "buffer" : 0,
            "byteLength" : 40572,
            "byteOffset" : 112672
        },
        {
            "buffer" : 0,
            "byteLength" : 84504,
            "byteOffset" : 153244
        },
        {
            "buffer" : 0,
            "byteLength" : 84504,
            "byteOffset" : 237748
        },
        {
            "buffer" : 0,
            "byteLength" : 56336,
            "byteOffset" : 322252
        },
        {
            "buffer" : 0,
            "byteLength" : 84456,
            "byteOffset" : 378588
        }
    ],
    "samplers" : [
        {
            "magFilter" : 9729,
            "minFilter" : 9987
        }
    ],
    "buffers" : [
        {
            "byteLength" : 463044,
            "uri" : "LE5.bin"
        }
    ]
}
