{
    "asset" : {
        "generator" : "Khronos glTF Blender I/O v1.7.33",
        "version" : "2.0"
    },
    "scene" : 0,
    "scenes" : [
        {
            "name" : "Scene",
            "nodes" : [
                0,
                1,
                2
            ]
        }
    ],
    "nodes" : [
        {
            "mesh" : 0,
            "name" : "Model_LP"
        },
        {
            "mesh" : 1,
            "name" : "Model_LP2B"
        },
        {
            "mesh" : 2,
            "name" : "Model_LP2A"
        }
    ],
    "materials" : [
        {
            "doubleSided" : true,
            "name" : "line",
            "pbrMetallicRoughness" : {
                "baseColorFactor" : [
                    0.800000011920929,
                    0.800000011920929,
                    0.800000011920929,
                    1
                ],
                "metallicFactor" : 0,
                "roughnessFactor" : 0.5
            }
        },
        {
            "doubleSided" : true,
            "name" : "Metalcut",
            "pbrMetallicRoughness" : {
                "baseColorTexture" : {
                    "index" : 0
                },
                "metallicRoughnessTexture" : {
                    "index" : 1
                }
            }
        },
        {
            "doubleSided" : true,
            "emissiveFactor" : [
                1,
                1,
                1
            ],
            "emissiveTexture" : {
                "index" : 2
            },
            "name" : "Full",
            "normalTexture" : {
                "index" : 3
            },
            "pbrMetallicRoughness" : {
                "baseColorTexture" : {
                    "index" : 4
                },
                "metallicRoughnessTexture" : {
                    "index" : 5
                }
            }
        }
    ],
    "meshes" : [
        {
            "name" : "Model_LP",
            "primitives" : [
                {
                    "attributes" : {
                        "POSITION" : 0,
                        "NORMAL" : 1,
                        "TEXCOORD_0" : 2
                    },
                    "indices" : 3,
                    "material" : 0
                }
            ]
        },
        {
            "name" : "Model_LP2Face",
            "primitives" : [
                {
                    "attributes" : {
                        "POSITION" : 4,
                        "NORMAL" : 5,
                        "TEXCOORD_0" : 6
                    },
                    "indices" : 7,
                    "material" : 1
                },
                {
                    "attributes" : {
                        "POSITION" : 8,
                        "NORMAL" : 9,
                        "TEXCOORD_0" : 10
                    },
                    "indices" : 11,
                    "material" : 2
                }
            ]
        },
        {
            "name" : "Model_LP2A",
            "primitives" : [
                {
                    "attributes" : {
                        "POSITION" : 12,
                        "NORMAL" : 13,
                        "TEXCOORD_0" : 14
                    },
                    "indices" : 7,
                    "material" : 1
                },
                {
                    "attributes" : {
                        "POSITION" : 15,
                        "NORMAL" : 16,
                        "TEXCOORD_0" : 17
                    },
                    "indices" : 18,
                    "material" : 2
                }
            ]
        }
    ],
    "textures" : [
        {
            "sampler" : 0,
            "source" : 0
        },
        {
            "sampler" : 0,
            "source" : 1
        },
        {
            "sampler" : 0,
            "source" : 2
        },
        {
            "sampler" : 0,
            "source" : 3
        },
        {
            "sampler" : 0,
            "source" : 4
        },
        {
            "sampler" : 0,
            "source" : 5
        }
    ],
    "images" : [
        {
            "mimeType" : "image/jpeg",
            "name" : "Cutdiffuse",
            "uri" : "Cutdiffuse.jpg"
        },
        {
            "mimeType" : "image/png",
            "name" : "Cutrough",
            "uri" : "Cutrough.png"
        },
        {
            "mimeType" : "image/jpeg",
            "name" : "Emmisive",
            "uri" : "Emmisive.jpg"
        },
        {
            "mimeType" : "image/png",
            "name" : "Normal map_tif",
            "uri" : "Normal%20map_tif.png"
        },
        {
            "mimeType" : "image/jpeg",
            "name" : "Diffuse-Texture",
            "uri" : "Diffuse-Texture.jpg"
        },
        {
            "mimeType" : "image/png",
            "name" : "Glossyrock",
            "uri" : "Glossyrock.png"
        }
    ],
    "accessors" : [
        {
            "bufferView" : 0,
            "componentType" : 5126,
            "count" : 3521,
            "max" : [
                0.652610182762146,
                0.870121955871582,
                0.39746251702308655
            ],
            "min" : [
                -0.537206768989563,
                -0.8617942333221436,
                -0.3413126766681671
            ],
            "type" : "VEC3"
        },
        {
            "bufferView" : 1,
            "componentType" : 5126,
            "count" : 3521,
            "type" : "VEC3"
        },
        {
            "bufferView" : 2,
            "componentType" : 5126,
            "count" : 3521,
            "type" : "VEC2"
        },
        {
            "bufferView" : 3,
            "componentType" : 5123,
            "count" : 20286,
            "type" : "SCALAR"
        },
        {
            "bufferView" : 4,
            "componentType" : 5126,
            "count" : 179,
            "max" : [
                0.46165865659713745,
                0.70123291015625,
                0.26365575194358826
            ],
            "min" : [
                -0.4808887839317322,
                -0.3916991055011749,
                -0.33798882365226746
            ],
            "type" : "VEC3"
        },
        {
            "bufferView" : 5,
            "componentType" : 5126,
            "count" : 179,
            "type" : "VEC3"
        },
        {
            "bufferView" : 6,
            "componentType" : 5126,
            "count" : 179,
            "type" : "VEC2"
        },
        {
            "bufferView" : 7,
            "componentType" : 5123,
            "count" : 531,
            "type" : "SCALAR"
        },
        {
            "bufferView" : 8,
            "componentType" : 5126,
            "count" : 1266,
            "max" : [
                0.4616587162017822,
                0.8807725310325623,
                0.26365575194358826
            ],
            "min" : [
                -0.48593467473983765,
                -0.39169907569885254,
                -0.35177648067474365
            ],
            "type" : "VEC3"
        },
        {
            "bufferView" : 9,
            "componentType" : 5126,
            "count" : 1266,
            "type" : "VEC3"
        },
        {
            "bufferView" : 10,
            "componentType" : 5126,
            "count" : 1266,
            "type" : "VEC2"
        },
        {
            "bufferView" : 11,
            "componentType" : 5123,
            "count" : 6759,
            "type" : "SCALAR"
        },
        {
            "bufferView" : 12,
            "componentType" : 5126,
            "count" : 179,
            "max" : [
                0.46165865659713745,
                0.70123291015625,
                0.26365575194358826
            ],
            "min" : [
                -0.4808887839317322,
                -0.3916991055011749,
                -0.33798882365226746
            ],
            "type" : "VEC3"
        },
        {
            "bufferView" : 13,
            "componentType" : 5126,
            "count" : 179,
            "type" : "VEC3"
        },
        {
            "bufferView" : 14,
            "componentType" : 5126,
            "count" : 179,
            "type" : "VEC2"
        },
        {
            "bufferView" : 15,
            "componentType" : 5126,
            "count" : 2583,
            "max" : [
                0.6628199219703674,
                0.70123291015625,
                0.4072420299053192
            ],
            "min" : [
                -0.5470512509346008,
                -0.8720951080322266,
                -0.33798882365226746
            ],
            "type" : "VEC3"
        },
        {
            "bufferView" : 16,
            "componentType" : 5126,
            "count" : 2583,
            "type" : "VEC3"
        },
        {
            "bufferView" : 17,
            "componentType" : 5126,
            "count" : 2583,
            "type" : "VEC2"
        },
        {
            "bufferView" : 18,
            "componentType" : 5123,
            "count" : 13680,
            "type" : "SCALAR"
        }
    ],
    "bufferViews" : [
        {
            "buffer" : 0,
            "byteLength" : 42252,
            "byteOffset" : 0
        },
        {
            "buffer" : 0,
            "byteLength" : 42252,
            "byteOffset" : 42252
        },
        {
            "buffer" : 0,
            "byteLength" : 28168,
            "byteOffset" : 84504
        },
        {
            "buffer" : 0,
            "byteLength" : 40572,
            "byteOffset" : 112672
        },
        {
            "buffer" : 0,
            "byteLength" : 2148,
            "byteOffset" : 153244
        },
        {
            "buffer" : 0,
            "byteLength" : 2148,
            "byteOffset" : 155392
        },
        {
            "buffer" : 0,
            "byteLength" : 1432,
            "byteOffset" : 157540
        },
        {
            "buffer" : 0,
            "byteLength" : 1062,
            "byteOffset" : 158972
        },
        {
            "buffer" : 0,
            "byteLength" : 15192,
            "byteOffset" : 160036
        },
        {
            "buffer" : 0,
            "byteLength" : 15192,
            "byteOffset" : 175228
        },
        {
            "buffer" : 0,
            "byteLength" : 10128,
            "byteOffset" : 190420
        },
        {
            "buffer" : 0,
            "byteLength" : 13518,
            "byteOffset" : 200548
        },
        {
            "buffer" : 0,
            "byteLength" : 2148,
            "byteOffset" : 214068
        },
        {
            "buffer" : 0,
            "byteLength" : 2148,
            "byteOffset" : 216216
        },
        {
            "buffer" : 0,
            "byteLength" : 1432,
            "byteOffset" : 218364
        },
        {
            "buffer" : 0,
            "byteLength" : 30996,
            "byteOffset" : 219796
        },
        {
            "buffer" : 0,
            "byteLength" : 30996,
            "byteOffset" : 250792
        },
        {
            "buffer" : 0,
            "byteLength" : 20664,
            "byteOffset" : 281788
        },
        {
            "buffer" : 0,
            "byteLength" : 27360,
            "byteOffset" : 302452
        }
    ],
    "samplers" : [
        {
            "magFilter" : 9729,
            "minFilter" : 9987
        }
    ],
    "buffers" : [
        {
            "byteLength" : 329812,
            "uri" : "LE8.bin"
        }
    ]
}
