{
    "asset" : {
        "generator" : "Khronos glTF Blender I/O v1.7.33",
        "version" : "2.0"
    },
    "scene" : 0,
    "scenes" : [
        {
            "name" : "Scene",
            "nodes" : [
                0,
                1,
                2
            ]
        }
    ],
    "nodes" : [
        {
            "mesh" : 0,
            "name" : "Model_LP"
        },
        {
            "mesh" : 1,
            "name" : "Model_LP2B"
        },
        {
            "mesh" : 2,
            "name" : "Model_LP2A"
        }
    ],
    "materials" : [
        {
            "doubleSided" : true,
            "name" : "Metalcut",
            "pbrMetallicRoughness" : {
                "baseColorTexture" : {
                    "index" : 0
                },
                "metallicRoughnessTexture" : {
                    "index" : 1
                }
            }
        },
        {
            "doubleSided" : true,
            "emissiveFactor" : [
                1,
                1,
                1
            ],
            "emissiveTexture" : {
                "index" : 2
            },
            "name" : "Full",
            "normalTexture" : {
                "index" : 3
            },
            "pbrMetallicRoughness" : {
                "baseColorTexture" : {
                    "index" : 4
                },
                "metallicRoughnessTexture" : {
                    "index" : 5
                }
            }
        }
    ],
    "meshes" : [
        {
            "name" : "Model_LP",
            "primitives" : [
                {
                    "attributes" : {
                        "POSITION" : 0,
                        "NORMAL" : 1,
                        "TEXCOORD_0" : 2,
                        "TEXCOORD_1" : 3
                    },
                    "indices" : 4
                }
            ]
        },
        {
            "name" : "Model_LP2B",
            "primitives" : [
                {
                    "attributes" : {
                        "POSITION" : 5,
                        "NORMAL" : 6,
                        "TEXCOORD_0" : 7
                    },
                    "indices" : 8,
                    "material" : 0
                },
                {
                    "attributes" : {
                        "POSITION" : 9,
                        "NORMAL" : 10,
                        "TEXCOORD_0" : 11
                    },
                    "indices" : 12,
                    "material" : 1
                }
            ]
        },
        {
            "name" : "Model_LP2A",
            "primitives" : [
                {
                    "attributes" : {
                        "POSITION" : 13,
                        "NORMAL" : 14,
                        "TEXCOORD_0" : 15
                    },
                    "indices" : 8,
                    "material" : 0
                },
                {
                    "attributes" : {
                        "POSITION" : 16,
                        "NORMAL" : 17,
                        "TEXCOORD_0" : 18
                    },
                    "indices" : 19,
                    "material" : 1
                }
            ]
        }
    ],
    "textures" : [
        {
            "sampler" : 0,
            "source" : 0
        },
        {
            "sampler" : 0,
            "source" : 1
        },
        {
            "sampler" : 0,
            "source" : 2
        },
        {
            "sampler" : 0,
            "source" : 3
        },
        {
            "sampler" : 0,
            "source" : 4
        },
        {
            "sampler" : 0,
            "source" : 5
        }
    ],
    "images" : [
        {
            "mimeType" : "image/jpeg",
            "name" : "Cutdiffuse",
            "uri" : "Cutdiffuse.jpg"
        },
        {
            "mimeType" : "image/jpeg",
            "name" : "Cutrough",
            "uri" : "Cutrough.jpg"
        },
        {
            "mimeType" : "image/jpeg",
            "name" : "Emmisive",
            "uri" : "Emmisive.jpg"
        },
        {
            "mimeType" : "image/jpeg",
            "name" : "Normal map_tif",
            "uri" : "Normal%20map_tif.jpg"
        },
        {
            "mimeType" : "image/jpeg",
            "name" : "Diffuse-Texture",
            "uri" : "Diffuse-Texture.jpg"
        },
        {
            "mimeType" : "image/jpeg",
            "name" : "Glossyrock",
            "uri" : "Glossyrock.jpg"
        }
    ],
    "accessors" : [
        {
            "bufferView" : 0,
            "componentType" : 5126,
            "count" : 5196,
            "max" : [
                0.652610182762146,
                0.870121955871582,
                0.39746251702308655
            ],
            "min" : [
                -0.537206768989563,
                -0.8617942333221436,
                -0.3413126766681671
            ],
            "type" : "VEC3"
        },
        {
            "bufferView" : 1,
            "componentType" : 5126,
            "count" : 5196,
            "type" : "VEC3"
        },
        {
            "bufferView" : 2,
            "componentType" : 5126,
            "count" : 5196,
            "type" : "VEC2"
        },
        {
            "bufferView" : 3,
            "componentType" : 5126,
            "count" : 5196,
            "type" : "VEC2"
        },
        {
            "bufferView" : 4,
            "componentType" : 5123,
            "count" : 20286,
            "type" : "SCALAR"
        },
        {
            "bufferView" : 5,
            "componentType" : 5126,
            "count" : 179,
            "max" : [
                0.46165865659713745,
                0.70123291015625,
                0.26365575194358826
            ],
            "min" : [
                -0.4808887839317322,
                -0.3916991055011749,
                -0.33798882365226746
            ],
            "type" : "VEC3"
        },
        {
            "bufferView" : 6,
            "componentType" : 5126,
            "count" : 179,
            "type" : "VEC3"
        },
        {
            "bufferView" : 7,
            "componentType" : 5126,
            "count" : 179,
            "type" : "VEC2"
        },
        {
            "bufferView" : 8,
            "componentType" : 5123,
            "count" : 531,
            "type" : "SCALAR"
        },
        {
            "bufferView" : 9,
            "componentType" : 5126,
            "count" : 1266,
            "max" : [
                0.4616587162017822,
                0.8807725310325623,
                0.26365575194358826
            ],
            "min" : [
                -0.48593467473983765,
                -0.39169907569885254,
                -0.35177648067474365
            ],
            "type" : "VEC3"
        },
        {
            "bufferView" : 10,
            "componentType" : 5126,
            "count" : 1266,
            "type" : "VEC3"
        },
        {
            "bufferView" : 11,
            "componentType" : 5126,
            "count" : 1266,
            "type" : "VEC2"
        },
        {
            "bufferView" : 12,
            "componentType" : 5123,
            "count" : 6759,
            "type" : "SCALAR"
        },
        {
            "bufferView" : 13,
            "componentType" : 5126,
            "count" : 179,
            "max" : [
                0.46165865659713745,
                0.70123291015625,
                0.26365575194358826
            ],
            "min" : [
                -0.4808887839317322,
                -0.3916991055011749,
                -0.33798882365226746
            ],
            "type" : "VEC3"
        },
        {
            "bufferView" : 14,
            "componentType" : 5126,
            "count" : 179,
            "type" : "VEC3"
        },
        {
            "bufferView" : 15,
            "componentType" : 5126,
            "count" : 179,
            "type" : "VEC2"
        },
        {
            "bufferView" : 16,
            "componentType" : 5126,
            "count" : 2583,
            "max" : [
                0.6628199219703674,
                0.70123291015625,
                0.4072420299053192
            ],
            "min" : [
                -0.5470512509346008,
                -0.8720951080322266,
                -0.33798882365226746
            ],
            "type" : "VEC3"
        },
        {
            "bufferView" : 17,
            "componentType" : 5126,
            "count" : 2583,
            "type" : "VEC3"
        },
        {
            "bufferView" : 18,
            "componentType" : 5126,
            "count" : 2583,
            "type" : "VEC2"
        },
        {
            "bufferView" : 19,
            "componentType" : 5123,
            "count" : 13680,
            "type" : "SCALAR"
        }
    ],
    "bufferViews" : [
        {
            "buffer" : 0,
            "byteLength" : 62352,
            "byteOffset" : 0
        },
        {
            "buffer" : 0,
            "byteLength" : 62352,
            "byteOffset" : 62352
        },
        {
            "buffer" : 0,
            "byteLength" : 41568,
            "byteOffset" : 124704
        },
        {
            "buffer" : 0,
            "byteLength" : 41568,
            "byteOffset" : 166272
        },
        {
            "buffer" : 0,
            "byteLength" : 40572,
            "byteOffset" : 207840
        },
        {
            "buffer" : 0,
            "byteLength" : 2148,
            "byteOffset" : 248412
        },
        {
            "buffer" : 0,
            "byteLength" : 2148,
            "byteOffset" : 250560
        },
        {
            "buffer" : 0,
            "byteLength" : 1432,
            "byteOffset" : 252708
        },
        {
            "buffer" : 0,
            "byteLength" : 1062,
            "byteOffset" : 254140
        },
        {
            "buffer" : 0,
            "byteLength" : 15192,
            "byteOffset" : 255204
        },
        {
            "buffer" : 0,
            "byteLength" : 15192,
            "byteOffset" : 270396
        },
        {
            "buffer" : 0,
            "byteLength" : 10128,
            "byteOffset" : 285588
        },
        {
            "buffer" : 0,
            "byteLength" : 13518,
            "byteOffset" : 295716
        },
        {
            "buffer" : 0,
            "byteLength" : 2148,
            "byteOffset" : 309236
        },
        {
            "buffer" : 0,
            "byteLength" : 2148,
            "byteOffset" : 311384
        },
        {
            "buffer" : 0,
            "byteLength" : 1432,
            "byteOffset" : 313532
        },
        {
            "buffer" : 0,
            "byteLength" : 30996,
            "byteOffset" : 314964
        },
        {
            "buffer" : 0,
            "byteLength" : 30996,
            "byteOffset" : 345960
        },
        {
            "buffer" : 0,
            "byteLength" : 20664,
            "byteOffset" : 376956
        },
        {
            "buffer" : 0,
            "byteLength" : 27360,
            "byteOffset" : 397620
        }
    ],
    "samplers" : [
        {
            "magFilter" : 9729,
            "minFilter" : 9987
        }
    ],
    "buffers" : [
        {
            "byteLength" : 424980,
            "uri" : "LE8.bin"
        }
    ]
}
