{
    "asset" : {
        "generator" : "Khronos glTF Blender I/O v1.7.33",
        "version" : "2.0"
    },
    "scene" : 0,
    "scenes" : [
        {
            "name" : "Scene",
            "nodes" : [
                0
            ]
        }
    ],
    "nodes" : [
        {
            "mesh" : 0,
            "name" : "Model_LP",
            "rotation" : [
                0.6971129775047302,
                -0.15898999571800232,
                -0.1184636577963829,
                0.6890008449554443
            ],
            "scale" : [
                0.2554561495780945,
                0.2554561495780945,
                0.2554561495780945
            ]
        }
    ],
    "materials" : [
        {
            "doubleSided" : true,
            "name" : "full",
            "normalTexture" : {
                "index" : 0
            },
            "pbrMetallicRoughness" : {
                "baseColorTexture" : {
                    "index" : 1
                },
                "metallicRoughnessTexture" : {
                    "index" : 2
                }
            }
        }
    ],
    "meshes" : [
        {
            "name" : "Model_LP",
            "primitives" : [
                {
                    "attributes" : {
                        "POSITION" : 0,
                        "NORMAL" : 1,
                        "TEXCOORD_0" : 2
                    },
                    "indices" : 3,
                    "material" : 0
                }
            ]
        }
    ],
    "textures" : [
        {
            "sampler" : 0,
            "source" : 0
        },
        {
            "sampler" : 0,
            "source" : 1
        },
        {
            "sampler" : 0,
            "source" : 2
        }
    ],
    "images" : [
        {
            "mimeType" : "image/png",
            "name" : "Normal map_tif",
            "uri" : "Normal%20map_tif.png"
        },
        {
            "mimeType" : "image/png",
            "name" : "Diffuse Texture",
            "uri" : "Diffuse%20Texture.png"
        },
        {
            "mimeType" : "image/png",
            "name" : "Glossyrock",
            "uri" : "Glossyrock.png"
        }
    ],
    "accessors" : [
        {
            "bufferView" : 0,
            "componentType" : 5126,
            "count" : 3521,
            "max" : [
                2.5470221042633057,
                1.6614989042282104,
                3.1724438667297363
            ],
            "min" : [
                -2.437364101409912,
                -1.3484464883804321,
                -3.320838451385498
            ],
            "type" : "VEC3"
        },
        {
            "bufferView" : 1,
            "componentType" : 5126,
            "count" : 3521,
            "type" : "VEC3"
        },
        {
            "bufferView" : 2,
            "componentType" : 5126,
            "count" : 3521,
            "type" : "VEC2"
        },
        {
            "bufferView" : 3,
            "componentType" : 5123,
            "count" : 20286,
            "type" : "SCALAR"
        }
    ],
    "bufferViews" : [
        {
            "buffer" : 0,
            "byteLength" : 42252,
            "byteOffset" : 0
        },
        {
            "buffer" : 0,
            "byteLength" : 42252,
            "byteOffset" : 42252
        },
        {
            "buffer" : 0,
            "byteLength" : 28168,
            "byteOffset" : 84504
        },
        {
            "buffer" : 0,
            "byteLength" : 40572,
            "byteOffset" : 112672
        }
    ],
    "samplers" : [
        {
            "magFilter" : 9729,
            "minFilter" : 9987
        }
    ],
    "buffers" : [
        {
            "byteLength" : 153244,
            "uri" : "untitled.bin"
        }
    ]
}
