{
    "asset" : {
        "generator" : "Khronos glTF Blender I/O v1.7.33",
        "version" : "2.0"
    },
    "extensionsUsed" : [
        "KHR_texture_transform"
    ],
    "extensionsRequired" : [
        "KHR_texture_transform"
    ],
    "scene" : 0,
    "scenes" : [
        {
            "name" : "Scene",
            "nodes" : [
                0,
                1,
                2,
                3,
                4,
                5
            ]
        }
    ],
    "nodes" : [
        {
            "mesh" : 0,
            "name" : "A6"
        },
        {
            "mesh" : 1,
            "name" : "A5"
        },
        {
            "mesh" : 2,
            "name" : "Band"
        },
        {
            "mesh" : 3,
            "name" : "Stickers",
            "translation" : [
                0.13351988792419434,
                0.38550400733947754,
                -0.7465695142745972
            ]
        },
        {
            "mesh" : 4,
            "name" : "Sticker",
            "rotation" : [
                0.7038673162460327,
                -0.06324589997529984,
                0.028197264298796654,
                0.7069481611251831
            ],
            "scale" : [
                0.8333333134651184,
                1,
                0.8333331942558289
            ],
            "translation" : [
                0.3866814076900482,
                0.7797942161560059,
                -0.5315829515457153
            ]
        },
        {
            "mesh" : 5,
            "name" : "combo"
        }
    ],
    "materials" : [
        {
            "doubleSided" : true,
            "name" : "A6",
            "normalTexture" : {
                "extensions" : {
                    "KHR_texture_transform" : {
                        "offset" : [
                            0,
                            -1
                        ]
                    }
                },
                "index" : 0
            },
            "pbrMetallicRoughness" : {
                "baseColorTexture" : {
                    "extensions" : {
                        "KHR_texture_transform" : {
                            "offset" : [
                                0,
                                -1
                            ]
                        }
                    },
                    "index" : 1
                },
                "metallicFactor" : 0.43236714601516724,
                "metallicRoughnessTexture" : {
                    "extensions" : {
                        "KHR_texture_transform" : {
                            "offset" : [
                                0,
                                -1
                            ]
                        }
                    },
                    "index" : 2
                }
            }
        },
        {
            "doubleSided" : true,
            "name" : "paper",
            "pbrMetallicRoughness" : {
                "metallicFactor" : 0
            }
        },
        {
            "doubleSided" : true,
            "name" : "A5",
            "pbrMetallicRoughness" : {
                "baseColorTexture" : {
                    "extensions" : {
                        "KHR_texture_transform" : {
                            "offset" : [
                                0,
                                -1
                            ]
                        }
                    },
                    "index" : 3
                },
                "metallicFactor" : 0.43236714601516724,
                "metallicRoughnessTexture" : {
                    "extensions" : {
                        "KHR_texture_transform" : {
                            "offset" : [
                                0,
                                -1
                            ]
                        }
                    },
                    "index" : 4
                }
            }
        },
        {
            "doubleSided" : true,
            "name" : "Bellyband",
            "normalTexture" : {
                "extensions" : {
                    "KHR_texture_transform" : {
                        "offset" : [
                            0,
                            -1
                        ]
                    }
                },
                "index" : 5
            },
            "pbrMetallicRoughness" : {
                "baseColorTexture" : {
                    "extensions" : {
                        "KHR_texture_transform" : {
                            "offset" : [
                                0,
                                -1
                            ]
                        }
                    },
                    "index" : 6
                },
                "metallicFactor" : 0.43236714601516724,
                "metallicRoughnessTexture" : {
                    "extensions" : {
                        "KHR_texture_transform" : {
                            "offset" : [
                                0,
                                -1
                            ]
                        }
                    },
                    "index" : 7
                }
            }
        },
        {
            "doubleSided" : true,
            "name" : "Stickersheet",
            "pbrMetallicRoughness" : {
                "baseColorTexture" : {
                    "extensions" : {
                        "KHR_texture_transform" : {
                            "offset" : [
                                0,
                                -1
                            ]
                        }
                    },
                    "index" : 8
                },
                "metallicFactor" : 0.35990336537361145,
                "roughnessFactor" : 0
            }
        }
    ],
    "meshes" : [
        {
            "name" : "A6",
            "primitives" : [
                {
                    "attributes" : {
                        "POSITION" : 0,
                        "NORMAL" : 1,
                        "TEXCOORD_0" : 2
                    },
                    "indices" : 3,
                    "material" : 0
                }
            ]
        },
        {
            "name" : "A5",
            "primitives" : [
                {
                    "attributes" : {
                        "POSITION" : 4,
                        "NORMAL" : 5,
                        "TEXCOORD_0" : 6
                    },
                    "indices" : 7,
                    "material" : 1
                },
                {
                    "attributes" : {
                        "POSITION" : 8,
                        "NORMAL" : 9,
                        "TEXCOORD_0" : 10
                    },
                    "indices" : 11,
                    "material" : 2
                }
            ]
        },
        {
            "name" : "Band",
            "primitives" : [
                {
                    "attributes" : {
                        "POSITION" : 12,
                        "NORMAL" : 13,
                        "TEXCOORD_0" : 14
                    },
                    "indices" : 15,
                    "material" : 3
                }
            ]
        },
        {
            "name" : "Stickers",
            "primitives" : [
                {
                    "attributes" : {
                        "POSITION" : 16,
                        "NORMAL" : 17,
                        "TEXCOORD_0" : 18
                    },
                    "indices" : 19,
                    "material" : 4
                }
            ]
        },
        {
            "name" : "Sticker",
            "primitives" : [
                {
                    "attributes" : {
                        "POSITION" : 20,
                        "NORMAL" : 21,
                        "TEXCOORD_0" : 22
                    },
                    "indices" : 23
                }
            ]
        },
        {
            "name" : "combo",
            "primitives" : [
                {
                    "attributes" : {
                        "POSITION" : 24,
                        "NORMAL" : 25,
                        "TEXCOORD_0" : 26,
                        "TEXCOORD_1" : 27
                    },
                    "indices" : 28
                }
            ]
        }
    ],
    "textures" : [
        {
            "sampler" : 0,
            "source" : 0
        },
        {
            "sampler" : 0,
            "source" : 1
        },
        {
            "sampler" : 0,
            "source" : 2
        },
        {
            "sampler" : 0,
            "source" : 3
        },
        {
            "sampler" : 0,
            "source" : 4
        },
        {
            "sampler" : 0,
            "source" : 5
        },
        {
            "sampler" : 0,
            "source" : 6
        },
        {
            "sampler" : 0,
            "source" : 7
        },
        {
            "sampler" : 0,
            "source" : 8
        }
    ],
    "images" : [
        {
            "mimeType" : "image/jpeg",
            "name" : "A6normal",
            "uri" : "A6normal.jpg"
        },
        {
            "mimeType" : "image/jpeg",
            "name" : "A6diffuse",
            "uri" : "A6diffuse.jpg"
        },
        {
            "mimeType" : "image/png",
            "name" : "A6rough",
            "uri" : "A6rough.png"
        },
        {
            "mimeType" : "image/jpeg",
            "name" : "A5diffuse",
            "uri" : "A5diffuse.jpg"
        },
        {
            "mimeType" : "image/png",
            "name" : "A5rough",
            "uri" : "A5rough.png"
        },
        {
            "mimeType" : "image/png",
            "name" : "BellybandNormal",
            "uri" : "BellybandNormal.png"
        },
        {
            "mimeType" : "image/jpeg",
            "name" : "BellybandDifuse",
            "uri" : "BellybandDifuse.jpg"
        },
        {
            "mimeType" : "image/png",
            "name" : "BellybandRough",
            "uri" : "BellybandRough.png"
        },
        {
            "mimeType" : "image/jpeg",
            "name" : "Stickers",
            "uri" : "Stickers.jpg"
        }
    ],
    "accessors" : [
        {
            "bufferView" : 0,
            "componentType" : 5126,
            "count" : 1330,
            "max" : [
                0.6366330981254578,
                1.0658977031707764,
                -0.5020182132720947
            ],
            "min" : [
                -0.6418322920799255,
                -1.064254879951477,
                -0.702944815158844
            ],
            "type" : "VEC3"
        },
        {
            "bufferView" : 1,
            "componentType" : 5126,
            "count" : 1330,
            "type" : "VEC3"
        },
        {
            "bufferView" : 2,
            "componentType" : 5126,
            "count" : 1330,
            "type" : "VEC2"
        },
        {
            "bufferView" : 3,
            "componentType" : 5123,
            "count" : 7368,
            "type" : "SCALAR"
        },
        {
            "bufferView" : 4,
            "componentType" : 5126,
            "count" : 1282,
            "max" : [
                1.0265018939971924,
                1.272615909576416,
                -0.5919634103775024
            ],
            "min" : [
                -0.7222015261650085,
                -1.2036292552947998,
                -0.8335011005401611
            ],
            "type" : "VEC3"
        },
        {
            "bufferView" : 5,
            "componentType" : 5126,
            "count" : 1282,
            "type" : "VEC3"
        },
        {
            "bufferView" : 6,
            "componentType" : 5126,
            "count" : 1282,
            "type" : "VEC2"
        },
        {
            "bufferView" : 7,
            "componentType" : 5123,
            "count" : 4638,
            "type" : "SCALAR"
        },
        {
            "bufferView" : 8,
            "componentType" : 5126,
            "count" : 172,
            "max" : [
                1.0265018939971924,
                1.2726160287857056,
                -0.36998963356018066
            ],
            "min" : [
                -0.7222015261650085,
                -1.2036292552947998,
                -0.8335011005401611
            ],
            "type" : "VEC3"
        },
        {
            "bufferView" : 9,
            "componentType" : 5126,
            "count" : 172,
            "type" : "VEC3"
        },
        {
            "bufferView" : 10,
            "componentType" : 5126,
            "count" : 172,
            "type" : "VEC2"
        },
        {
            "bufferView" : 11,
            "componentType" : 5123,
            "count" : 462,
            "type" : "SCALAR"
        },
        {
            "bufferView" : 12,
            "componentType" : 5126,
            "count" : 234,
            "max" : [
                1.0352842807769775,
                0.41999995708465576,
                -0.3623393177986145
            ],
            "min" : [
                -0.7280593514442444,
                -0.41999995708465576,
                -0.8404034376144409
            ],
            "type" : "VEC3"
        },
        {
            "bufferView" : 13,
            "componentType" : 5126,
            "count" : 234,
            "type" : "VEC3"
        },
        {
            "bufferView" : 14,
            "componentType" : 5126,
            "count" : 234,
            "type" : "VEC2"
        },
        {
            "bufferView" : 15,
            "componentType" : 5123,
            "count" : 672,
            "type" : "SCALAR"
        },
        {
            "bufferView" : 16,
            "componentType" : 5126,
            "count" : 26,
            "max" : [
                0.7070311307907104,
                0.9451560974121094,
                0.032679617404937744
            ],
            "min" : [
                -0.6784186363220215,
                -0.9448599815368652,
                -0.025236010551452637
            ],
            "type" : "VEC3"
        },
        {
            "bufferView" : 17,
            "componentType" : 5126,
            "count" : 26,
            "type" : "VEC3"
        },
        {
            "bufferView" : 18,
            "componentType" : 5126,
            "count" : 26,
            "type" : "VEC2"
        },
        {
            "bufferView" : 19,
            "componentType" : 5123,
            "count" : 72,
            "type" : "SCALAR"
        },
        {
            "bufferView" : 20,
            "componentType" : 5126,
            "count" : 4,
            "max" : [
                0.15000000596046448,
                0,
                0.15000000596046448
            ],
            "min" : [
                -0.15000000596046448,
                0,
                -0.15000000596046448
            ],
            "type" : "VEC3"
        },
        {
            "bufferView" : 21,
            "componentType" : 5126,
            "count" : 4,
            "type" : "VEC3"
        },
        {
            "bufferView" : 22,
            "componentType" : 5126,
            "count" : 4,
            "type" : "VEC2"
        },
        {
            "bufferView" : 23,
            "componentType" : 5123,
            "count" : 6,
            "type" : "SCALAR"
        },
        {
            "bufferView" : 24,
            "componentType" : 5126,
            "count" : 6080,
            "max" : [
                1.045371651649475,
                1.3360927104949951,
                -0.35451045632362366
            ],
            "min" : [
                -0.7381572127342224,
                -1.2137292623519897,
                -0.8505018949508667
            ],
            "type" : "VEC3"
        },
        {
            "bufferView" : 25,
            "componentType" : 5126,
            "count" : 6080,
            "type" : "VEC3"
        },
        {
            "bufferView" : 26,
            "componentType" : 5126,
            "count" : 6080,
            "type" : "VEC2"
        },
        {
            "bufferView" : 27,
            "componentType" : 5126,
            "count" : 6080,
            "type" : "VEC2"
        },
        {
            "bufferView" : 28,
            "componentType" : 5123,
            "count" : 31944,
            "type" : "SCALAR"
        }
    ],
    "bufferViews" : [
        {
            "buffer" : 0,
            "byteLength" : 15960,
            "byteOffset" : 0
        },
        {
            "buffer" : 0,
            "byteLength" : 15960,
            "byteOffset" : 15960
        },
        {
            "buffer" : 0,
            "byteLength" : 10640,
            "byteOffset" : 31920
        },
        {
            "buffer" : 0,
            "byteLength" : 14736,
            "byteOffset" : 42560
        },
        {
            "buffer" : 0,
            "byteLength" : 15384,
            "byteOffset" : 57296
        },
        {
            "buffer" : 0,
            "byteLength" : 15384,
            "byteOffset" : 72680
        },
        {
            "buffer" : 0,
            "byteLength" : 10256,
            "byteOffset" : 88064
        },
        {
            "buffer" : 0,
            "byteLength" : 9276,
            "byteOffset" : 98320
        },
        {
            "buffer" : 0,
            "byteLength" : 2064,
            "byteOffset" : 107596
        },
        {
            "buffer" : 0,
            "byteLength" : 2064,
            "byteOffset" : 109660
        },
        {
            "buffer" : 0,
            "byteLength" : 1376,
            "byteOffset" : 111724
        },
        {
            "buffer" : 0,
            "byteLength" : 924,
            "byteOffset" : 113100
        },
        {
            "buffer" : 0,
            "byteLength" : 2808,
            "byteOffset" : 114024
        },
        {
            "buffer" : 0,
            "byteLength" : 2808,
            "byteOffset" : 116832
        },
        {
            "buffer" : 0,
            "byteLength" : 1872,
            "byteOffset" : 119640
        },
        {
            "buffer" : 0,
            "byteLength" : 1344,
            "byteOffset" : 121512
        },
        {
            "buffer" : 0,
            "byteLength" : 312,
            "byteOffset" : 122856
        },
        {
            "buffer" : 0,
            "byteLength" : 312,
            "byteOffset" : 123168
        },
        {
            "buffer" : 0,
            "byteLength" : 208,
            "byteOffset" : 123480
        },
        {
            "buffer" : 0,
            "byteLength" : 144,
            "byteOffset" : 123688
        },
        {
            "buffer" : 0,
            "byteLength" : 48,
            "byteOffset" : 123832
        },
        {
            "buffer" : 0,
            "byteLength" : 48,
            "byteOffset" : 123880
        },
        {
            "buffer" : 0,
            "byteLength" : 32,
            "byteOffset" : 123928
        },
        {
            "buffer" : 0,
            "byteLength" : 12,
            "byteOffset" : 123960
        },
        {
            "buffer" : 0,
            "byteLength" : 72960,
            "byteOffset" : 123972
        },
        {
            "buffer" : 0,
            "byteLength" : 72960,
            "byteOffset" : 196932
        },
        {
            "buffer" : 0,
            "byteLength" : 48640,
            "byteOffset" : 269892
        },
        {
            "buffer" : 0,
            "byteLength" : 48640,
            "byteOffset" : 318532
        },
        {
            "buffer" : 0,
            "byteLength" : 63888,
            "byteOffset" : 367172
        }
    ],
    "samplers" : [
        {
            "magFilter" : 9729,
            "minFilter" : 9987
        }
    ],
    "buffers" : [
        {
            "byteLength" : 431060,
            "uri" : "A5A6.bin"
        }
    ]
}
