<svg xmlns="http://www.w3.org/2000/svg" viewBox="0 0 621.18 599.08"><defs><style>.cls-1{fill:#fff;}</style></defs><g id="Layer_2" data-name="Layer 2"><g id="Layer_1-2" data-name="Layer 1"><path class="cls-1" d="M591.57,505.22A29.31,29.31,0,0,0,573.85,511c.09-.22.19-.43.28-.65l-1.65-.86c-9.84,15-30.08,20.24-43.74,20.24-26.28,0-46.89-17-48.07-55.77h91a57.37,57.37,0,0,0,1.4-7.75,30.37,30.37,0,0,0,18.56,6.22c16.1,0,29.55-12.4,29.55-28.26,0-15.6-13.18-28.24-29.59-28.24-12.84,0-23.71,7.74-27.82,18.59-10.6-12-29.55-19.09-55-19.09A98,98,0,0,0,493,416.66h-4.64v0h-59.6v2.18c16.89,0,22.83,7,22.53,17.63-14.15,13.49-22.25,32.66-22.34,55.17l-7.33,14.9-26-53.22c-8.2-17-10.93-34.45,10.67-34.45v-2.18H311.17V415l-76.54,18.31.55,2.19c23.51-5.2,24.6,4.37,24.6,22.69v68.35c0,26.24-2.46,31.71-21.87,31.71v2.16h94.6v-2.19c-19.41,0-21.87-5.47-21.87-31.71v-80.1l.47-26.7c10.64,2.79,17,12.13,25.78,29.44l58.52,116.76,33.71-68.5c2.51,41.33,33.65,66.23,70.09,66.23,28.22,0,49.2-13.27,63.06-32.08a35.82,35.82,0,0,0-.29,4.57c21.25,9.14,31.74,22.32,31.74,34.69,0,11-8.87,21.25-26.09,26.09v2.15c30.13-7.53,53.53-36,53.53-62.93C621.16,517.86,608,505.22,591.57,505.22ZM480.63,470.43c0-19.68,4.65-52.76,28.17-52.76,21.16,0,18.78,36.6,14.39,53.58H480.63Z"/><path class="cls-1" d="M271.4,356.47c8.8,31.16,36.1,49.4,67.29,49.4,36.38,0,60.7-22.06,73.27-49.61v13.52c0,21.33,10.66,36.09,32.26,36.09,20.78,0,39.1-10.94,53.32-26.52l-1.12-1.7c-6.29,5.74-12.58,9.84-20,9.84-13.67,0-14-16.4-14-27.06V262h30.21v-2.19H462.51V205.43h-2.19c-1.09,13.4-6.28,32.54-13.39,41.83-10.12,8.48-27.62,12.58-50,12.58h-4.1V262h19.1V351.7c-9.84,15-30.07,20.23-43.74,20.23-27.07,0-48.12-20.78-48.12-59.33,0-19.68,4.65-52.76,29.8-52.76,12.58,0,20.23,8.47,20.23,21.87,0,6.29-3.82,14.49-9.57,17,.83,15.58,11.76,23,24.07,23,14.76,0,26-9.56,26-25.15,0-32.8-44.29-38.82-62.61-38.82-38.52,0-66.57,20.56-76.05,52,4.2-31.13-20.4-52-64.15-52-48.12,0-79.84,31.72-79.84,76.55,0,44.57,32.26,71.63,70.27,71.63C234.51,405.87,258.81,383.87,271.4,356.47Zm-91.77-43.89c0-19.68,4.65-52.76,28.16-52.76,21.16,0,18.78,36.6,14.39,53.58H179.63Zm.05,3.56h90.6a87.09,87.09,0,0,0-1.86,18,83.43,83.43,0,0,0,2.1,18.83c-10.17,14-29.55,18.94-42.8,18.94C201.45,371.9,180.86,354.9,179.68,316.14Z"/><path class="cls-1" d="M85.44,84.55c0,10.92,7.61,16.76,19.55,16.76,10.22,0,20.2-5.38,23.68-14.59.94,11.08,5.71,14.34,13.13,14.34,9.15,0,16.25-4.53,22.1-9.53l-.51-.76c-2.41,1.65-3.94,2.16-5.59,2.16-5.84,0-5.84-5.81-5.84-10V52.21c0-14.68-16-19.68-33.77-19.68-8.25,0-28.57,3.17-28.57,18.41,0,7.23,5.21,11.3,12.07,11.3,5.71,0,10.79-3.43,11.17-10.67-2.67-1.14-4.45-5-4.45-7.87,0-6.22,3.18-10.16,9.78-10.16,8.76,0,10.16,8.89,10.16,16.89v7.64C113.92,67.88,85.44,64.48,85.44,84.55Zm42.9-1.9c0,4.7-2.92,9.39-8.24,9.39-6.6,0-8.76-6.47-8.76-12.57,0-14.08,8-14.34,17-20.15Z"/><path class="cls-1" d="M164.93,20.07v64.5c0,12.19-1.16,14.73-10.16,14.73v1l43.93,0v-1c-9,0-10.16-2.54-10.16-14.73V0L153.25,8.54l.25,1C164.42,7.07,164.93,11.57,164.93,20.07Z"/><path class="cls-1" d="M218.42,248c41.62,0,74.75-26.17,79.28-64.92v28.83c0,26.24-2.46,31.71-21.87,31.71v2.19H442.06v-2.19c-19.43,0-21.87-5.47-21.87-31.71V29.81L348.56,47.07V29.81l-76,18.32.55,2.19c23.51-5.2,24.6,4.37,24.6,22.69v91.71c-3.92-33.55-29.27-57.66-63-63.53,19.38-1.27,34.13-15,34.13-34.29,0-20.31-16.26-34.4-37.08-34.4s-37.13,14.09-37.13,34.4c0,16.48,10.68,28.85,25.82,32.95h-2c-44.82,0-79.82,30.3-79.82,74.05a75.46,75.46,0,0,0,3.31,22.53c-10.36,13.08-29,17.68-41.9,17.68-27.06,0-48.12-20.78-48.12-59.33,0-19.68,4.65-52.77,29.81-52.77C94.3,102,102,110.49,102,123.89c0,6.28-3.83,14.49-9.57,17,.82,15.58,11.76,23,24.06,23,14.76,0,26-9.56,26-25.15,0-28.5-33.42-36.78-54.21-38.46v-.89c-9,0-10.16-2.54-10.16-14.73V51.43c0-13-4.56-18.92-14.85-18.92-7.79,0-15.46,3.6-28.17,13.9L35.55,0,0,8.51l.26,1c10.92-2.41,11.42,2,11.42,10.54v64.5c0,12.19-1.14,14.73-10.15,14.73v1h41v-1c-7.12,0-7.24-5.59-7.24-14.73V47.63c3.75-3.28,8-5,11.55-5,7.62,0,7.62,7.87,7.62,11.3v30.6c0,11.3-.13,14.73-7.11,14.73v1H69.9C27.63,104.43.25,134.71.25,176.36.25,220.93,32.51,248,70.52,248c35.72,0,59.84-21.26,72.6-48.12C154,229.2,183.12,248,218.42,248ZM348.56,49.58c19.78-3.31,20.77,6.17,20.77,23.43v138.9c0,19.77-1.4,27.74-10.38,30.48-9-2.74-10.39-10.71-10.39-30.48ZM231.72,33.51c9.9,0,11.17,15.62,11.17,33.39,0,19-1.27,33.4-11.17,33.4S220.55,86,220.55,66.9C220.55,49.13,221.82,33.51,231.72,33.51ZM218.42,102c21.33,0,24.06,33.63,24.06,71.91,0,41-2.74,71.91-24.06,71.91s-24.07-30.9-24.07-71.91C194.35,135.62,197.09,102,218.42,102Z"/></g></g></svg>