<svg xmlns="http://www.w3.org/2000/svg" viewBox="0 0 1275.59 360.53"><defs><style>.cls-1{fill:#fff;}</style></defs><g id="Layer_2" data-name="Layer 2"><g id="Layer_1-2" data-name="Layer 1"><path class="cls-1" d="M0,350.23H45.14V15.69H0V8.8H232.63V93.46h-4.49A278.47,278.47,0,0,0,216.77,60a94.61,94.61,0,0,0-14.63-24.49,54.07,54.07,0,0,0-20.36-14.94Q170,15.69,153.33,15.69H85.82V174.13h26.43c9,0,16.51-1,22.77-2.91a34.19,34.19,0,0,0,16.06-11c4.46-5.46,8.29-12.78,11.37-22.08a308,308,0,0,0,9.16-35.95h4.49V254.38h-4.49c-1.9-9.5-3.86-18.6-5.88-27.42a97,97,0,0,0-8.56-23.46,43.88,43.88,0,0,0-14.64-16.37Q133.39,181,118.74,181H85.82V350.23h45.12v6.88H0Z"/><path class="cls-1" d="M250.78,350.23h45.14V15.69H250.78V8.8h131v6.89H336.58V350.23H409q35.72,0,56.1-26.84T494.77,250h4.49V357.11H250.78Z"/><path class="cls-1" d="M521.15,350.23h35.74L666.72,0h9.72L787.07,350.23h36.21v6.88H698v-6.88h45.14l-42.69-136H606.11l-42.7,136h45.14v6.88h-87.4ZM653.29,65.06,608.55,207.43H698Z"/><polygon class="cls-1" points="840.72 350.23 885.89 350.23 885.89 15.69 840.72 15.69 840.72 8.8 971.68 8.8 971.68 15.69 926.55 15.69 926.55 350.23 971.68 350.23 971.68 357.11 840.72 357.11 840.72 350.23"/><path class="cls-1" d="M994.57,350.23h45.16V15.69H994.57V8.8h77.27c3.25,0,6.51-.07,9.77-.23s6.52-.41,9.76-.73c3.25,0,6.51-.06,9.76-.27s6.52-.21,9.77-.21a249.24,249.24,0,0,1,42.27,3.17q18.28,3.17,34.17,18.33c9.49,8.82,16.23,18.76,20.11,29.85s5.92,21.52,5.92,31.32a99.89,99.89,0,0,1-2.26,18.83,68.34,68.34,0,0,1-9.71,23.42c-5.06,8-12.29,15.38-21.77,22.08s-22.1,11.15-37.84,13.4v1c4.33.66,10.23,1.85,17.71,3.62a94.89,94.89,0,0,1,22.77,9.09,84.57,84.57,0,0,1,21.35,16.89c6.48,7.05,11.12,16.05,13.81,27.12a137.58,137.58,0,0,1,3.47,22.23c.68,8.39,1.21,16.9,1.62,25.7s.82,17.29,1.23,25.45a140.57,140.57,0,0,0,2.24,20.56,84.79,84.79,0,0,0,7.71,22.95c3.52,6.87,9.24,10.28,17.08,10.28a27.13,27.13,0,0,0,11-2.44,26.79,26.79,0,0,0,10.18-7.84l3.64,5.4c-1.35,1.3-2.9,2.72-4.66,4.13a33.73,33.73,0,0,1-6.72,4.22,43.32,43.32,0,0,1-10,3.16,73.19,73.19,0,0,1-14.45,1.23c-10.8,0-19.84-1.61-27-4.92a40.65,40.65,0,0,1-17.27-14.43q-6.49-9.56-9.57-23.43a221.41,221.41,0,0,1-4.23-32.57l-2.86-44.52q-1.68-24.43-8.15-38.13t-15.24-20a39.56,39.56,0,0,0-18.11-7.65,134.54,134.54,0,0,0-16.27-1.15h-40.63V350.23h45.11v6.88h-131Zm85.85-183.45h37.37a61,61,0,0,0,20.76-3.38,35.86,35.86,0,0,0,16-12c4.51-5.73,8-13.51,10.4-23.28s3.67-22.14,3.67-37.17c0-17-1.83-30.53-5.51-40.82s-8.39-18-14.21-23.25a43.88,43.88,0,0,0-19.54-10.27A96.86,96.86,0,0,0,1108,14.18q-7.29,0-14.82.27a84.92,84.92,0,0,0-12.79,1.24Z"/><path class="cls-1" d="M425.22,28a8.78,8.78,0,0,1,1.83,2.77,9.74,9.74,0,0,1,.59,3.51,9.64,9.64,0,0,1-3.82,7.83,14.69,14.69,0,0,1-9.5,3.09,20.1,20.1,0,0,1-5.23-.72,22.17,22.17,0,0,1-4.49-1.83l-1.21,1.84h-2.18l-.4-12.31h2.24a29,29,0,0,0,1.59,4.15,15.17,15.17,0,0,0,2.44,3.41,10.58,10.58,0,0,0,3.35,2.37,10.16,10.16,0,0,0,4.43.88,10.6,10.6,0,0,0,3.32-.44,5.94,5.94,0,0,0,2.29-1.28,5.14,5.14,0,0,0,1.33-2,7.83,7.83,0,0,0,.43-2.6,6.94,6.94,0,0,0-1.33-4,8.11,8.11,0,0,0-3.95-2.8c-1.18-.45-2.54-.92-4.08-1.46s-2.87-1-4-1.52a13.27,13.27,0,0,1-5.13-3.54,8.83,8.83,0,0,1-1.82-5.8,7.92,7.92,0,0,1,.93-3.83,9.63,9.63,0,0,1,2.57-3.15,11.87,11.87,0,0,1,3.77-2,13.55,13.55,0,0,1,4.52-.78,14,14,0,0,1,4.82.79,23,23,0,0,1,3.91,1.75l1.12-1.71h2.19L426,20.47h-2.21c-.43-1.38-.86-2.68-1.37-3.94a16.55,16.55,0,0,0-2-3.41,8.55,8.55,0,0,0-2.9-2.3,8.76,8.76,0,0,0-4.18-.88,6.71,6.71,0,0,0-4.47,1.54,4.72,4.72,0,0,0-1.83,3.74,6.15,6.15,0,0,0,1.16,3.88,8.55,8.55,0,0,0,3.43,2.49,42.42,42.42,0,0,0,4,1.55c1.32.45,2.56.88,3.77,1.38A31.69,31.69,0,0,1,422.58,26,11.23,11.23,0,0,1,425.22,28"/><path class="cls-1" d="M474,44.44H457.74v-1.8a22.69,22.69,0,0,0,3.57-.51c.94-.28,1.41-.56,1.41-.94a2.2,2.2,0,0,0-.06-.56,5.38,5.38,0,0,0-.15-.58l-3.25-8h-13.7c-.5,1.19-.94,2.22-1.26,3.09s-.6,1.67-.86,2.43a10.07,10.07,0,0,0-.48,1.78,5.13,5.13,0,0,0-.14,1.09c0,.71.54,1.21,1.73,1.59a18.22,18.22,0,0,0,3.91.65v1.8H433.75v-1.8a11,11,0,0,0,1.78-.31,6.34,6.34,0,0,0,1.78-.64A7.1,7.1,0,0,0,439,40.27a8.91,8.91,0,0,0,1.18-2.06c2-4.5,4.12-9.57,6.52-15.17S451.14,12.41,453,8h2.17l13,31a5.66,5.66,0,0,0,.94,1.59,5.54,5.54,0,0,0,1.45,1.2,7.68,7.68,0,0,0,1.63.59,13.7,13.7,0,0,0,1.72.27ZM458.28,29.75l-5.95-13.93-5.81,13.93Z"/><path class="cls-1" d="M516.54,10.32a8.34,8.34,0,0,0-1.74.31,7.67,7.67,0,0,0-1.68.64,4.32,4.32,0,0,0-1.49,1.35,14.55,14.55,0,0,0-1.13,2q-1.81,4-5.53,12.52T497.4,44.88h-2.29c-2.64-6.52-5.2-12.79-7.66-18.87s-4.13-10.13-5-12.25a4.16,4.16,0,0,0-.87-1.38,5.69,5.69,0,0,0-1.44-1.13,6.69,6.69,0,0,0-1.66-.66,12.53,12.53,0,0,0-1.67-.27V8.54h16.14v1.78a28.72,28.72,0,0,0-3.45.39c-1,.19-1.43.52-1.43,1a2.1,2.1,0,0,0,.11.67c.07.22.12.42.18.6.69,1.65,1.78,4.37,3.29,8.06s3.69,9.1,6.5,16c1.38-3.14,3-6.84,4.82-11.07s3-7.19,3.64-8.77A17.55,17.55,0,0,0,507.66,14a6.83,6.83,0,0,0,.15-1.41,1.23,1.23,0,0,0-.55-1,4.75,4.75,0,0,0-1.51-.65,17.12,17.12,0,0,0-1.83-.4c-.63-.07-1.25-.17-1.92-.21V8.54h14.54Z"/><path class="cls-1" d="M554.66,12.77a17.63,17.63,0,0,1,4,6,19.73,19.73,0,0,1,1.47,7.76,19.61,19.61,0,0,1-1.48,7.75,17.1,17.1,0,0,1-4.12,6A18.28,18.28,0,0,1,548.62,44a20.68,20.68,0,0,1-14.75-.08A17.35,17.35,0,0,1,528,40a17.6,17.6,0,0,1-3.89-6,19.6,19.6,0,0,1-1.43-7.5,18.87,18.87,0,0,1,1.5-7.79,18.33,18.33,0,0,1,4.08-6,18.89,18.89,0,0,1,6-3.79,20.29,20.29,0,0,1,7.16-1.31A20,20,0,0,1,548.72,9a17.53,17.53,0,0,1,5.94,3.75m-4.1,25.48A17,17,0,0,0,552.82,33a28.65,28.65,0,0,0,.69-6.49,27.27,27.27,0,0,0-.8-6.77,15.39,15.39,0,0,0-2.29-5.25,10.33,10.33,0,0,0-3.8-3.37A10.9,10.9,0,0,0,532,15,16.48,16.48,0,0,0,530,20.26a29,29,0,0,0-.66,6.26,28.32,28.32,0,0,0,.7,6.58,15.75,15.75,0,0,0,2.25,5.19,11.34,11.34,0,0,0,14.44,3.48,10.69,10.69,0,0,0,3.86-3.52"/><path class="cls-1" d="M583.84,44.44H566.26v-1.8c.51,0,1.21-.12,2.15-.15a7.68,7.68,0,0,0,2-.33,2.56,2.56,0,0,0,1.31-.88,2.73,2.73,0,0,0,.42-1.58v-26a3,3,0,0,0-.3-1.45,2.32,2.32,0,0,0-1.43-1,12.66,12.66,0,0,0-2.07-.58,16.28,16.28,0,0,0-2.08-.33V8.54h17.58v1.78c-.55,0-1.23.1-2,.2a12.74,12.74,0,0,0-2,.44,2.13,2.13,0,0,0-1.4,1,3.22,3.22,0,0,0-.36,1.53v26a2.94,2.94,0,0,0,.38,1.48,2.73,2.73,0,0,0,1.38,1,16.49,16.49,0,0,0,1.88.44,21.29,21.29,0,0,0,2.2.27Z"/><path class="cls-1" d="M631.27,44.44H620.76c-2.32-3.34-4.42-6.26-6.31-8.71s-3.9-5-6.13-7.56h-4V39.53a4.21,4.21,0,0,0,.28,1.58,2.22,2.22,0,0,0,1.32,1,14.79,14.79,0,0,0,1.71.33c.83.08,1.54.15,2.09.18v1.8h-16.5v-1.8c.46,0,1.09-.12,1.92-.18a9.74,9.74,0,0,0,1.74-.33,2.07,2.07,0,0,0,1.19-1,2.94,2.94,0,0,0,.37-1.63V13.59a4.07,4.07,0,0,0-.25-1.55,1.93,1.93,0,0,0-1.31-1,9,9,0,0,0-1.78-.42,16.94,16.94,0,0,0-1.88-.27V8.54H611.3a22.56,22.56,0,0,1,4.6.46,12.91,12.91,0,0,1,4,1.49,8,8,0,0,1,2.71,2.65,7.2,7.2,0,0,1,1,3.95,9.42,9.42,0,0,1-.69,3.65,7.54,7.54,0,0,1-2.06,2.77,12.26,12.26,0,0,1-3,1.9,23.26,23.26,0,0,1-3.81,1.34c1.94,2.34,3.53,4.32,4.79,5.9s2.83,3.57,4.71,5.87a12.88,12.88,0,0,0,2.16,2.23,12.67,12.67,0,0,0,2,1.18,6.48,6.48,0,0,0,1.79.52c.71.07,1.31.16,1.79.19ZM616.8,17.69a6.73,6.73,0,0,0-2-5.16A8.15,8.15,0,0,0,609,10.62h-4.68V26H608a9.16,9.16,0,0,0,6.32-2.22,7.68,7.68,0,0,0,2.52-6.06"/></g></g></svg>