{
	"asset":{
		"generator":"Khronos glTF Blender I/O v3.6.27",
		"version":"2.0"
	},
	"scene":0,
	"scenes":[
		{
			"name":"Scene",
			"nodes":[
				0,
				1,
				2
			]
		}
	],
	"nodes":[
		{
			"mesh":0,
			"name":"Triangle",
			"scale":[
				0.6567898392677307,
				0.6567898392677307,
				0.6567898392677307
			],
			"translation":[
				-0.007442386820912361,
				-0.006292033940553665,
				0.005234097130596638
			]
		},
		{
			"mesh":1,
			"name":"Plane",
			"rotation":[
				0.7071068286895752,
				0,
				0,
				0.7071068286895752
			],
			"scale":[
				-0.22155147790908813,
				-0.17733021080493927,
				-0.1660221964120865
			],
			"translation":[
				0,
				0,
				-0.002433446468785405
			]
		},
		{
			"mesh":2,
			"name":"Image",
			"rotation":[
				0.7071068286895752,
				0,
				0,
				0.7071068286895752
			],
			"scale":[
				0.09764903038740158,
				0.10462584346532822,
				0.06565821915864944
			],
			"translation":[
				-0.007180459797382355,
				-0.0008447599830105901,
				-0.014417149126529694
			]
		}
	],
	"materials":[
		{
			"doubleSided":true,
			"name":"Blue",
			"pbrMetallicRoughness":{
				"baseColorFactor":[
					0,
					0.21223075687885284,
					0.4019777774810791,
					1
				],
				"metallicFactor":0,
				"roughnessFactor":0.4000000059604645
			}
		},
		{
			"doubleSided":true,
			"emissiveFactor":[
				1,
				1,
				1
			],
			"name":"White",
			"pbrMetallicRoughness":{
				"baseColorFactor":[
					0.800000011920929,
					0.800000011920929,
					0.800000011920929,
					1
				],
				"metallicFactor":0,
				"roughnessFactor":0.5
			}
		},
		{
			"doubleSided":true,
			"emissiveFactor":[
				0.5,
				0.5,
				0.5
			],
			"emissiveTexture":{
				"index":0
			},
			"name":"Image",
			"pbrMetallicRoughness":{
				"baseColorTexture":{
					"index":1
				},
				"metallicFactor":0
			}
		}
	],
	"meshes":[
		{
			"name":"Triangle",
			"primitives":[
				{
					"attributes":{
						"POSITION":0,
						"NORMAL":1,
						"TEXCOORD_0":2
					},
					"indices":3,
					"material":0
				}
			]
		},
		{
			"name":"Plane",
			"primitives":[
				{
					"attributes":{
						"POSITION":4,
						"NORMAL":5,
						"TEXCOORD_0":6
					},
					"indices":7,
					"material":1
				}
			]
		},
		{
			"name":"Image",
			"primitives":[
				{
					"attributes":{
						"POSITION":8,
						"NORMAL":9,
						"TEXCOORD_0":10
					},
					"indices":11,
					"material":2
				}
			]
		}
	],
	"textures":[
		{
			"sampler":0,
			"source":0
		},
		{
			"sampler":0,
			"source":0
		}
	],
	"images":[
		{
			"mimeType":"image/jpeg",
			"name":"IMG_8621 1",
			"uri":"IMG_8621%201.jpg"
		}
	],
	"accessors":[
		{
			"bufferView":0,
			"componentType":5126,
			"count":3028,
			"max":[
				0.15837687253952026,
				0.07254347205162048,
				-8.464790880680084e-06
			],
			"min":[
				0.006045982241630554,
				-0.04848882183432579,
				-0.005369664169847965
			],
			"type":"VEC3"
		},
		{
			"bufferView":1,
			"componentType":5126,
			"count":3028,
			"type":"VEC3"
		},
		{
			"bufferView":2,
			"componentType":5126,
			"count":3028,
			"type":"VEC2"
		},
		{
			"bufferView":3,
			"componentType":5123,
			"count":6780,
			"type":"SCALAR"
		},
		{
			"bufferView":4,
			"componentType":5126,
			"count":82,
			"max":[
				1,
				0,
				1
			],
			"min":[
				-1,
				0,
				-1
			],
			"type":"VEC3"
		},
		{
			"bufferView":5,
			"componentType":5126,
			"count":82,
			"type":"VEC3"
		},
		{
			"bufferView":6,
			"componentType":5126,
			"count":82,
			"type":"VEC2"
		},
		{
			"bufferView":7,
			"componentType":5123,
			"count":246,
			"type":"SCALAR"
		},
		{
			"bufferView":8,
			"componentType":5126,
			"count":4,
			"max":[
				1,
				0,
				1
			],
			"min":[
				-1,
				0,
				-1
			],
			"type":"VEC3"
		},
		{
			"bufferView":9,
			"componentType":5126,
			"count":4,
			"type":"VEC3"
		},
		{
			"bufferView":10,
			"componentType":5126,
			"count":4,
			"type":"VEC2"
		},
		{
			"bufferView":11,
			"componentType":5123,
			"count":6,
			"type":"SCALAR"
		}
	],
	"bufferViews":[
		{
			"buffer":0,
			"byteLength":36336,
			"byteOffset":0,
			"target":34962
		},
		{
			"buffer":0,
			"byteLength":36336,
			"byteOffset":36336,
			"target":34962
		},
		{
			"buffer":0,
			"byteLength":24224,
			"byteOffset":72672,
			"target":34962
		},
		{
			"buffer":0,
			"byteLength":13560,
			"byteOffset":96896,
			"target":34963
		},
		{
			"buffer":0,
			"byteLength":984,
			"byteOffset":110456,
			"target":34962
		},
		{
			"buffer":0,
			"byteLength":984,
			"byteOffset":111440,
			"target":34962
		},
		{
			"buffer":0,
			"byteLength":656,
			"byteOffset":112424,
			"target":34962
		},
		{
			"buffer":0,
			"byteLength":492,
			"byteOffset":113080,
			"target":34963
		},
		{
			"buffer":0,
			"byteLength":48,
			"byteOffset":113572,
			"target":34962
		},
		{
			"buffer":0,
			"byteLength":48,
			"byteOffset":113620,
			"target":34962
		},
		{
			"buffer":0,
			"byteLength":32,
			"byteOffset":113668,
			"target":34962
		},
		{
			"buffer":0,
			"byteLength":12,
			"byteOffset":113700,
			"target":34963
		}
	],
	"samplers":[
		{
			"magFilter":9729,
			"minFilter":9987
		}
	],
	"buffers":[
		{
			"byteLength":113712,
			"uri":"storey3.bin"
		}
	]
}
