{
    "asset" : {
        "generator" : "Khronos glTF Blender I/O v1.7.33",
        "version" : "2.0"
    },
    "scene" : 0,
    "scenes" : [
        {
            "name" : "Scene",
            "nodes" : [
                0,
                1
            ]
        }
    ],
    "nodes" : [
        {
            "mesh" : 0,
            "name" : "Hex",
            "rotation" : [
                -0.4913853108882904,
                0.5084688067436218,
                0.508468747138977,
                -0.49138525128364563
            ],
            "scale" : [
                1,
                0.45774102210998535,
                1
            ],
            "translation" : [
                -0.0692186951637268,
                0.05249369144439697,
                -0.003073624102398753
            ]
        },
        {
            "mesh" : 1,
            "name" : "Triangle",
            "scale" : [
                0.6567898392677307,
                0.6567898392677307,
                0.6567898392677307
            ],
            "translation" : [
                -0.007442386820912361,
                -0.006292033940553665,
                0.005234097130596638
            ]
        }
    ],
    "materials" : [
        {
            "doubleSided" : true,
            "name" : "Red",
            "pbrMetallicRoughness" : {
                "baseColorFactor" : [
                    1,
                    0.03310462832450867,
                    0,
                    1
                ],
                "metallicFactor" : 0,
                "roughnessFactor" : 0.4000000059604645
            }
        },
        {
            "doubleSided" : true,
            "name" : "Blue",
            "pbrMetallicRoughness" : {
                "baseColorFactor" : [
                    0,
                    0.21223075687885284,
                    0.4019777774810791,
                    1
                ],
                "metallicFactor" : 0,
                "roughnessFactor" : 0.4000000059604645
            }
        }
    ],
    "meshes" : [
        {
            "name" : "Hex",
            "primitives" : [
                {
                    "attributes" : {
                        "POSITION" : 0,
                        "NORMAL" : 1,
                        "TEXCOORD_0" : 2
                    },
                    "indices" : 3,
                    "material" : 0
                }
            ]
        },
        {
            "name" : "Triangle",
            "primitives" : [
                {
                    "attributes" : {
                        "POSITION" : 4,
                        "NORMAL" : 5,
                        "TEXCOORD_0" : 6
                    },
                    "indices" : 7,
                    "material" : 1
                }
            ]
        }
    ],
    "accessors" : [
        {
            "bufferView" : 0,
            "componentType" : 5126,
            "count" : 534,
            "max" : [
                0.1062014028429985,
                0.0020000000949949026,
                -0.00012232019798830152
            ],
            "min" : [
                9.903070167638361e-05,
                -0.0020000000949949026,
                -0.12395735085010529
            ],
            "type" : "VEC3"
        },
        {
            "bufferView" : 1,
            "componentType" : 5126,
            "count" : 534,
            "type" : "VEC3"
        },
        {
            "bufferView" : 2,
            "componentType" : 5126,
            "count" : 534,
            "type" : "VEC2"
        },
        {
            "bufferView" : 3,
            "componentType" : 5123,
            "count" : 1584,
            "type" : "SCALAR"
        },
        {
            "bufferView" : 4,
            "componentType" : 5126,
            "count" : 3028,
            "max" : [
                0.15837687253952026,
                0.07254347205162048,
                -8.464790880680084e-06
            ],
            "min" : [
                0.006045982241630554,
                -0.04848882183432579,
                -0.005369664169847965
            ],
            "type" : "VEC3"
        },
        {
            "bufferView" : 5,
            "componentType" : 5126,
            "count" : 3028,
            "type" : "VEC3"
        },
        {
            "bufferView" : 6,
            "componentType" : 5126,
            "count" : 3028,
            "type" : "VEC2"
        },
        {
            "bufferView" : 7,
            "componentType" : 5123,
            "count" : 6780,
            "type" : "SCALAR"
        }
    ],
    "bufferViews" : [
        {
            "buffer" : 0,
            "byteLength" : 6408,
            "byteOffset" : 0
        },
        {
            "buffer" : 0,
            "byteLength" : 6408,
            "byteOffset" : 6408
        },
        {
            "buffer" : 0,
            "byteLength" : 4272,
            "byteOffset" : 12816
        },
        {
            "buffer" : 0,
            "byteLength" : 3168,
            "byteOffset" : 17088
        },
        {
            "buffer" : 0,
            "byteLength" : 36336,
            "byteOffset" : 20256
        },
        {
            "buffer" : 0,
            "byteLength" : 36336,
            "byteOffset" : 56592
        },
        {
            "buffer" : 0,
            "byteLength" : 24224,
            "byteOffset" : 92928
        },
        {
            "buffer" : 0,
            "byteLength" : 13560,
            "byteOffset" : 117152
        }
    ],
    "buffers" : [
        {
            "byteLength" : 130712,
            "uri" : "storey.bin"
        }
    ]
}
